{"glyphs":{"0":{"ha":833,"x_min":83,"x_max":750,"o":"m 417 -14 q 240 24 315 -14 q 124 131 165 63 q 83 292 83 200 l 83 722 q 124 883 83 814 q 240 990 165 951 q 417 1028 315 1028 q 594 990 519 1028 q 709 883 668 951 q 750 722 750 814 l 750 292 q 709 131 750 200 q 594 24 668 63 q 417 -14 519 -14 m 417 167 q 519 200 482 167 q 556 292 556 233 l 556 722 q 519 814 556 781 q 417 847 482 847 q 315 814 351 847 q 278 722 278 781 l 278 292 q 315 200 278 233 q 417 167 353 167 m 417 411 q 347 439 374 411 q 319 511 319 467 q 347 582 319 556 q 417 608 374 608 q 488 582 461 608 q 514 511 514 556 q 488 439 514 467 q 417 411 461 411 z "},"1":{"ha":833,"x_min":108,"x_max":778,"o":"m 111 0 l 111 188 l 367 188 l 367 824 l 108 632 l 108 847 l 346 1014 l 575 1014 l 575 188 l 778 188 l 778 0 l 111 0 z "},"2":{"ha":833,"x_min":69,"x_max":753,"o":"m 97 0 l 97 183 l 454 540 q 513 621 493 581 q 533 704 533 661 q 500 805 533 769 q 408 840 467 840 q 313 803 349 840 q 278 701 278 767 l 69 701 q 112 874 69 801 q 231 988 154 947 q 413 1028 308 1028 q 586 991 513 1028 q 701 886 660 954 q 742 724 742 818 q 702 560 742 638 q 575 397 663 482 l 360 188 l 753 188 l 753 0 l 97 0 z "},"3":{"ha":833,"x_min":72,"x_max":750,"o":"m 411 -14 q 164 65 256 -14 q 72 278 72 143 l 281 278 q 315 191 281 222 q 411 160 349 160 q 542 278 542 160 l 542 358 q 508 447 542 415 q 411 478 474 478 l 286 478 l 286 639 l 492 840 l 121 840 l 121 1014 l 711 1014 l 711 853 l 500 646 q 683 550 617 625 q 750 360 750 475 l 750 278 q 659 65 750 143 q 411 -14 568 -14 z "},"4":{"ha":833,"x_min":69,"x_max":722,"o":"m 514 0 l 514 186 l 69 186 l 69 476 l 450 1014 l 679 1014 l 264 418 l 264 367 l 514 367 l 514 583 l 722 583 l 722 0 l 514 0 z "},"5":{"ha":833,"x_min":83,"x_max":750,"o":"m 415 -14 q 175 61 264 -14 q 83 264 86 136 l 292 264 q 326 192 294 218 q 415 167 358 167 q 509 198 476 167 q 542 285 542 229 l 542 383 q 415 500 542 500 q 308 458 340 500 l 107 458 l 114 1014 l 713 1014 l 713 826 l 310 826 l 307 563 l 310 563 q 369 638 322 611 q 489 665 415 665 q 681 591 613 665 q 750 383 750 517 l 750 285 q 661 66 750 146 q 415 -14 572 -14 z "},"6":{"ha":833,"x_min":63,"x_max":771,"o":"m 417 -14 q 231 30 311 -14 q 107 153 151 74 q 63 336 63 232 q 161 633 63 461 l 381 1014 l 607 1014 l 324 531 l 333 525 q 405 594 364 569 q 506 619 446 619 q 644 581 585 619 q 738 474 704 543 q 771 314 771 406 q 726 142 771 217 q 603 27 682 68 q 417 -14 524 -14 m 417 160 q 526 202 485 160 q 568 311 568 244 q 526 422 568 379 q 417 465 485 465 q 307 422 349 465 q 265 311 265 379 q 307 202 265 244 q 417 160 349 160 z "},"7":{"ha":833,"x_min":76,"x_max":785,"o":"m 189 0 l 565 833 l 285 833 l 285 667 l 76 667 l 76 1014 l 785 1014 l 785 835 l 417 0 l 189 0 z "},"8":{"ha":833,"x_min":64,"x_max":769,"o":"m 417 -14 q 232 22 311 -14 q 108 120 153 57 q 64 267 64 183 q 113 415 64 353 q 246 519 163 478 q 128 616 172 557 q 85 756 85 675 q 126 894 85 832 q 241 992 167 956 q 417 1028 315 1028 q 592 992 518 1028 q 706 894 665 956 q 746 756 746 832 q 703 614 746 672 q 588 519 660 556 q 769 267 769 426 q 725 117 769 181 q 601 20 681 54 q 417 -14 522 -14 m 388 608 l 418 594 l 446 607 q 516 662 489 626 q 543 742 543 697 q 508 824 543 792 q 417 856 474 856 q 324 824 360 856 q 288 742 288 792 q 316 663 288 699 q 388 608 344 628 m 417 158 q 523 194 479 158 q 567 283 567 231 q 533 365 567 325 q 456 425 500 406 l 417 443 l 378 425 q 300 366 333 406 q 267 285 267 326 q 310 194 267 231 q 417 158 354 158 z "},"9":{"ha":833,"x_min":63,"x_max":771,"o":"m 233 0 l 514 475 l 504 481 q 431 411 474 436 q 328 386 388 386 q 190 426 250 386 q 97 535 131 465 q 63 696 63 606 q 108 868 63 793 q 233 985 153 943 q 417 1028 314 1028 q 601 983 521 1028 q 726 862 681 939 q 771 683 771 785 q 746 544 771 619 q 672 382 721 469 l 464 0 l 233 0 m 417 540 q 526 585 483 540 q 568 699 568 629 q 526 810 568 767 q 417 854 483 854 q 308 810 350 854 q 265 699 265 767 q 308 585 265 629 q 417 540 350 540 z "},"A":{"ha":833,"x_min":35,"x_max":799,"o":"m 35 0 l 283 1014 l 547 1014 l 799 0 l 586 0 l 538 229 l 296 229 l 247 0 l 35 0 m 331 396 l 501 396 l 453 640 q 433 745 443 693 q 417 826 422 797 q 402 746 411 797 q 382 642 393 694 l 331 396 z "},"Á":{"ha":833,"x_min":35,"x_max":799,"o":"m 35 0 l 283 1014 l 547 1014 l 799 0 l 586 0 l 538 229 l 296 229 l 247 0 l 35 0 m 331 396 l 501 396 l 453 640 q 433 745 443 693 q 417 826 422 797 q 402 746 411 797 q 382 642 393 694 l 331 396 m 294 1125 l 440 1319 l 664 1319 l 501 1125 l 294 1125 z "},"Ă":{"ha":833,"x_min":35,"x_max":799,"o":"m 35 0 l 283 1014 l 547 1014 l 799 0 l 586 0 l 538 229 l 296 229 l 247 0 l 35 0 m 331 396 l 501 396 l 453 640 q 433 745 443 693 q 417 826 422 797 q 402 746 411 797 q 382 642 393 694 l 331 396 m 417 1111 q 232 1169 303 1111 q 161 1319 161 1226 l 321 1319 q 347 1256 321 1281 q 417 1232 374 1232 q 488 1256 461 1232 q 514 1319 514 1281 l 674 1319 q 603 1169 674 1226 q 417 1111 532 1111 z "},"Ắ":{"ha":833,"x_min":35,"x_max":799,"o":"m 319 1257 l 464 1417 l 644 1417 l 486 1257 l 319 1257 m 367 1083 q 199 1134 261 1083 q 138 1271 138 1185 l 269 1271 q 294 1215 269 1236 q 367 1194 319 1194 l 465 1194 q 537 1215 511 1194 q 563 1271 563 1236 l 694 1271 q 633 1134 694 1185 q 465 1083 571 1083 l 367 1083 m 35 0 l 283 1014 l 547 1014 l 799 0 l 586 0 l 538 229 l 296 229 l 247 0 l 35 0 m 331 396 l 501 396 l 453 640 q 433 745 443 693 q 417 826 422 797 q 402 746 411 797 q 382 642 393 694 l 331 396 z "},"Ặ":{"ha":833,"x_min":35,"x_max":799,"o":"m 417 1111 q 232 1169 303 1111 q 161 1319 161 1226 l 321 1319 q 347 1256 321 1281 q 417 1232 374 1232 q 488 1256 461 1232 q 514 1319 514 1281 l 674 1319 q 603 1169 674 1226 q 417 1111 532 1111 m 35 0 l 283 1014 l 547 1014 l 799 0 l 586 0 l 538 229 l 296 229 l 247 0 l 35 0 m 331 396 l 501 396 l 453 640 q 433 745 443 693 q 417 826 422 797 q 402 746 411 797 q 382 642 393 694 l 331 396 m 417 -324 q 326 -294 360 -324 q 292 -215 292 -265 q 326 -136 292 -165 q 417 -107 360 -107 q 508 -136 474 -107 q 542 -215 542 -165 q 508 -294 542 -265 q 417 -324 474 -324 z "},"Ằ":{"ha":833,"x_min":35,"x_max":799,"o":"m 35 0 l 283 1014 l 547 1014 l 799 0 l 586 0 l 538 229 l 296 229 l 247 0 l 35 0 m 331 396 l 501 396 l 453 640 q 433 745 443 693 q 417 826 422 797 q 402 746 411 797 q 382 642 393 694 l 331 396 m 357 1257 l 225 1417 l 392 1417 l 510 1257 l 357 1257 m 367 1083 q 199 1134 261 1083 q 138 1271 138 1185 l 269 1271 q 294 1215 269 1236 q 367 1194 319 1194 l 465 1194 q 537 1215 511 1194 q 563 1271 563 1236 l 694 1271 q 633 1134 694 1185 q 465 1083 571 1083 l 367 1083 z "},"Ẳ":{"ha":833,"x_min":35,"x_max":799,"o":"m 35 0 l 283 1014 l 547 1014 l 799 0 l 586 0 l 538 229 l 296 229 l 247 0 l 35 0 m 331 396 l 501 396 l 453 640 q 433 745 443 693 q 417 826 422 797 q 402 746 411 797 q 382 642 393 694 l 331 396 m 346 1236 l 381 1278 q 393 1303 393 1293 q 374 1318 393 1318 l 278 1318 l 278 1417 l 417 1417 q 504 1392 474 1417 q 535 1325 535 1368 q 525 1284 535 1301 q 504 1251 515 1267 l 493 1236 l 346 1236 m 367 1083 q 199 1134 261 1083 q 138 1271 138 1185 l 269 1271 q 294 1215 269 1236 q 367 1194 319 1194 l 465 1194 q 537 1215 511 1194 q 563 1271 563 1236 l 694 1271 q 633 1134 694 1185 q 465 1083 571 1083 l 367 1083 z "},"Ẵ":{"ha":833,"x_min":35,"x_max":799,"o":"m 35 0 l 283 1014 l 547 1014 l 799 0 l 586 0 l 538 229 l 296 229 l 247 0 l 35 0 m 331 396 l 501 396 l 453 640 q 433 745 443 693 q 417 826 422 797 q 402 746 411 797 q 382 642 393 694 l 331 396 m 528 1264 q 440 1276 476 1264 q 375 1301 403 1289 q 319 1313 347 1313 q 285 1278 285 1313 l 285 1271 l 167 1271 l 167 1278 q 204 1379 167 1342 q 306 1417 242 1417 q 394 1405 358 1417 q 458 1381 431 1393 q 514 1368 486 1368 q 549 1403 549 1368 l 549 1410 l 667 1410 l 667 1403 q 629 1301 667 1339 q 528 1264 592 1264 m 357 1083 q 218 1124 269 1083 q 167 1236 167 1164 l 299 1236 q 313 1206 299 1218 q 349 1194 326 1194 l 486 1194 q 522 1206 508 1194 q 535 1236 535 1218 l 667 1236 q 616 1124 667 1164 q 479 1083 565 1083 l 357 1083 z "},"Ǎ":{"ha":833,"x_min":35,"x_max":799,"o":"m 35 0 l 283 1014 l 547 1014 l 799 0 l 586 0 l 538 229 l 296 229 l 247 0 l 35 0 m 331 396 l 501 396 l 453 640 q 433 745 443 693 q 417 826 422 797 q 402 746 411 797 q 382 642 393 694 l 331 396 m 319 1125 l 132 1319 l 319 1319 l 419 1222 l 513 1319 l 701 1319 l 514 1125 l 319 1125 z "},"Â":{"ha":833,"x_min":35,"x_max":799,"o":"m 35 0 l 283 1014 l 547 1014 l 799 0 l 586 0 l 538 229 l 296 229 l 247 0 l 35 0 m 331 396 l 501 396 l 453 640 q 433 745 443 693 q 417 826 422 797 q 402 746 411 797 q 382 642 393 694 l 331 396 m 132 1125 l 319 1319 l 514 1319 l 701 1125 l 514 1125 l 414 1222 l 321 1125 l 132 1125 z "},"Ấ":{"ha":833,"x_min":35,"x_max":931,"o":"m 35 0 l 283 1014 l 547 1014 l 799 0 l 586 0 l 538 229 l 296 229 l 247 0 l 35 0 m 331 396 l 501 396 l 453 640 q 433 745 443 693 q 417 826 422 797 q 402 746 411 797 q 382 642 393 694 l 331 396 m 583 1257 l 729 1417 l 931 1417 l 771 1257 l 583 1257 m 132 1083 l 319 1278 l 514 1278 l 701 1083 l 513 1083 l 417 1181 l 321 1083 l 132 1083 z "},"Ậ":{"ha":833,"x_min":35,"x_max":799,"o":"m 132 1125 l 319 1319 l 514 1319 l 701 1125 l 514 1125 l 414 1222 l 321 1125 l 132 1125 m 35 0 l 283 1014 l 547 1014 l 799 0 l 586 0 l 538 229 l 296 229 l 247 0 l 35 0 m 331 396 l 501 396 l 453 640 q 433 745 443 693 q 417 826 422 797 q 402 746 411 797 q 382 642 393 694 l 331 396 m 417 -324 q 326 -294 360 -324 q 292 -215 292 -265 q 326 -136 292 -165 q 417 -107 360 -107 q 508 -136 474 -107 q 542 -215 542 -165 q 508 -294 542 -265 q 417 -324 474 -324 z "},"Ầ":{"ha":833,"x_min":35,"x_max":819,"o":"m 35 0 l 283 1014 l 547 1014 l 799 0 l 586 0 l 538 229 l 296 229 l 247 0 l 35 0 m 331 396 l 501 396 l 453 640 q 433 745 443 693 q 417 826 422 797 q 402 746 411 797 q 382 642 393 694 l 331 396 m 632 1257 l 472 1417 l 674 1417 l 819 1257 l 632 1257 m 132 1083 l 319 1278 l 514 1278 l 701 1083 l 513 1083 l 417 1181 l 321 1083 l 132 1083 z "},"Ẩ":{"ha":833,"x_min":35,"x_max":821,"o":"m 35 0 l 283 1014 l 547 1014 l 799 0 l 586 0 l 538 229 l 296 229 l 247 0 l 35 0 m 331 396 l 501 396 l 453 640 q 433 745 443 693 q 417 826 422 797 q 402 746 411 797 q 382 642 393 694 l 331 396 m 608 1208 l 656 1256 q 674 1288 674 1274 q 639 1311 674 1311 l 542 1311 l 542 1417 l 674 1417 q 781 1388 740 1417 q 821 1303 821 1358 q 812 1264 821 1285 q 788 1231 803 1243 l 761 1208 l 608 1208 m 132 1083 l 319 1278 l 514 1278 l 701 1083 l 513 1083 l 417 1181 l 321 1083 l 132 1083 z "},"Ẫ":{"ha":833,"x_min":35,"x_max":799,"o":"m 35 0 l 283 1014 l 547 1014 l 799 0 l 586 0 l 538 229 l 296 229 l 247 0 l 35 0 m 331 396 l 501 396 l 453 640 q 433 745 443 693 q 417 826 422 797 q 402 746 411 797 q 382 642 393 694 l 331 396 m 528 1264 q 440 1276 476 1264 q 375 1301 403 1289 q 319 1313 347 1313 q 285 1278 285 1313 l 285 1271 l 167 1271 l 167 1278 q 204 1379 167 1342 q 306 1417 242 1417 q 394 1405 358 1417 q 458 1381 431 1393 q 514 1368 486 1368 q 549 1403 549 1368 l 549 1410 l 667 1410 l 667 1403 q 629 1301 667 1339 q 528 1264 592 1264 m 132 1083 l 264 1228 l 569 1228 l 701 1083 l 513 1083 l 417 1188 l 321 1083 l 132 1083 z "},"Ä":{"ha":833,"x_min":35,"x_max":799,"o":"m 35 0 l 283 1014 l 547 1014 l 799 0 l 586 0 l 538 229 l 296 229 l 247 0 l 35 0 m 331 396 l 501 396 l 453 640 q 433 745 443 693 q 417 826 422 797 q 402 746 411 797 q 382 642 393 694 l 331 396 m 586 1114 q 505 1143 535 1114 q 475 1222 475 1172 q 505 1301 475 1272 q 586 1331 535 1331 q 667 1301 638 1331 q 697 1222 697 1272 q 667 1143 697 1172 q 586 1114 638 1114 m 247 1114 q 166 1143 196 1114 q 136 1222 136 1172 q 166 1301 136 1272 q 247 1331 196 1331 q 328 1301 299 1331 q 358 1222 358 1272 q 328 1143 358 1172 q 247 1114 299 1114 z "},"Ạ":{"ha":833,"x_min":35,"x_max":799,"o":"m 35 0 l 283 1014 l 547 1014 l 799 0 l 586 0 l 538 229 l 296 229 l 247 0 l 35 0 m 331 396 l 501 396 l 453 640 q 433 745 443 693 q 417 826 422 797 q 402 746 411 797 q 382 642 393 694 l 331 396 m 417 -324 q 326 -294 360 -324 q 292 -215 292 -265 q 326 -136 292 -165 q 417 -107 360 -107 q 508 -136 474 -107 q 542 -215 542 -165 q 508 -294 542 -265 q 417 -324 474 -324 z "},"À":{"ha":833,"x_min":35,"x_max":799,"o":"m 35 0 l 283 1014 l 547 1014 l 799 0 l 586 0 l 538 229 l 296 229 l 247 0 l 35 0 m 331 396 l 501 396 l 453 640 q 433 745 443 693 q 417 826 422 797 q 402 746 411 797 q 382 642 393 694 l 331 396 m 329 1125 l 167 1319 l 396 1319 l 542 1125 l 329 1125 z "},"Ả":{"ha":833,"x_min":35,"x_max":799,"o":"m 35 0 l 283 1014 l 547 1014 l 799 0 l 586 0 l 538 229 l 296 229 l 247 0 l 35 0 m 331 396 l 501 396 l 453 640 q 433 745 443 693 q 417 826 422 797 q 402 746 411 797 q 382 642 393 694 l 331 396 m 338 1106 l 406 1186 q 426 1226 426 1211 q 389 1250 426 1250 l 278 1250 l 278 1368 l 424 1368 q 529 1335 489 1368 q 569 1249 569 1303 q 539 1164 569 1201 l 490 1106 l 338 1106 z "},"Ā":{"ha":833,"x_min":35,"x_max":799,"o":"m 35 0 l 283 1014 l 547 1014 l 799 0 l 586 0 l 538 229 l 296 229 l 247 0 l 35 0 m 331 396 l 501 396 l 453 640 q 433 745 443 693 q 417 826 422 797 q 402 746 411 797 q 382 642 393 694 l 331 396 m 167 1139 l 167 1292 l 667 1292 l 667 1139 l 167 1139 z "},"Ą":{"ha":833,"x_min":35,"x_max":799,"o":"m 35 0 l 283 1014 l 547 1014 l 799 0 l 719 0 l 692 -25 q 635 -115 635 -78 q 651 -151 635 -136 q 699 -167 668 -167 l 794 -167 l 794 -312 l 644 -312 q 511 -270 560 -312 q 463 -160 463 -228 q 496 -74 463 -117 q 586 0 529 -31 l 538 229 l 296 229 l 247 0 l 35 0 m 331 396 l 501 396 l 453 640 q 433 745 443 693 q 417 826 422 797 q 402 746 411 797 q 382 642 393 694 l 331 396 z "},"Å":{"ha":833,"x_min":35,"x_max":799,"o":"m 35 0 l 283 1014 l 547 1014 l 799 0 l 586 0 l 538 229 l 296 229 l 247 0 l 35 0 m 331 396 l 501 396 l 453 640 q 433 745 443 693 q 417 826 422 797 q 402 746 411 797 q 382 642 393 694 l 331 396 m 417 1046 q 276 1094 329 1046 q 222 1222 222 1143 q 276 1350 222 1301 q 417 1399 329 1399 q 558 1350 504 1399 q 611 1222 611 1301 q 558 1094 611 1143 q 417 1046 504 1046 m 417 1143 q 477 1165 454 1143 q 500 1222 500 1188 q 477 1280 500 1258 q 417 1301 454 1301 q 356 1280 379 1301 q 333 1222 333 1258 q 356 1165 333 1188 q 417 1143 379 1143 z "},"Ã":{"ha":833,"x_min":35,"x_max":799,"o":"m 35 0 l 283 1014 l 547 1014 l 799 0 l 586 0 l 538 229 l 296 229 l 247 0 l 35 0 m 331 396 l 501 396 l 453 640 q 433 745 443 693 q 417 826 422 797 q 402 746 411 797 q 382 642 393 694 l 331 396 m 514 1111 q 442 1124 469 1111 q 397 1153 415 1136 q 363 1182 379 1169 q 326 1194 347 1194 q 297 1182 308 1194 q 285 1149 285 1169 l 285 1118 l 167 1118 l 167 1167 q 209 1286 167 1239 q 319 1333 251 1333 q 391 1321 364 1333 q 436 1292 418 1308 q 470 1263 454 1275 q 507 1250 486 1250 q 549 1289 549 1250 l 549 1326 l 667 1326 l 667 1278 q 625 1158 667 1206 q 514 1111 583 1111 z "},"Æ":{"ha":833,"x_min":0,"x_max":806,"o":"m 0 0 l 190 1014 l 806 1014 l 806 840 l 578 840 l 578 606 l 771 606 l 771 424 l 578 424 l 578 175 l 806 175 l 806 0 l 404 0 l 404 229 l 235 229 l 199 0 l 0 0 m 258 375 l 404 375 l 404 840 l 336 840 l 258 375 z "},"Ǽ":{"ha":833,"x_min":0,"x_max":806,"o":"m 0 0 l 190 1014 l 806 1014 l 806 840 l 578 840 l 578 606 l 771 606 l 771 424 l 578 424 l 578 175 l 806 175 l 806 0 l 404 0 l 404 229 l 235 229 l 199 0 l 0 0 m 258 375 l 404 375 l 404 840 l 336 840 l 258 375 m 294 1125 l 440 1319 l 664 1319 l 501 1125 l 294 1125 z "},"B":{"ha":833,"x_min":92,"x_max":778,"o":"m 92 0 l 92 1014 l 418 1014 q 595 981 519 1014 q 713 890 671 949 q 756 754 756 832 q 709 610 756 668 q 583 538 663 553 q 725 457 672 522 q 778 293 778 392 q 734 140 778 206 q 613 37 690 74 q 431 0 535 0 l 92 0 m 293 606 l 415 606 q 511 638 476 606 q 546 726 546 671 q 511 815 546 783 q 415 846 476 846 l 293 846 l 293 606 m 293 168 l 422 168 q 529 204 490 168 q 568 304 568 240 q 529 405 568 368 q 422 442 490 442 l 293 442 l 293 168 z "},"C":{"ha":833,"x_min":83,"x_max":761,"o":"m 422 -14 q 244 24 321 -14 q 126 131 168 63 q 83 292 83 200 l 83 722 q 126 883 83 815 q 244 990 168 951 q 422 1028 321 1028 q 601 990 525 1028 q 719 883 676 951 q 761 722 761 815 l 553 722 q 519 815 553 783 q 422 847 485 847 q 326 815 360 847 q 292 722 292 783 l 292 292 q 326 199 292 232 q 422 167 360 167 q 519 199 485 167 q 553 292 553 232 l 761 292 q 719 131 761 200 q 601 24 676 63 q 422 -14 525 -14 z "},"Ć":{"ha":833,"x_min":83,"x_max":761,"o":"m 422 -14 q 244 24 321 -14 q 126 131 168 63 q 83 292 83 200 l 83 722 q 126 883 83 815 q 244 990 168 951 q 422 1028 321 1028 q 601 990 525 1028 q 719 883 676 951 q 761 722 761 815 l 553 722 q 519 815 553 783 q 422 847 485 847 q 326 815 360 847 q 292 722 292 783 l 292 292 q 326 199 292 232 q 422 167 360 167 q 519 199 485 167 q 553 292 553 232 l 761 292 q 719 131 761 200 q 601 24 676 63 q 422 -14 525 -14 m 301 1125 l 447 1319 l 671 1319 l 508 1125 l 301 1125 z "},"Č":{"ha":833,"x_min":83,"x_max":761,"o":"m 422 -14 q 244 24 321 -14 q 126 131 168 63 q 83 292 83 200 l 83 722 q 126 883 83 815 q 244 990 168 951 q 422 1028 321 1028 q 601 990 525 1028 q 719 883 676 951 q 761 722 761 815 l 553 722 q 519 815 553 783 q 422 847 485 847 q 326 815 360 847 q 292 722 292 783 l 292 292 q 326 199 292 232 q 422 167 360 167 q 519 199 485 167 q 553 292 553 232 l 761 292 q 719 131 761 200 q 601 24 676 63 q 422 -14 525 -14 m 326 1125 l 139 1319 l 326 1319 l 426 1222 l 519 1319 l 708 1319 l 521 1125 l 326 1125 z "},"Ç":{"ha":833,"x_min":83,"x_max":761,"o":"m 278 -312 l 278 -215 l 389 -215 q 444 -199 424 -215 q 465 -165 465 -182 q 423 -115 465 -133 q 304 -96 381 -96 l 340 -7 q 153 94 222 14 q 83 292 83 174 l 83 722 q 126 883 83 815 q 244 990 168 951 q 422 1028 321 1028 q 601 990 525 1028 q 719 883 676 951 q 761 722 761 815 l 553 722 q 519 815 553 783 q 422 847 485 847 q 326 815 360 847 q 292 722 292 783 l 292 292 q 326 199 292 232 q 422 167 360 167 q 519 199 485 167 q 553 292 553 232 l 761 292 q 722 135 761 203 q 610 29 682 68 q 442 -14 539 -10 l 428 -54 q 516 -72 471 -57 q 593 -114 561 -86 q 625 -185 625 -142 q 572 -274 625 -236 q 431 -312 518 -312 l 278 -312 z "},"Ĉ":{"ha":833,"x_min":83,"x_max":761,"o":"m 422 -14 q 244 24 321 -14 q 126 131 168 63 q 83 292 83 200 l 83 722 q 126 883 83 815 q 244 990 168 951 q 422 1028 321 1028 q 601 990 525 1028 q 719 883 676 951 q 761 722 761 815 l 553 722 q 519 815 553 783 q 422 847 485 847 q 326 815 360 847 q 292 722 292 783 l 292 292 q 326 199 292 232 q 422 167 360 167 q 519 199 485 167 q 553 292 553 232 l 761 292 q 719 131 761 200 q 601 24 676 63 q 422 -14 525 -14 m 139 1125 l 326 1319 l 521 1319 l 708 1125 l 521 1125 l 421 1222 l 328 1125 l 139 1125 z "},"Ċ":{"ha":833,"x_min":83,"x_max":761,"o":"m 422 -14 q 244 24 321 -14 q 126 131 168 63 q 83 292 83 200 l 83 722 q 126 883 83 815 q 244 990 168 951 q 422 1028 321 1028 q 601 990 525 1028 q 719 883 676 951 q 761 722 761 815 l 553 722 q 519 815 553 783 q 422 847 485 847 q 326 815 360 847 q 292 722 292 783 l 292 292 q 326 199 292 232 q 422 167 360 167 q 519 199 485 167 q 553 292 553 232 l 761 292 q 719 131 761 200 q 601 24 676 63 q 422 -14 525 -14 m 424 1114 q 333 1143 367 1114 q 299 1222 299 1172 q 333 1301 299 1272 q 424 1331 367 1331 q 515 1301 481 1331 q 549 1222 549 1272 q 515 1143 549 1172 q 424 1114 481 1114 z "},"D":{"ha":833,"x_min":88,"x_max":767,"o":"m 88 0 l 88 1014 l 417 1014 q 601 974 522 1014 q 723 860 679 933 q 767 689 767 788 l 767 326 q 723 156 767 229 q 601 41 679 82 q 417 0 522 0 l 88 0 m 296 188 l 417 188 q 519 226 479 188 q 558 326 558 265 l 558 689 q 519 788 558 750 q 417 826 479 826 l 296 826 l 296 188 z "},"Ð":{"ha":833,"x_min":14,"x_max":767,"o":"m 88 0 l 88 451 l 14 451 l 14 583 l 88 583 l 88 1014 l 417 1014 q 601 974 522 1014 q 723 860 679 933 q 767 689 767 788 l 767 326 q 723 156 767 229 q 601 41 679 82 q 417 0 522 0 l 88 0 m 296 188 l 417 188 q 519 226 479 188 q 558 326 558 265 l 558 689 q 519 788 558 750 q 417 826 479 826 l 296 826 l 296 583 l 403 583 l 403 451 l 296 451 l 296 188 z "},"Ď":{"ha":833,"x_min":88,"x_max":767,"o":"m 88 0 l 88 1014 l 417 1014 q 601 974 522 1014 q 723 860 679 933 q 767 689 767 788 l 767 326 q 723 156 767 229 q 601 41 679 82 q 417 0 522 0 l 88 0 m 296 188 l 417 188 q 519 226 479 188 q 558 326 558 265 l 558 689 q 519 788 558 750 q 417 826 479 826 l 296 826 l 296 188 m 319 1125 l 132 1319 l 319 1319 l 419 1222 l 513 1319 l 701 1319 l 514 1125 l 319 1125 z "},"Đ":{"ha":833,"x_min":14,"x_max":767,"o":"m 88 0 l 88 451 l 14 451 l 14 583 l 88 583 l 88 1014 l 417 1014 q 601 974 522 1014 q 723 860 679 933 q 767 689 767 788 l 767 326 q 723 156 767 229 q 601 41 679 82 q 417 0 522 0 l 88 0 m 296 188 l 417 188 q 519 226 479 188 q 558 326 558 265 l 558 689 q 519 788 558 750 q 417 826 479 826 l 296 826 l 296 583 l 403 583 l 403 451 l 296 451 l 296 188 z "},"E":{"ha":833,"x_min":111,"x_max":736,"o":"m 111 0 l 111 1014 l 736 1014 l 736 833 l 315 833 l 315 606 l 688 606 l 688 433 l 315 433 l 315 181 l 736 181 l 736 0 l 111 0 z "},"É":{"ha":833,"x_min":111,"x_max":736,"o":"m 111 0 l 111 1014 l 736 1014 l 736 833 l 315 833 l 315 606 l 688 606 l 688 433 l 315 433 l 315 181 l 736 181 l 736 0 l 111 0 m 322 1125 l 468 1319 l 692 1319 l 529 1125 l 322 1125 z "},"Ĕ":{"ha":833,"x_min":111,"x_max":736,"o":"m 111 0 l 111 1014 l 736 1014 l 736 833 l 315 833 l 315 606 l 688 606 l 688 433 l 315 433 l 315 181 l 736 181 l 736 0 l 111 0 m 444 1111 q 260 1169 331 1111 q 189 1319 189 1226 l 349 1319 q 375 1256 349 1281 q 444 1232 401 1232 q 515 1256 489 1232 q 542 1319 542 1281 l 701 1319 q 631 1169 701 1226 q 444 1111 560 1111 z "},"Ě":{"ha":833,"x_min":111,"x_max":736,"o":"m 111 0 l 111 1014 l 736 1014 l 736 833 l 315 833 l 315 606 l 688 606 l 688 433 l 315 433 l 315 181 l 736 181 l 736 0 l 111 0 m 347 1125 l 160 1319 l 347 1319 l 447 1222 l 540 1319 l 729 1319 l 542 1125 l 347 1125 z "},"Ê":{"ha":833,"x_min":111,"x_max":736,"o":"m 111 0 l 111 1014 l 736 1014 l 736 833 l 315 833 l 315 606 l 688 606 l 688 433 l 315 433 l 315 181 l 736 181 l 736 0 l 111 0 m 160 1125 l 347 1319 l 542 1319 l 729 1125 l 542 1125 l 442 1222 l 349 1125 l 160 1125 z "},"Ế":{"ha":833,"x_min":111,"x_max":958,"o":"m 111 0 l 111 1014 l 736 1014 l 736 833 l 315 833 l 315 606 l 688 606 l 688 433 l 315 433 l 315 181 l 736 181 l 736 0 l 111 0 m 611 1257 l 757 1417 l 958 1417 l 799 1257 l 611 1257 m 160 1083 l 347 1278 l 542 1278 l 729 1083 l 540 1083 l 444 1181 l 349 1083 l 160 1083 z "},"Ệ":{"ha":833,"x_min":111,"x_max":736,"o":"m 111 0 l 111 1014 l 736 1014 l 736 833 l 315 833 l 315 606 l 688 606 l 688 433 l 315 433 l 315 181 l 736 181 l 736 0 l 111 0 m 444 -324 q 353 -294 388 -324 q 319 -215 319 -265 q 353 -136 319 -165 q 444 -107 388 -107 q 535 -136 501 -107 q 569 -215 569 -165 q 535 -294 569 -265 q 444 -324 501 -324 m 160 1125 l 347 1319 l 542 1319 l 729 1125 l 542 1125 l 442 1222 l 349 1125 l 160 1125 z "},"Ề":{"ha":833,"x_min":111,"x_max":847,"o":"m 111 0 l 111 1014 l 736 1014 l 736 833 l 315 833 l 315 606 l 688 606 l 688 433 l 315 433 l 315 181 l 736 181 l 736 0 l 111 0 m 660 1257 l 500 1417 l 701 1417 l 847 1257 l 660 1257 m 160 1083 l 347 1278 l 542 1278 l 729 1083 l 540 1083 l 444 1181 l 349 1083 l 160 1083 z "},"Ể":{"ha":833,"x_min":111,"x_max":849,"o":"m 111 0 l 111 1014 l 736 1014 l 736 833 l 315 833 l 315 606 l 688 606 l 688 433 l 315 433 l 315 181 l 736 181 l 736 0 l 111 0 m 636 1208 l 683 1256 q 701 1288 701 1274 q 667 1311 701 1311 l 569 1311 l 569 1417 l 701 1417 q 808 1388 768 1417 q 849 1303 849 1358 q 840 1264 849 1285 q 815 1231 831 1243 l 789 1208 l 636 1208 m 160 1083 l 347 1278 l 542 1278 l 729 1083 l 540 1083 l 444 1181 l 349 1083 l 160 1083 z "},"Ễ":{"ha":833,"x_min":111,"x_max":736,"o":"m 111 0 l 111 1014 l 736 1014 l 736 833 l 315 833 l 315 606 l 688 606 l 688 433 l 315 433 l 315 181 l 736 181 l 736 0 l 111 0 m 556 1264 q 467 1276 504 1264 q 403 1301 431 1289 q 347 1313 375 1313 q 313 1278 313 1313 l 313 1271 l 194 1271 l 194 1278 q 232 1379 194 1342 q 333 1417 269 1417 q 422 1405 386 1417 q 486 1381 458 1393 q 542 1368 514 1368 q 576 1403 576 1368 l 576 1410 l 694 1410 l 694 1403 q 657 1301 694 1339 q 556 1264 619 1264 m 160 1083 l 292 1228 l 597 1228 l 729 1083 l 540 1083 l 444 1188 l 349 1083 l 160 1083 z "},"Ë":{"ha":833,"x_min":111,"x_max":736,"o":"m 111 0 l 111 1014 l 736 1014 l 736 833 l 315 833 l 315 606 l 688 606 l 688 433 l 315 433 l 315 181 l 736 181 l 736 0 l 111 0 m 614 1114 q 533 1143 563 1114 q 503 1222 503 1172 q 533 1301 503 1272 q 614 1331 563 1331 q 695 1301 665 1331 q 725 1222 725 1272 q 695 1143 725 1172 q 614 1114 665 1114 m 275 1114 q 194 1143 224 1114 q 164 1222 164 1172 q 194 1301 164 1272 q 275 1331 224 1331 q 356 1301 326 1331 q 386 1222 386 1272 q 356 1143 386 1172 q 275 1114 326 1114 z "},"Ė":{"ha":833,"x_min":111,"x_max":736,"o":"m 111 0 l 111 1014 l 736 1014 l 736 833 l 315 833 l 315 606 l 688 606 l 688 433 l 315 433 l 315 181 l 736 181 l 736 0 l 111 0 m 444 1114 q 353 1143 388 1114 q 319 1222 319 1172 q 353 1301 319 1272 q 444 1331 388 1331 q 535 1301 501 1331 q 569 1222 569 1272 q 535 1143 569 1172 q 444 1114 501 1114 z "},"Ẹ":{"ha":833,"x_min":111,"x_max":736,"o":"m 111 0 l 111 1014 l 736 1014 l 736 833 l 315 833 l 315 606 l 688 606 l 688 433 l 315 433 l 315 181 l 736 181 l 736 0 l 111 0 m 444 -324 q 353 -294 388 -324 q 319 -215 319 -265 q 353 -136 319 -165 q 444 -107 388 -107 q 535 -136 501 -107 q 569 -215 569 -165 q 535 -294 569 -265 q 444 -324 501 -324 z "},"È":{"ha":833,"x_min":111,"x_max":736,"o":"m 111 0 l 111 1014 l 736 1014 l 736 833 l 315 833 l 315 606 l 688 606 l 688 433 l 315 433 l 315 181 l 736 181 l 736 0 l 111 0 m 357 1125 l 194 1319 l 424 1319 l 569 1125 l 357 1125 z "},"Ẻ":{"ha":833,"x_min":111,"x_max":736,"o":"m 111 0 l 111 1014 l 736 1014 l 736 833 l 315 833 l 315 606 l 688 606 l 688 433 l 315 433 l 315 181 l 736 181 l 736 0 l 111 0 m 365 1106 l 433 1186 q 454 1226 454 1211 q 417 1250 454 1250 l 306 1250 l 306 1368 l 451 1368 q 557 1335 517 1368 q 597 1249 597 1303 q 567 1164 597 1201 l 518 1106 l 365 1106 z "},"Ē":{"ha":833,"x_min":111,"x_max":736,"o":"m 111 0 l 111 1014 l 736 1014 l 736 833 l 315 833 l 315 606 l 688 606 l 688 433 l 315 433 l 315 181 l 736 181 l 736 0 l 111 0 m 194 1139 l 194 1292 l 694 1292 l 694 1139 l 194 1139 z "},"Ę":{"ha":833,"x_min":111,"x_max":742,"o":"m 111 0 l 111 1014 l 736 1014 l 736 833 l 315 833 l 315 606 l 688 606 l 688 433 l 315 433 l 315 181 l 736 181 l 736 0 l 667 0 l 639 -25 q 582 -115 582 -78 q 599 -151 582 -136 q 646 -167 615 -167 l 742 -167 l 742 -312 l 592 -312 q 458 -270 507 -312 q 410 -160 410 -228 q 442 -74 410 -117 q 533 0 475 -32 l 111 0 z "},"Ɛ":{"ha":833,"x_min":63,"x_max":785,"o":"m 424 -14 q 608 24 528 -14 q 735 128 689 61 q 785 285 782 196 l 576 285 q 532 199 572 232 q 428 167 492 167 q 317 204 358 167 q 275 303 275 242 q 317 403 275 365 q 429 440 360 440 l 569 440 l 569 607 l 426 607 q 326 640 364 607 q 289 726 289 672 q 326 814 289 781 q 426 847 364 847 q 527 814 489 847 q 565 726 565 781 l 774 726 q 729 885 774 818 q 603 990 685 953 q 415 1028 522 1028 q 237 993 313 1028 q 119 896 161 958 q 76 750 76 833 q 117 609 76 665 q 231 538 158 553 q 108 460 153 522 q 63 301 63 399 q 108 135 63 207 q 234 25 153 64 q 424 -14 315 -14 z "},"Ẽ":{"ha":833,"x_min":111,"x_max":736,"o":"m 111 0 l 111 1014 l 736 1014 l 736 833 l 315 833 l 315 606 l 688 606 l 688 433 l 315 433 l 315 181 l 736 181 l 736 0 l 111 0 m 542 1111 q 470 1124 497 1111 q 425 1153 443 1136 q 391 1182 407 1169 q 354 1194 375 1194 q 324 1182 336 1194 q 313 1149 313 1169 l 313 1118 l 194 1118 l 194 1167 q 237 1286 194 1239 q 347 1333 279 1333 q 419 1321 392 1333 q 464 1292 446 1308 q 498 1263 482 1275 q 535 1250 514 1250 q 576 1289 576 1250 l 576 1326 l 694 1326 l 694 1278 q 653 1158 694 1206 q 542 1111 611 1111 z "},"F":{"ha":833,"x_min":97,"x_max":750,"o":"m 97 0 l 97 1014 l 750 1014 l 750 819 l 303 819 l 303 594 l 714 594 l 714 400 l 306 400 l 306 0 l 97 0 z "},"G":{"ha":833,"x_min":83,"x_max":761,"o":"m 422 -14 q 244 24 321 -14 q 126 131 168 63 q 83 292 83 200 l 83 722 q 126 883 83 815 q 244 990 168 951 q 422 1028 321 1028 q 601 990 525 1028 q 719 883 676 951 q 761 722 761 815 l 553 722 q 519 815 553 783 q 422 847 485 847 q 326 815 360 847 q 292 722 292 783 l 292 292 q 326 199 292 232 q 422 167 360 167 q 519 199 485 167 q 553 292 553 232 l 553 379 l 403 379 l 403 556 l 761 556 l 761 292 q 719 131 761 200 q 601 24 676 63 q 422 -14 525 -14 z "},"Ǵ":{"ha":833,"x_min":83,"x_max":761,"o":"m 422 -14 q 244 24 321 -14 q 126 131 168 63 q 83 292 83 200 l 83 722 q 126 883 83 815 q 244 990 168 951 q 422 1028 321 1028 q 601 990 525 1028 q 719 883 676 951 q 761 722 761 815 l 553 722 q 519 815 553 783 q 422 847 485 847 q 326 815 360 847 q 292 722 292 783 l 292 292 q 326 199 292 232 q 422 167 360 167 q 519 199 485 167 q 553 292 553 232 l 553 379 l 403 379 l 403 556 l 761 556 l 761 292 q 719 131 761 200 q 601 24 676 63 q 422 -14 525 -14 m 294 1125 l 440 1319 l 664 1319 l 501 1125 l 294 1125 z "},"Ğ":{"ha":833,"x_min":83,"x_max":761,"o":"m 422 -14 q 244 24 321 -14 q 126 131 168 63 q 83 292 83 200 l 83 722 q 126 883 83 815 q 244 990 168 951 q 422 1028 321 1028 q 601 990 525 1028 q 719 883 676 951 q 761 722 761 815 l 553 722 q 519 815 553 783 q 422 847 485 847 q 326 815 360 847 q 292 722 292 783 l 292 292 q 326 199 292 232 q 422 167 360 167 q 519 199 485 167 q 553 292 553 232 l 553 379 l 403 379 l 403 556 l 761 556 l 761 292 q 719 131 761 200 q 601 24 676 63 q 422 -14 525 -14 m 417 1111 q 232 1169 303 1111 q 161 1319 161 1226 l 321 1319 q 347 1256 321 1281 q 417 1232 374 1232 q 488 1256 461 1232 q 514 1319 514 1281 l 674 1319 q 603 1169 674 1226 q 417 1111 532 1111 z "},"Ǧ":{"ha":833,"x_min":83,"x_max":761,"o":"m 422 -14 q 244 24 321 -14 q 126 131 168 63 q 83 292 83 200 l 83 722 q 126 883 83 815 q 244 990 168 951 q 422 1028 321 1028 q 601 990 525 1028 q 719 883 676 951 q 761 722 761 815 l 553 722 q 519 815 553 783 q 422 847 485 847 q 326 815 360 847 q 292 722 292 783 l 292 292 q 326 199 292 232 q 422 167 360 167 q 519 199 485 167 q 553 292 553 232 l 553 379 l 403 379 l 403 556 l 761 556 l 761 292 q 719 131 761 200 q 601 24 676 63 q 422 -14 525 -14 m 319 1125 l 132 1319 l 319 1319 l 419 1222 l 513 1319 l 701 1319 l 514 1125 l 319 1125 z "},"Ĝ":{"ha":833,"x_min":83,"x_max":761,"o":"m 422 -14 q 244 24 321 -14 q 126 131 168 63 q 83 292 83 200 l 83 722 q 126 883 83 815 q 244 990 168 951 q 422 1028 321 1028 q 601 990 525 1028 q 719 883 676 951 q 761 722 761 815 l 553 722 q 519 815 553 783 q 422 847 485 847 q 326 815 360 847 q 292 722 292 783 l 292 292 q 326 199 292 232 q 422 167 360 167 q 519 199 485 167 q 553 292 553 232 l 553 379 l 403 379 l 403 556 l 761 556 l 761 292 q 719 131 761 200 q 601 24 676 63 q 422 -14 525 -14 m 132 1125 l 319 1319 l 514 1319 l 701 1125 l 514 1125 l 414 1222 l 321 1125 l 132 1125 z "},"Ģ":{"ha":833,"x_min":83,"x_max":761,"o":"m 422 -14 q 244 24 321 -14 q 126 131 168 63 q 83 292 83 200 l 83 722 q 126 883 83 815 q 244 990 168 951 q 422 1028 321 1028 q 601 990 525 1028 q 719 883 676 951 q 761 722 761 815 l 553 722 q 519 815 553 783 q 422 847 485 847 q 326 815 360 847 q 292 722 292 783 l 292 292 q 326 199 292 232 q 422 167 360 167 q 519 199 485 167 q 553 292 553 232 l 553 379 l 403 379 l 403 556 l 761 556 l 761 292 q 719 131 761 200 q 601 24 676 63 q 422 -14 525 -14 m 249 -333 l 381 -132 l 589 -132 l 429 -333 l 249 -333 z "},"Ġ":{"ha":833,"x_min":83,"x_max":761,"o":"m 422 -14 q 244 24 321 -14 q 126 131 168 63 q 83 292 83 200 l 83 722 q 126 883 83 815 q 244 990 168 951 q 422 1028 321 1028 q 601 990 525 1028 q 719 883 676 951 q 761 722 761 815 l 553 722 q 519 815 553 783 q 422 847 485 847 q 326 815 360 847 q 292 722 292 783 l 292 292 q 326 199 292 232 q 422 167 360 167 q 519 199 485 167 q 553 292 553 232 l 553 379 l 403 379 l 403 556 l 761 556 l 761 292 q 719 131 761 200 q 601 24 676 63 q 422 -14 525 -14 m 417 1114 q 326 1143 360 1114 q 292 1222 292 1172 q 326 1301 292 1272 q 417 1331 360 1331 q 508 1301 474 1331 q 542 1222 542 1272 q 508 1143 542 1172 q 417 1114 474 1114 z "},"H":{"ha":833,"x_min":92,"x_max":742,"o":"m 92 0 l 92 1014 l 300 1014 l 300 625 l 533 625 l 533 1014 l 742 1014 l 742 0 l 533 0 l 533 438 l 300 438 l 300 0 l 92 0 z "},"Ħ":{"ha":833,"x_min":14,"x_max":819,"o":"m 92 0 l 92 729 l 14 729 l 14 861 l 92 861 l 92 1014 l 300 1014 l 300 861 l 533 861 l 533 1014 l 742 1014 l 742 861 l 819 861 l 819 729 l 742 729 l 742 0 l 533 0 l 533 438 l 300 438 l 300 0 l 92 0 m 300 625 l 533 625 l 533 729 l 300 729 l 300 625 z "},"Ĥ":{"ha":833,"x_min":92,"x_max":742,"o":"m 92 0 l 92 1014 l 300 1014 l 300 625 l 533 625 l 533 1014 l 742 1014 l 742 0 l 533 0 l 533 438 l 300 438 l 300 0 l 92 0 m 132 1125 l 319 1319 l 514 1319 l 701 1125 l 514 1125 l 414 1222 l 321 1125 l 132 1125 z "},"I":{"ha":833,"x_min":111,"x_max":722,"o":"m 111 0 l 111 188 l 313 188 l 313 826 l 111 826 l 111 1014 l 722 1014 l 722 826 l 521 826 l 521 188 l 722 188 l 722 0 l 111 0 z "},"Í":{"ha":833,"x_min":111,"x_max":722,"o":"m 111 0 l 111 188 l 313 188 l 313 826 l 111 826 l 111 1014 l 722 1014 l 722 826 l 521 826 l 521 188 l 722 188 l 722 0 l 111 0 m 294 1125 l 440 1319 l 664 1319 l 501 1125 l 294 1125 z "},"Ĭ":{"ha":833,"x_min":111,"x_max":722,"o":"m 111 0 l 111 188 l 313 188 l 313 826 l 111 826 l 111 1014 l 722 1014 l 722 826 l 521 826 l 521 188 l 722 188 l 722 0 l 111 0 m 417 1111 q 232 1169 303 1111 q 161 1319 161 1226 l 321 1319 q 347 1256 321 1281 q 417 1232 374 1232 q 488 1256 461 1232 q 514 1319 514 1281 l 674 1319 q 603 1169 674 1226 q 417 1111 532 1111 z "},"Î":{"ha":833,"x_min":111,"x_max":722,"o":"m 111 0 l 111 188 l 313 188 l 313 826 l 111 826 l 111 1014 l 722 1014 l 722 826 l 521 826 l 521 188 l 722 188 l 722 0 l 111 0 m 132 1125 l 319 1319 l 514 1319 l 701 1125 l 514 1125 l 414 1222 l 321 1125 l 132 1125 z "},"Ï":{"ha":833,"x_min":111,"x_max":722,"o":"m 111 0 l 111 188 l 313 188 l 313 826 l 111 826 l 111 1014 l 722 1014 l 722 826 l 521 826 l 521 188 l 722 188 l 722 0 l 111 0 m 586 1114 q 505 1143 535 1114 q 475 1222 475 1172 q 505 1301 475 1272 q 586 1331 535 1331 q 667 1301 638 1331 q 697 1222 697 1272 q 667 1143 697 1172 q 586 1114 638 1114 m 247 1114 q 166 1143 196 1114 q 136 1222 136 1172 q 166 1301 136 1272 q 247 1331 196 1331 q 328 1301 299 1331 q 358 1222 358 1272 q 328 1143 358 1172 q 247 1114 299 1114 z "},"İ":{"ha":833,"x_min":111,"x_max":722,"o":"m 111 0 l 111 188 l 313 188 l 313 826 l 111 826 l 111 1014 l 722 1014 l 722 826 l 521 826 l 521 188 l 722 188 l 722 0 l 111 0 m 417 1114 q 326 1143 360 1114 q 292 1222 292 1172 q 326 1301 292 1272 q 417 1331 360 1331 q 508 1301 474 1331 q 542 1222 542 1272 q 508 1143 542 1172 q 417 1114 474 1114 z "},"Ị":{"ha":833,"x_min":111,"x_max":722,"o":"m 111 0 l 111 188 l 313 188 l 313 826 l 111 826 l 111 1014 l 722 1014 l 722 826 l 521 826 l 521 188 l 722 188 l 722 0 l 111 0 m 417 -324 q 326 -294 360 -324 q 292 -215 292 -265 q 326 -136 292 -165 q 417 -107 360 -107 q 508 -136 474 -107 q 542 -215 542 -165 q 508 -294 542 -265 q 417 -324 474 -324 z "},"Ì":{"ha":833,"x_min":111,"x_max":722,"o":"m 111 0 l 111 188 l 313 188 l 313 826 l 111 826 l 111 1014 l 722 1014 l 722 826 l 521 826 l 521 188 l 722 188 l 722 0 l 111 0 m 329 1125 l 167 1319 l 396 1319 l 542 1125 l 329 1125 z "},"Ỉ":{"ha":833,"x_min":111,"x_max":722,"o":"m 111 0 l 111 188 l 313 188 l 313 826 l 111 826 l 111 1014 l 722 1014 l 722 826 l 521 826 l 521 188 l 722 188 l 722 0 l 111 0 m 338 1106 l 406 1186 q 426 1226 426 1211 q 389 1250 426 1250 l 278 1250 l 278 1368 l 424 1368 q 529 1335 489 1368 q 569 1249 569 1303 q 539 1164 569 1201 l 490 1106 l 338 1106 z "},"Ī":{"ha":833,"x_min":111,"x_max":722,"o":"m 111 0 l 111 188 l 313 188 l 313 826 l 111 826 l 111 1014 l 722 1014 l 722 826 l 521 826 l 521 188 l 722 188 l 722 0 l 111 0 m 167 1139 l 167 1292 l 667 1292 l 667 1139 l 167 1139 z "},"Į":{"ha":833,"x_min":111,"x_max":722,"o":"m 111 0 l 111 188 l 313 188 l 313 826 l 111 826 l 111 1014 l 722 1014 l 722 826 l 521 826 l 521 188 l 722 188 l 722 0 l 486 0 l 458 -25 q 401 -115 401 -78 q 418 -151 401 -136 q 465 -167 435 -167 l 561 -167 l 561 -312 l 411 -312 q 278 -270 326 -312 q 229 -160 229 -228 q 262 -74 229 -117 q 353 0 294 -32 l 111 0 z "},"Ĩ":{"ha":833,"x_min":111,"x_max":722,"o":"m 111 0 l 111 188 l 313 188 l 313 826 l 111 826 l 111 1014 l 722 1014 l 722 826 l 521 826 l 521 188 l 722 188 l 722 0 l 111 0 m 514 1111 q 442 1124 469 1111 q 397 1153 415 1136 q 363 1182 379 1169 q 326 1194 347 1194 q 297 1182 308 1194 q 285 1149 285 1169 l 285 1118 l 167 1118 l 167 1167 q 209 1286 167 1239 q 319 1333 251 1333 q 391 1321 364 1333 q 436 1292 418 1308 q 470 1263 454 1275 q 507 1250 486 1250 q 549 1289 549 1250 l 549 1326 l 667 1326 l 667 1278 q 625 1158 667 1206 q 514 1111 583 1111 z "},"J":{"ha":833,"x_min":28,"x_max":722,"o":"m 375 -14 q 122 73 215 -14 q 28 307 28 160 l 236 307 q 274 205 236 243 q 375 167 311 167 q 476 203 439 167 q 514 304 514 240 l 514 826 l 229 826 l 229 1014 l 722 1014 l 722 304 q 629 72 722 157 q 375 -14 536 -14 z "},"Ĵ":{"ha":833,"x_min":28,"x_max":785,"o":"m 375 -14 q 122 73 215 -14 q 28 307 28 160 l 236 307 q 274 205 236 243 q 375 167 311 167 q 476 203 439 167 q 514 304 514 240 l 514 826 l 229 826 l 229 1014 l 722 1014 l 722 304 q 629 72 722 157 q 375 -14 536 -14 m 215 1125 l 403 1319 l 597 1319 l 785 1125 l 597 1125 l 497 1222 l 404 1125 l 215 1125 z "},"K":{"ha":833,"x_min":90,"x_max":799,"o":"m 90 0 l 90 1014 l 299 1014 l 299 615 l 396 615 l 565 1014 l 790 1014 l 579 533 l 799 0 l 571 0 l 397 435 l 299 435 l 299 0 l 90 0 z "},"Ķ":{"ha":833,"x_min":90,"x_max":799,"o":"m 90 0 l 90 1014 l 299 1014 l 299 615 l 396 615 l 565 1014 l 790 1014 l 579 533 l 799 0 l 571 0 l 397 435 l 299 435 l 299 0 l 90 0 m 243 -333 l 375 -132 l 583 -132 l 424 -333 l 243 -333 z "},"L":{"ha":833,"x_min":160,"x_max":778,"o":"m 160 0 l 160 1014 l 368 1014 l 368 188 l 778 188 l 778 0 l 160 0 z "},"Ĺ":{"ha":833,"x_min":142,"x_max":778,"o":"m 160 0 l 160 1014 l 368 1014 l 368 188 l 778 188 l 778 0 l 160 0 m 142 1125 l 288 1319 l 511 1319 l 349 1125 l 142 1125 z "},"Ľ":{"ha":833,"x_min":160,"x_max":1042,"o":"m 160 0 l 160 1014 l 368 1014 l 368 188 l 778 188 l 778 0 l 160 0 m 833 1014 l 847 1264 l 1042 1264 l 1014 1014 l 833 1014 z "},"Ļ":{"ha":833,"x_min":160,"x_max":778,"o":"m 160 0 l 160 1014 l 368 1014 l 368 188 l 778 188 l 778 0 l 160 0 m 299 -333 l 431 -132 l 639 -132 l 479 -333 l 299 -333 z "},"Ŀ":{"ha":833,"x_min":160,"x_max":792,"o":"m 160 0 l 160 1014 l 368 1014 l 368 188 l 778 188 l 778 0 l 160 0 m 651 368 q 549 406 588 368 q 511 508 511 444 q 549 611 511 574 q 651 649 588 649 q 754 611 717 649 q 792 508 792 574 q 754 406 792 444 q 651 368 717 368 z "},"Ł":{"ha":833,"x_min":28,"x_max":792,"o":"m 174 0 l 174 393 l 28 319 l 28 514 l 174 588 l 174 1014 l 382 1014 l 382 692 l 556 778 l 556 583 l 382 497 l 382 188 l 792 188 l 792 0 l 174 0 z "},"M":{"ha":833,"x_min":58,"x_max":775,"o":"m 58 0 l 58 1014 l 293 1014 l 383 694 q 406 607 399 644 q 415 554 414 569 q 424 607 417 569 q 446 694 432 644 l 539 1014 l 775 1014 l 775 0 l 585 0 l 585 389 q 597 663 585 542 q 619 889 608 783 l 501 431 l 328 431 l 210 872 q 235 665 222 782 q 249 389 249 549 l 249 0 l 58 0 z "},"N":{"ha":833,"x_min":83,"x_max":750,"o":"m 83 0 l 83 1014 l 326 1014 l 589 229 q 579 348 585 281 q 570 483 574 415 q 567 597 567 550 l 567 1014 l 750 1014 l 750 0 l 507 0 l 247 785 q 256 679 251 740 q 263 556 260 618 q 267 444 267 493 l 267 0 l 83 0 z "},"Ń":{"ha":833,"x_min":83,"x_max":750,"o":"m 83 0 l 83 1014 l 326 1014 l 589 229 q 579 348 585 281 q 570 483 574 415 q 567 597 567 550 l 567 1014 l 750 1014 l 750 0 l 507 0 l 247 785 q 256 679 251 740 q 263 556 260 618 q 267 444 267 493 l 267 0 l 83 0 m 294 1125 l 440 1319 l 664 1319 l 501 1125 l 294 1125 z "},"Ň":{"ha":833,"x_min":83,"x_max":750,"o":"m 83 0 l 83 1014 l 326 1014 l 589 229 q 579 348 585 281 q 570 483 574 415 q 567 597 567 550 l 567 1014 l 750 1014 l 750 0 l 507 0 l 247 785 q 256 679 251 740 q 263 556 260 618 q 267 444 267 493 l 267 0 l 83 0 m 319 1125 l 132 1319 l 319 1319 l 419 1222 l 513 1319 l 701 1319 l 514 1125 l 319 1125 z "},"Ņ":{"ha":833,"x_min":83,"x_max":750,"o":"m 83 0 l 83 1014 l 326 1014 l 589 229 q 579 348 585 281 q 570 483 574 415 q 567 597 567 550 l 567 1014 l 750 1014 l 750 0 l 507 0 l 247 785 q 256 679 251 740 q 263 556 260 618 q 267 444 267 493 l 267 0 l 83 0 m 243 -333 l 375 -132 l 583 -132 l 424 -333 l 243 -333 z "},"Ŋ":{"ha":833,"x_min":83,"x_max":750,"o":"m 347 -250 l 347 -49 l 431 -49 q 513 -21 483 -49 q 542 57 542 7 l 247 785 q 256 679 251 740 q 263 556 260 618 q 267 444 267 493 l 267 0 l 83 0 l 83 1014 l 326 1014 l 589 363 q 579 481 585 414 q 570 616 574 549 q 567 731 567 683 l 567 1014 l 750 1014 l 750 35 q 708 -113 750 -49 q 590 -214 665 -178 q 417 -250 515 -250 l 347 -250 z "},"Ñ":{"ha":833,"x_min":83,"x_max":750,"o":"m 83 0 l 83 1014 l 326 1014 l 589 229 q 579 348 585 281 q 570 483 574 415 q 567 597 567 550 l 567 1014 l 750 1014 l 750 0 l 507 0 l 247 785 q 256 679 251 740 q 263 556 260 618 q 267 444 267 493 l 267 0 l 83 0 m 514 1111 q 442 1124 469 1111 q 397 1153 415 1136 q 363 1182 379 1169 q 326 1194 347 1194 q 297 1182 308 1194 q 285 1149 285 1169 l 285 1118 l 167 1118 l 167 1167 q 209 1286 167 1239 q 319 1333 251 1333 q 391 1321 364 1333 q 436 1292 418 1308 q 470 1263 454 1275 q 507 1250 486 1250 q 549 1289 549 1250 l 549 1326 l 667 1326 l 667 1278 q 625 1158 667 1206 q 514 1111 583 1111 z "},"O":{"ha":833,"x_min":83,"x_max":750,"o":"m 417 -14 q 240 24 315 -14 q 124 131 165 63 q 83 292 83 200 l 83 722 q 124 883 83 814 q 240 990 165 951 q 417 1028 315 1028 q 594 990 519 1028 q 709 883 668 951 q 750 722 750 814 l 750 292 q 709 131 750 200 q 594 24 668 63 q 417 -14 519 -14 m 417 167 q 542 292 542 167 l 542 722 q 417 847 542 847 q 292 722 292 847 l 292 292 q 417 167 292 167 z "},"Ó":{"ha":833,"x_min":83,"x_max":750,"o":"m 417 -14 q 240 24 315 -14 q 124 131 165 63 q 83 292 83 200 l 83 722 q 124 883 83 814 q 240 990 165 951 q 417 1028 315 1028 q 594 990 519 1028 q 709 883 668 951 q 750 722 750 814 l 750 292 q 709 131 750 200 q 594 24 668 63 q 417 -14 519 -14 m 417 167 q 542 292 542 167 l 542 722 q 417 847 542 847 q 292 722 292 847 l 292 292 q 417 167 292 167 m 294 1125 l 440 1319 l 664 1319 l 501 1125 l 294 1125 z "},"Ŏ":{"ha":833,"x_min":83,"x_max":750,"o":"m 417 -14 q 240 24 315 -14 q 124 131 165 63 q 83 292 83 200 l 83 722 q 124 883 83 814 q 240 990 165 951 q 417 1028 315 1028 q 594 990 519 1028 q 709 883 668 951 q 750 722 750 814 l 750 292 q 709 131 750 200 q 594 24 668 63 q 417 -14 519 -14 m 417 167 q 542 292 542 167 l 542 722 q 417 847 542 847 q 292 722 292 847 l 292 292 q 417 167 292 167 m 417 1111 q 232 1169 303 1111 q 161 1319 161 1226 l 321 1319 q 347 1256 321 1281 q 417 1232 374 1232 q 488 1256 461 1232 q 514 1319 514 1281 l 674 1319 q 603 1169 674 1226 q 417 1111 532 1111 z "},"Ô":{"ha":833,"x_min":83,"x_max":750,"o":"m 417 -14 q 240 24 315 -14 q 124 131 165 63 q 83 292 83 200 l 83 722 q 124 883 83 814 q 240 990 165 951 q 417 1028 315 1028 q 594 990 519 1028 q 709 883 668 951 q 750 722 750 814 l 750 292 q 709 131 750 200 q 594 24 668 63 q 417 -14 519 -14 m 417 167 q 542 292 542 167 l 542 722 q 417 847 542 847 q 292 722 292 847 l 292 292 q 417 167 292 167 m 132 1125 l 319 1319 l 514 1319 l 701 1125 l 514 1125 l 414 1222 l 321 1125 l 132 1125 z "},"Ố":{"ha":833,"x_min":83,"x_max":931,"o":"m 417 -14 q 240 24 315 -14 q 124 131 165 63 q 83 292 83 200 l 83 722 q 124 883 83 814 q 240 990 165 951 q 417 1028 315 1028 q 594 990 519 1028 q 709 883 668 951 q 750 722 750 814 l 750 292 q 709 131 750 200 q 594 24 668 63 q 417 -14 519 -14 m 417 167 q 542 292 542 167 l 542 722 q 417 847 542 847 q 292 722 292 847 l 292 292 q 417 167 292 167 m 583 1257 l 729 1417 l 931 1417 l 771 1257 l 583 1257 m 132 1083 l 319 1278 l 514 1278 l 701 1083 l 513 1083 l 417 1181 l 321 1083 l 132 1083 z "},"Ộ":{"ha":833,"x_min":83,"x_max":750,"o":"m 417 -14 q 240 24 315 -14 q 124 131 165 63 q 83 292 83 200 l 83 722 q 124 883 83 814 q 240 990 165 951 q 417 1028 315 1028 q 594 990 519 1028 q 709 883 668 951 q 750 722 750 814 l 750 292 q 709 131 750 200 q 594 24 668 63 q 417 -14 519 -14 m 417 167 q 542 292 542 167 l 542 722 q 417 847 542 847 q 292 722 292 847 l 292 292 q 417 167 292 167 m 417 -324 q 326 -294 360 -324 q 292 -215 292 -265 q 326 -136 292 -165 q 417 -107 360 -107 q 508 -136 474 -107 q 542 -215 542 -165 q 508 -294 542 -265 q 417 -324 474 -324 m 132 1125 l 319 1319 l 514 1319 l 701 1125 l 514 1125 l 414 1222 l 321 1125 l 132 1125 z "},"Ồ":{"ha":833,"x_min":83,"x_max":819,"o":"m 417 -14 q 240 24 315 -14 q 124 131 165 63 q 83 292 83 200 l 83 722 q 124 883 83 814 q 240 990 165 951 q 417 1028 315 1028 q 594 990 519 1028 q 709 883 668 951 q 750 722 750 814 l 750 292 q 709 131 750 200 q 594 24 668 63 q 417 -14 519 -14 m 417 167 q 542 292 542 167 l 542 722 q 417 847 542 847 q 292 722 292 847 l 292 292 q 417 167 292 167 m 632 1257 l 472 1417 l 674 1417 l 819 1257 l 632 1257 m 132 1083 l 319 1278 l 514 1278 l 701 1083 l 513 1083 l 417 1181 l 321 1083 l 132 1083 z "},"Ổ":{"ha":833,"x_min":83,"x_max":821,"o":"m 417 -14 q 240 24 315 -14 q 124 131 165 63 q 83 292 83 200 l 83 722 q 124 883 83 814 q 240 990 165 951 q 417 1028 315 1028 q 594 990 519 1028 q 709 883 668 951 q 750 722 750 814 l 750 292 q 709 131 750 200 q 594 24 668 63 q 417 -14 519 -14 m 417 167 q 542 292 542 167 l 542 722 q 417 847 542 847 q 292 722 292 847 l 292 292 q 417 167 292 167 m 608 1208 l 656 1256 q 674 1288 674 1274 q 639 1311 674 1311 l 542 1311 l 542 1417 l 674 1417 q 781 1388 740 1417 q 821 1303 821 1358 q 812 1264 821 1285 q 788 1231 803 1243 l 761 1208 l 608 1208 m 132 1083 l 319 1278 l 514 1278 l 701 1083 l 513 1083 l 417 1181 l 321 1083 l 132 1083 z "},"Ỗ":{"ha":833,"x_min":83,"x_max":750,"o":"m 417 -14 q 240 24 315 -14 q 124 131 165 63 q 83 292 83 200 l 83 722 q 124 883 83 814 q 240 990 165 951 q 417 1028 315 1028 q 594 990 519 1028 q 709 883 668 951 q 750 722 750 814 l 750 292 q 709 131 750 200 q 594 24 668 63 q 417 -14 519 -14 m 417 167 q 542 292 542 167 l 542 722 q 417 847 542 847 q 292 722 292 847 l 292 292 q 417 167 292 167 m 528 1264 q 440 1276 476 1264 q 375 1301 403 1289 q 319 1313 347 1313 q 285 1278 285 1313 l 285 1271 l 167 1271 l 167 1278 q 204 1379 167 1342 q 306 1417 242 1417 q 394 1405 358 1417 q 458 1381 431 1393 q 514 1368 486 1368 q 549 1403 549 1368 l 549 1410 l 667 1410 l 667 1403 q 629 1301 667 1339 q 528 1264 592 1264 m 132 1083 l 264 1228 l 569 1228 l 701 1083 l 513 1083 l 417 1188 l 321 1083 l 132 1083 z "},"Ö":{"ha":833,"x_min":83,"x_max":750,"o":"m 417 -14 q 240 24 315 -14 q 124 131 165 63 q 83 292 83 200 l 83 722 q 124 883 83 814 q 240 990 165 951 q 417 1028 315 1028 q 594 990 519 1028 q 709 883 668 951 q 750 722 750 814 l 750 292 q 709 131 750 200 q 594 24 668 63 q 417 -14 519 -14 m 417 167 q 542 292 542 167 l 542 722 q 417 847 542 847 q 292 722 292 847 l 292 292 q 417 167 292 167 m 586 1114 q 505 1143 535 1114 q 475 1222 475 1172 q 505 1301 475 1272 q 586 1331 535 1331 q 667 1301 638 1331 q 697 1222 697 1272 q 667 1143 697 1172 q 586 1114 638 1114 m 247 1114 q 166 1143 196 1114 q 136 1222 136 1172 q 166 1301 136 1272 q 247 1331 196 1331 q 328 1301 299 1331 q 358 1222 358 1272 q 328 1143 358 1172 q 247 1114 299 1114 z "},"Ọ":{"ha":833,"x_min":83,"x_max":750,"o":"m 417 -14 q 240 24 315 -14 q 124 131 165 63 q 83 292 83 200 l 83 722 q 124 883 83 814 q 240 990 165 951 q 417 1028 315 1028 q 594 990 519 1028 q 709 883 668 951 q 750 722 750 814 l 750 292 q 709 131 750 200 q 594 24 668 63 q 417 -14 519 -14 m 417 167 q 542 292 542 167 l 542 722 q 417 847 542 847 q 292 722 292 847 l 292 292 q 417 167 292 167 m 417 -324 q 326 -294 360 -324 q 292 -215 292 -265 q 326 -136 292 -165 q 417 -107 360 -107 q 508 -136 474 -107 q 542 -215 542 -165 q 508 -294 542 -265 q 417 -324 474 -324 z "},"Ò":{"ha":833,"x_min":83,"x_max":750,"o":"m 417 -14 q 240 24 315 -14 q 124 131 165 63 q 83 292 83 200 l 83 722 q 124 883 83 814 q 240 990 165 951 q 417 1028 315 1028 q 594 990 519 1028 q 709 883 668 951 q 750 722 750 814 l 750 292 q 709 131 750 200 q 594 24 668 63 q 417 -14 519 -14 m 417 167 q 542 292 542 167 l 542 722 q 417 847 542 847 q 292 722 292 847 l 292 292 q 417 167 292 167 m 329 1125 l 167 1319 l 396 1319 l 542 1125 l 329 1125 z "},"Ỏ":{"ha":833,"x_min":83,"x_max":750,"o":"m 417 -14 q 240 24 315 -14 q 124 131 165 63 q 83 292 83 200 l 83 722 q 124 883 83 814 q 240 990 165 951 q 417 1028 315 1028 q 594 990 519 1028 q 709 883 668 951 q 750 722 750 814 l 750 292 q 709 131 750 200 q 594 24 668 63 q 417 -14 519 -14 m 417 167 q 542 292 542 167 l 542 722 q 417 847 542 847 q 292 722 292 847 l 292 292 q 417 167 292 167 m 338 1106 l 406 1186 q 426 1226 426 1211 q 389 1250 426 1250 l 278 1250 l 278 1368 l 424 1368 q 529 1335 489 1368 q 569 1249 569 1303 q 539 1164 569 1201 l 490 1106 l 338 1106 z "},"Ơ":{"ha":833,"x_min":83,"x_max":814,"o":"m 417 -14 q 240 24 315 -14 q 124 131 165 63 q 83 292 83 200 l 83 722 q 124 883 83 814 q 240 990 165 951 q 417 1028 315 1028 q 618 975 535 1028 q 647 1021 647 985 l 647 1125 l 814 1125 l 814 1021 q 790 924 814 965 q 722 858 765 882 q 750 722 750 797 l 750 292 q 709 131 750 200 q 594 24 668 63 q 417 -14 519 -14 m 417 167 q 542 292 542 167 l 542 722 q 417 847 542 847 q 292 722 292 847 l 292 292 q 417 167 292 167 z "},"Ớ":{"ha":833,"x_min":83,"x_max":814,"o":"m 417 -14 q 240 24 315 -14 q 124 131 165 63 q 83 292 83 200 l 83 722 q 124 883 83 814 q 240 990 165 951 q 417 1028 315 1028 q 618 975 535 1028 q 647 1021 647 985 l 647 1125 l 814 1125 l 814 1021 q 790 924 814 965 q 722 858 765 882 q 750 722 750 797 l 750 292 q 709 131 750 200 q 594 24 668 63 q 417 -14 519 -14 m 417 167 q 542 292 542 167 l 542 722 q 417 847 542 847 q 292 722 292 847 l 292 292 q 417 167 292 167 m 281 1125 l 426 1319 l 650 1319 l 488 1125 l 281 1125 z "},"Ợ":{"ha":833,"x_min":83,"x_max":814,"o":"m 417 -14 q 240 24 315 -14 q 124 131 165 63 q 83 292 83 200 l 83 722 q 124 883 83 814 q 240 990 165 951 q 417 1028 315 1028 q 618 975 535 1028 q 647 1021 647 985 l 647 1125 l 814 1125 l 814 1021 q 790 924 814 965 q 722 858 765 882 q 750 722 750 797 l 750 292 q 709 131 750 200 q 594 24 668 63 q 417 -14 519 -14 m 417 167 q 542 292 542 167 l 542 722 q 417 847 542 847 q 292 722 292 847 l 292 292 q 417 167 292 167 m 417 -324 q 326 -294 360 -324 q 292 -215 292 -265 q 326 -136 292 -165 q 417 -107 360 -107 q 508 -136 474 -107 q 542 -215 542 -165 q 508 -294 542 -265 q 417 -324 474 -324 z "},"Ờ":{"ha":833,"x_min":83,"x_max":814,"o":"m 417 -14 q 240 24 315 -14 q 124 131 165 63 q 83 292 83 200 l 83 722 q 124 883 83 814 q 240 990 165 951 q 417 1028 315 1028 q 618 975 535 1028 q 647 1021 647 985 l 647 1125 l 814 1125 l 814 1021 q 790 924 814 965 q 722 858 765 882 q 750 722 750 797 l 750 292 q 709 131 750 200 q 594 24 668 63 q 417 -14 519 -14 m 417 167 q 542 292 542 167 l 542 722 q 417 847 542 847 q 292 722 292 847 l 292 292 q 417 167 292 167 m 315 1125 l 153 1319 l 382 1319 l 528 1125 l 315 1125 z "},"Ở":{"ha":833,"x_min":83,"x_max":814,"o":"m 417 -14 q 240 24 315 -14 q 124 131 165 63 q 83 292 83 200 l 83 722 q 124 883 83 814 q 240 990 165 951 q 417 1028 315 1028 q 618 975 535 1028 q 647 1021 647 985 l 647 1125 l 814 1125 l 814 1021 q 790 924 814 965 q 722 858 765 882 q 750 722 750 797 l 750 292 q 709 131 750 200 q 594 24 668 63 q 417 -14 519 -14 m 417 167 q 542 292 542 167 l 542 722 q 417 847 542 847 q 292 722 292 847 l 292 292 q 417 167 292 167 m 324 1106 l 392 1186 q 413 1226 413 1211 q 375 1250 413 1250 l 264 1250 l 264 1368 l 410 1368 q 515 1335 475 1368 q 556 1249 556 1303 q 525 1164 556 1201 l 476 1106 l 324 1106 z "},"Ỡ":{"ha":833,"x_min":83,"x_max":814,"o":"m 417 -14 q 240 24 315 -14 q 124 131 165 63 q 83 292 83 200 l 83 722 q 124 883 83 814 q 240 990 165 951 q 417 1028 315 1028 q 618 975 535 1028 q 647 1021 647 985 l 647 1125 l 814 1125 l 814 1021 q 790 924 814 965 q 722 858 765 882 q 750 722 750 797 l 750 292 q 709 131 750 200 q 594 24 668 63 q 417 -14 519 -14 m 417 167 q 542 292 542 167 l 542 722 q 417 847 542 847 q 292 722 292 847 l 292 292 q 417 167 292 167 m 500 1111 q 428 1124 456 1111 q 383 1153 401 1136 q 349 1182 365 1169 q 313 1194 333 1194 q 283 1182 294 1194 q 271 1149 271 1169 l 271 1118 l 153 1118 l 153 1167 q 195 1286 153 1239 q 306 1333 238 1333 q 377 1321 350 1333 q 422 1292 404 1308 q 456 1263 440 1275 q 493 1250 472 1250 q 535 1289 535 1250 l 535 1326 l 653 1326 l 653 1278 q 611 1158 653 1206 q 500 1111 569 1111 z "},"Ő":{"ha":833,"x_min":83,"x_max":792,"o":"m 417 -14 q 240 24 315 -14 q 124 131 165 63 q 83 292 83 200 l 83 722 q 124 883 83 814 q 240 990 165 951 q 417 1028 315 1028 q 594 990 519 1028 q 709 883 668 951 q 750 722 750 814 l 750 292 q 709 131 750 200 q 594 24 668 63 q 417 -14 519 -14 m 417 167 q 542 292 542 167 l 542 722 q 417 847 542 847 q 292 722 292 847 l 292 292 q 417 167 292 167 m 447 1125 l 593 1319 l 792 1319 l 632 1125 l 447 1125 m 146 1125 l 292 1319 l 490 1319 l 331 1125 l 146 1125 z "},"Ō":{"ha":833,"x_min":83,"x_max":750,"o":"m 417 -14 q 240 24 315 -14 q 124 131 165 63 q 83 292 83 200 l 83 722 q 124 883 83 814 q 240 990 165 951 q 417 1028 315 1028 q 594 990 519 1028 q 709 883 668 951 q 750 722 750 814 l 750 292 q 709 131 750 200 q 594 24 668 63 q 417 -14 519 -14 m 417 167 q 542 292 542 167 l 542 722 q 417 847 542 847 q 292 722 292 847 l 292 292 q 417 167 292 167 m 167 1139 l 167 1292 l 667 1292 l 667 1139 l 167 1139 z "},"Ǫ":{"ha":833,"x_min":83,"x_max":750,"o":"m 492 -312 q 358 -270 407 -312 q 310 -160 310 -228 q 338 -85 310 -125 q 410 -14 365 -46 q 236 26 310 -12 q 123 133 163 65 q 83 292 83 201 l 83 722 q 124 883 83 814 q 240 990 165 951 q 417 1028 315 1028 q 594 990 519 1028 q 709 883 668 951 q 750 722 750 814 l 750 292 q 710 137 750 206 q 603 29 669 68 l 536 -24 q 495 -71 508 -46 q 482 -114 482 -96 q 499 -151 482 -136 q 546 -167 515 -167 l 642 -167 l 642 -312 l 492 -312 m 417 167 q 542 292 542 167 l 542 722 q 417 847 542 847 q 292 722 292 847 l 292 292 q 417 167 292 167 z "},"Ø":{"ha":833,"x_min":21,"x_max":813,"o":"m 21 -56 l 126 128 q 83 292 83 199 l 83 722 q 124 883 83 814 q 240 990 165 951 q 417 1028 315 1028 q 613 979 531 1028 l 649 1042 l 813 1042 l 715 872 q 750 722 750 806 l 750 292 q 709 131 750 200 q 594 24 668 63 q 417 -14 519 -14 q 232 28 311 -14 l 185 -56 l 21 -56 m 285 722 l 285 406 l 517 813 q 417 847 483 847 q 319 815 353 847 q 285 722 285 783 m 417 167 q 515 199 481 167 q 549 292 549 232 l 549 581 l 326 193 q 417 167 360 167 z "},"Ǿ":{"ha":833,"x_min":21,"x_max":813,"o":"m 21 -56 l 126 128 q 83 292 83 199 l 83 722 q 124 883 83 814 q 240 990 165 951 q 417 1028 315 1028 q 613 979 531 1028 l 649 1042 l 813 1042 l 715 872 q 750 722 750 806 l 750 292 q 709 131 750 200 q 594 24 668 63 q 417 -14 519 -14 q 232 28 311 -14 l 185 -56 l 21 -56 m 285 722 l 285 406 l 517 813 q 417 847 483 847 q 319 815 353 847 q 285 722 285 783 m 417 167 q 515 199 481 167 q 549 292 549 232 l 549 581 l 326 193 q 417 167 360 167 m 294 1125 l 440 1319 l 664 1319 l 501 1125 l 294 1125 z "},"Õ":{"ha":833,"x_min":83,"x_max":750,"o":"m 417 -14 q 240 24 315 -14 q 124 131 165 63 q 83 292 83 200 l 83 722 q 124 883 83 814 q 240 990 165 951 q 417 1028 315 1028 q 594 990 519 1028 q 709 883 668 951 q 750 722 750 814 l 750 292 q 709 131 750 200 q 594 24 668 63 q 417 -14 519 -14 m 417 167 q 542 292 542 167 l 542 722 q 417 847 542 847 q 292 722 292 847 l 292 292 q 417 167 292 167 m 514 1111 q 442 1124 469 1111 q 397 1153 415 1136 q 363 1182 379 1169 q 326 1194 347 1194 q 297 1182 308 1194 q 285 1149 285 1169 l 285 1118 l 167 1118 l 167 1167 q 209 1286 167 1239 q 319 1333 251 1333 q 391 1321 364 1333 q 436 1292 418 1308 q 470 1263 454 1275 q 507 1250 486 1250 q 549 1289 549 1250 l 549 1326 l 667 1326 l 667 1278 q 625 1158 667 1206 q 514 1111 583 1111 z "},"Œ":{"ha":833,"x_min":42,"x_max":806,"o":"m 243 -6 q 95 67 149 -6 q 42 271 42 140 l 42 751 q 95 955 42 882 q 243 1028 149 1028 q 326 1008 293 1028 q 376 959 358 988 q 396 903 393 931 l 403 903 l 403 1014 l 806 1014 l 806 840 l 582 840 l 582 607 l 771 607 l 771 432 l 582 432 l 582 175 l 806 175 l 806 0 l 403 0 l 403 119 l 396 119 q 376 64 393 93 q 326 15 358 35 q 243 -6 293 -6 m 315 168 q 374 195 353 168 q 394 271 394 222 l 394 751 q 374 827 394 800 q 315 854 353 854 q 258 827 279 854 q 236 751 236 800 l 236 271 q 258 196 236 224 q 315 168 279 168 z "},"P":{"ha":833,"x_min":92,"x_max":792,"o":"m 92 0 l 92 1014 l 438 1014 q 624 974 544 1014 q 748 861 704 933 q 792 692 792 789 q 747 523 792 596 q 624 410 703 450 q 438 369 544 369 l 300 369 l 300 0 l 92 0 m 300 550 l 438 550 q 544 590 504 550 q 583 692 583 631 q 544 793 583 753 q 438 833 504 833 l 300 833 l 300 550 z "},"Þ":{"ha":833,"x_min":97,"x_max":792,"o":"m 97 0 l 97 1014 l 306 1014 l 306 826 l 472 826 q 707 747 622 826 q 792 528 792 668 q 706 309 792 389 q 472 229 621 229 l 306 229 l 306 0 l 97 0 m 306 403 l 438 403 q 546 435 508 403 q 583 528 583 468 q 546 621 583 589 q 438 653 508 653 l 306 653 l 306 403 z "},"Q":{"ha":833,"x_min":83,"x_max":772,"o":"m 556 -250 l 413 -14 q 239 26 313 -12 q 124 133 165 64 q 83 292 83 201 l 83 722 q 125 883 83 815 q 242 990 167 951 q 417 1028 317 1028 q 592 990 517 1028 q 708 883 667 951 q 750 722 750 814 l 750 292 q 712 133 750 201 q 601 28 674 64 l 772 -250 l 556 -250 m 417 168 q 512 200 482 168 q 542 292 542 232 l 542 722 q 510 815 542 783 q 417 847 478 847 q 324 815 357 847 q 292 722 292 783 l 292 292 q 322 200 292 232 q 417 168 353 168 z "},"R":{"ha":833,"x_min":90,"x_max":785,"o":"m 90 0 l 90 1014 l 417 1014 q 604 976 525 1014 q 727 869 683 939 q 771 706 771 800 q 723 529 771 607 q 593 417 675 451 l 785 0 l 558 0 l 394 383 l 297 383 l 297 0 l 90 0 m 297 564 l 417 564 q 524 599 486 564 q 563 696 563 633 q 524 797 563 761 q 417 833 486 833 l 297 833 l 297 564 z "},"Ŕ":{"ha":833,"x_min":90,"x_max":785,"o":"m 90 0 l 90 1014 l 417 1014 q 604 976 525 1014 q 727 869 683 939 q 771 706 771 800 q 723 529 771 607 q 593 417 675 451 l 785 0 l 558 0 l 394 383 l 297 383 l 297 0 l 90 0 m 297 564 l 417 564 q 524 599 486 564 q 563 696 563 633 q 524 797 563 761 q 417 833 486 833 l 297 833 l 297 564 m 294 1125 l 440 1319 l 664 1319 l 501 1125 l 294 1125 z "},"Ř":{"ha":833,"x_min":90,"x_max":785,"o":"m 90 0 l 90 1014 l 417 1014 q 604 976 525 1014 q 727 869 683 939 q 771 706 771 800 q 723 529 771 607 q 593 417 675 451 l 785 0 l 558 0 l 394 383 l 297 383 l 297 0 l 90 0 m 297 564 l 417 564 q 524 599 486 564 q 563 696 563 633 q 524 797 563 761 q 417 833 486 833 l 297 833 l 297 564 m 319 1125 l 132 1319 l 319 1319 l 419 1222 l 513 1319 l 701 1319 l 514 1125 l 319 1125 z "},"Ŗ":{"ha":833,"x_min":90,"x_max":785,"o":"m 90 0 l 90 1014 l 417 1014 q 604 976 525 1014 q 727 869 683 939 q 771 706 771 800 q 723 529 771 607 q 593 417 675 451 l 785 0 l 558 0 l 394 383 l 297 383 l 297 0 l 90 0 m 297 564 l 417 564 q 524 599 486 564 q 563 696 563 633 q 524 797 563 761 q 417 833 486 833 l 297 833 l 297 564 m 243 -333 l 375 -132 l 583 -132 l 424 -333 l 243 -333 z "},"S":{"ha":833,"x_min":65,"x_max":768,"o":"m 417 -14 q 231 22 310 -14 q 108 124 151 58 q 65 278 65 189 l 274 278 q 313 197 274 226 q 421 167 353 167 q 523 196 486 167 q 560 276 560 225 q 532 353 560 321 q 454 396 504 385 l 351 419 q 151 533 222 450 q 79 735 79 615 q 169 948 79 868 q 414 1028 260 1028 q 660 951 569 1028 q 751 743 751 874 l 543 743 q 509 819 543 792 q 411 847 475 847 q 319 819 351 847 q 288 738 288 792 q 315 666 288 697 q 393 624 342 635 l 494 600 q 699 490 629 569 q 768 286 768 410 q 724 129 768 197 q 602 24 681 61 q 417 -14 524 -14 z "},"Ś":{"ha":833,"x_min":65,"x_max":768,"o":"m 417 -14 q 231 22 310 -14 q 108 124 151 58 q 65 278 65 189 l 274 278 q 313 197 274 226 q 421 167 353 167 q 523 196 486 167 q 560 276 560 225 q 532 353 560 321 q 454 396 504 385 l 351 419 q 151 533 222 450 q 79 735 79 615 q 169 948 79 868 q 414 1028 260 1028 q 660 951 569 1028 q 751 743 751 874 l 543 743 q 509 819 543 792 q 411 847 475 847 q 319 819 351 847 q 288 738 288 792 q 315 666 288 697 q 393 624 342 635 l 494 600 q 699 490 629 569 q 768 286 768 410 q 724 129 768 197 q 602 24 681 61 q 417 -14 524 -14 m 294 1125 l 440 1319 l 664 1319 l 501 1125 l 294 1125 z "},"Š":{"ha":833,"x_min":65,"x_max":768,"o":"m 417 -14 q 231 22 310 -14 q 108 124 151 58 q 65 278 65 189 l 274 278 q 313 197 274 226 q 421 167 353 167 q 523 196 486 167 q 560 276 560 225 q 532 353 560 321 q 454 396 504 385 l 351 419 q 151 533 222 450 q 79 735 79 615 q 169 948 79 868 q 414 1028 260 1028 q 660 951 569 1028 q 751 743 751 874 l 543 743 q 509 819 543 792 q 411 847 475 847 q 319 819 351 847 q 288 738 288 792 q 315 666 288 697 q 393 624 342 635 l 494 600 q 699 490 629 569 q 768 286 768 410 q 724 129 768 197 q 602 24 681 61 q 417 -14 524 -14 m 319 1125 l 132 1319 l 319 1319 l 419 1222 l 513 1319 l 701 1319 l 514 1125 l 319 1125 z "},"Ş":{"ha":833,"x_min":65,"x_max":768,"o":"m 271 -312 l 271 -215 l 382 -215 q 438 -199 417 -215 q 458 -165 458 -182 q 416 -115 458 -133 q 297 -96 374 -96 l 333 -8 q 138 88 210 13 q 65 278 65 163 l 274 278 q 313 197 274 226 q 421 167 353 167 q 523 196 486 167 q 560 276 560 225 q 532 353 560 321 q 454 396 504 385 l 351 419 q 151 533 222 450 q 79 735 79 615 q 169 948 79 868 q 414 1028 260 1028 q 660 951 569 1028 q 751 743 751 874 l 543 743 q 509 819 543 792 q 411 847 475 847 q 319 819 351 847 q 288 738 288 792 q 315 666 288 697 q 393 624 342 635 l 494 600 q 699 490 629 569 q 768 286 768 410 q 727 133 768 199 q 611 28 686 67 q 435 -14 536 -10 l 421 -54 q 509 -72 464 -57 q 586 -114 554 -86 q 618 -185 618 -142 q 565 -274 618 -236 q 424 -312 511 -312 l 271 -312 z "},"Ŝ":{"ha":833,"x_min":65,"x_max":768,"o":"m 417 -14 q 231 22 310 -14 q 108 124 151 58 q 65 278 65 189 l 274 278 q 313 197 274 226 q 421 167 353 167 q 523 196 486 167 q 560 276 560 225 q 532 353 560 321 q 454 396 504 385 l 351 419 q 151 533 222 450 q 79 735 79 615 q 169 948 79 868 q 414 1028 260 1028 q 660 951 569 1028 q 751 743 751 874 l 543 743 q 509 819 543 792 q 411 847 475 847 q 319 819 351 847 q 288 738 288 792 q 315 666 288 697 q 393 624 342 635 l 494 600 q 699 490 629 569 q 768 286 768 410 q 724 129 768 197 q 602 24 681 61 q 417 -14 524 -14 m 132 1125 l 319 1319 l 514 1319 l 701 1125 l 514 1125 l 414 1222 l 321 1125 l 132 1125 z "},"Ș":{"ha":833,"x_min":65,"x_max":768,"o":"m 417 -14 q 231 22 310 -14 q 108 124 151 58 q 65 278 65 189 l 274 278 q 313 197 274 226 q 421 167 353 167 q 523 196 486 167 q 560 276 560 225 q 532 353 560 321 q 454 396 504 385 l 351 419 q 151 533 222 450 q 79 735 79 615 q 169 948 79 868 q 414 1028 260 1028 q 660 951 569 1028 q 751 743 751 874 l 543 743 q 509 819 543 792 q 411 847 475 847 q 319 819 351 847 q 288 738 288 792 q 315 666 288 697 q 393 624 342 635 l 494 600 q 699 490 629 569 q 768 286 768 410 q 724 129 768 197 q 602 24 681 61 q 417 -14 524 -14 m 243 -333 l 375 -132 l 583 -132 l 424 -333 l 243 -333 z "},"ẞ":{"ha":833,"x_min":83,"x_max":776,"o":"m 83 0 l 83 710 q 124 871 83 803 q 238 976 164 939 q 411 1014 313 1014 l 758 1014 l 758 818 l 543 585 q 714 490 651 565 q 776 299 776 414 q 734 141 776 208 q 615 37 692 74 q 432 0 538 0 l 360 0 l 360 174 l 425 174 q 529 213 492 174 q 567 315 567 253 q 528 417 567 378 q 425 456 490 456 l 360 456 l 360 608 l 572 840 l 410 840 q 308 805 346 840 q 271 710 271 769 l 271 0 l 83 0 z "},"Ə":{"ha":833,"x_min":83,"x_max":750,"o":"m 418 -14 q 242 24 317 -14 q 125 131 167 63 q 83 292 83 200 l 83 578 l 542 578 l 542 722 q 418 847 542 847 q 294 722 294 847 l 86 722 q 127 884 86 815 q 242 990 168 953 q 418 1028 317 1028 q 595 990 521 1028 q 710 883 669 951 q 750 722 750 815 l 750 292 q 710 131 750 200 q 595 24 669 63 q 418 -14 521 -14 m 418 146 q 515 183 488 146 q 542 292 542 221 l 542 425 l 292 425 l 292 292 q 418 146 292 146 z "},"T":{"ha":833,"x_min":56,"x_max":778,"o":"m 313 0 l 313 826 l 56 826 l 56 1014 l 778 1014 l 778 826 l 521 826 l 521 0 l 313 0 z "},"Ŧ":{"ha":833,"x_min":56,"x_max":778,"o":"m 313 0 l 313 368 l 139 368 l 139 542 l 313 542 l 313 826 l 56 826 l 56 1014 l 778 1014 l 778 826 l 521 826 l 521 542 l 694 542 l 694 368 l 521 368 l 521 0 l 313 0 z "},"Ť":{"ha":833,"x_min":56,"x_max":778,"o":"m 313 0 l 313 826 l 56 826 l 56 1014 l 778 1014 l 778 826 l 521 826 l 521 0 l 313 0 m 319 1125 l 132 1319 l 319 1319 l 419 1222 l 513 1319 l 701 1319 l 514 1125 l 319 1125 z "},"Ţ":{"ha":833,"x_min":56,"x_max":778,"o":"m 313 0 l 313 826 l 56 826 l 56 1014 l 778 1014 l 778 826 l 521 826 l 521 0 l 503 -54 q 591 -72 546 -57 q 668 -114 636 -86 q 700 -185 700 -142 q 647 -274 700 -236 q 506 -312 593 -312 l 353 -312 l 353 -215 l 464 -215 q 519 -199 499 -215 q 540 -165 540 -182 q 498 -115 540 -133 q 379 -96 456 -96 l 418 0 l 313 0 z "},"Ț":{"ha":833,"x_min":56,"x_max":778,"o":"m 313 0 l 313 826 l 56 826 l 56 1014 l 778 1014 l 778 826 l 521 826 l 521 0 l 313 0 m 243 -333 l 375 -132 l 583 -132 l 424 -333 l 243 -333 z "},"U":{"ha":833,"x_min":83,"x_max":750,"o":"m 417 -14 q 173 69 263 -14 q 83 297 83 153 l 83 1014 l 292 1014 l 292 299 q 324 201 292 235 q 417 167 357 167 q 508 201 475 167 q 542 299 542 235 l 542 1014 l 750 1014 l 750 297 q 660 70 750 154 q 417 -14 571 -14 z "},"Ú":{"ha":833,"x_min":83,"x_max":750,"o":"m 417 -14 q 173 69 263 -14 q 83 297 83 153 l 83 1014 l 292 1014 l 292 299 q 324 201 292 235 q 417 167 357 167 q 508 201 475 167 q 542 299 542 235 l 542 1014 l 750 1014 l 750 297 q 660 70 750 154 q 417 -14 571 -14 m 294 1125 l 440 1319 l 664 1319 l 501 1125 l 294 1125 z "},"Ŭ":{"ha":833,"x_min":83,"x_max":750,"o":"m 417 -14 q 173 69 263 -14 q 83 297 83 153 l 83 1014 l 292 1014 l 292 299 q 324 201 292 235 q 417 167 357 167 q 508 201 475 167 q 542 299 542 235 l 542 1014 l 750 1014 l 750 297 q 660 70 750 154 q 417 -14 571 -14 m 417 1111 q 232 1169 303 1111 q 161 1319 161 1226 l 321 1319 q 347 1256 321 1281 q 417 1232 374 1232 q 488 1256 461 1232 q 514 1319 514 1281 l 674 1319 q 603 1169 674 1226 q 417 1111 532 1111 z "},"Û":{"ha":833,"x_min":83,"x_max":750,"o":"m 417 -14 q 173 69 263 -14 q 83 297 83 153 l 83 1014 l 292 1014 l 292 299 q 324 201 292 235 q 417 167 357 167 q 508 201 475 167 q 542 299 542 235 l 542 1014 l 750 1014 l 750 297 q 660 70 750 154 q 417 -14 571 -14 m 132 1125 l 319 1319 l 514 1319 l 701 1125 l 514 1125 l 414 1222 l 321 1125 l 132 1125 z "},"Ü":{"ha":833,"x_min":83,"x_max":750,"o":"m 417 -14 q 173 69 263 -14 q 83 297 83 153 l 83 1014 l 292 1014 l 292 299 q 324 201 292 235 q 417 167 357 167 q 508 201 475 167 q 542 299 542 235 l 542 1014 l 750 1014 l 750 297 q 660 70 750 154 q 417 -14 571 -14 m 586 1114 q 505 1143 535 1114 q 475 1222 475 1172 q 505 1301 475 1272 q 586 1331 535 1331 q 667 1301 638 1331 q 697 1222 697 1272 q 667 1143 697 1172 q 586 1114 638 1114 m 247 1114 q 166 1143 196 1114 q 136 1222 136 1172 q 166 1301 136 1272 q 247 1331 196 1331 q 328 1301 299 1331 q 358 1222 358 1272 q 328 1143 358 1172 q 247 1114 299 1114 z "},"Ụ":{"ha":833,"x_min":83,"x_max":750,"o":"m 417 -14 q 173 69 263 -14 q 83 297 83 153 l 83 1014 l 292 1014 l 292 299 q 324 201 292 235 q 417 167 357 167 q 508 201 475 167 q 542 299 542 235 l 542 1014 l 750 1014 l 750 297 q 660 70 750 154 q 417 -14 571 -14 m 417 -324 q 326 -294 360 -324 q 292 -215 292 -265 q 326 -136 292 -165 q 417 -107 360 -107 q 508 -136 474 -107 q 542 -215 542 -165 q 508 -294 542 -265 q 417 -324 474 -324 z "},"Ù":{"ha":833,"x_min":83,"x_max":750,"o":"m 417 -14 q 173 69 263 -14 q 83 297 83 153 l 83 1014 l 292 1014 l 292 299 q 324 201 292 235 q 417 167 357 167 q 508 201 475 167 q 542 299 542 235 l 542 1014 l 750 1014 l 750 297 q 660 70 750 154 q 417 -14 571 -14 m 329 1125 l 167 1319 l 396 1319 l 542 1125 l 329 1125 z "},"Ủ":{"ha":833,"x_min":83,"x_max":750,"o":"m 417 -14 q 173 69 263 -14 q 83 297 83 153 l 83 1014 l 292 1014 l 292 299 q 324 201 292 235 q 417 167 357 167 q 508 201 475 167 q 542 299 542 235 l 542 1014 l 750 1014 l 750 297 q 660 70 750 154 q 417 -14 571 -14 m 338 1106 l 406 1186 q 426 1226 426 1211 q 389 1250 426 1250 l 278 1250 l 278 1368 l 424 1368 q 529 1335 489 1368 q 569 1249 569 1303 q 539 1164 569 1201 l 490 1106 l 338 1106 z "},"Ư":{"ha":833,"x_min":83,"x_max":904,"o":"m 417 -14 q 173 69 263 -14 q 83 297 83 153 l 83 1014 l 292 1014 l 292 299 q 324 201 292 235 q 417 167 357 167 q 508 201 475 167 q 542 299 542 235 l 542 1014 l 689 1014 q 738 1063 738 1014 l 738 1167 l 904 1167 l 904 1063 q 863 941 904 990 q 750 879 821 892 l 750 297 q 660 70 750 154 q 417 -14 571 -14 z "},"Ứ":{"ha":833,"x_min":83,"x_max":904,"o":"m 417 -14 q 173 69 263 -14 q 83 297 83 153 l 83 1014 l 292 1014 l 292 299 q 324 201 292 235 q 417 167 357 167 q 508 201 475 167 q 542 299 542 235 l 542 1014 l 689 1014 q 738 1063 738 1014 l 738 1167 l 904 1167 l 904 1063 q 863 941 904 990 q 750 879 821 892 l 750 297 q 660 70 750 154 q 417 -14 571 -14 m 294 1125 l 440 1319 l 664 1319 l 501 1125 l 294 1125 z "},"Ự":{"ha":833,"x_min":83,"x_max":904,"o":"m 417 -14 q 173 69 263 -14 q 83 297 83 153 l 83 1014 l 292 1014 l 292 299 q 324 201 292 235 q 417 167 357 167 q 508 201 475 167 q 542 299 542 235 l 542 1014 l 689 1014 q 738 1063 738 1014 l 738 1167 l 904 1167 l 904 1063 q 863 941 904 990 q 750 879 821 892 l 750 297 q 660 70 750 154 q 417 -14 571 -14 m 417 -324 q 326 -294 360 -324 q 292 -215 292 -265 q 326 -136 292 -165 q 417 -107 360 -107 q 508 -136 474 -107 q 542 -215 542 -165 q 508 -294 542 -265 q 417 -324 474 -324 z "},"Ừ":{"ha":833,"x_min":83,"x_max":904,"o":"m 417 -14 q 173 69 263 -14 q 83 297 83 153 l 83 1014 l 292 1014 l 292 299 q 324 201 292 235 q 417 167 357 167 q 508 201 475 167 q 542 299 542 235 l 542 1014 l 689 1014 q 738 1063 738 1014 l 738 1167 l 904 1167 l 904 1063 q 863 941 904 990 q 750 879 821 892 l 750 297 q 660 70 750 154 q 417 -14 571 -14 m 329 1125 l 167 1319 l 396 1319 l 542 1125 l 329 1125 z "},"Ử":{"ha":833,"x_min":83,"x_max":904,"o":"m 417 -14 q 173 69 263 -14 q 83 297 83 153 l 83 1014 l 292 1014 l 292 299 q 324 201 292 235 q 417 167 357 167 q 508 201 475 167 q 542 299 542 235 l 542 1014 l 689 1014 q 738 1063 738 1014 l 738 1167 l 904 1167 l 904 1063 q 863 941 904 990 q 750 879 821 892 l 750 297 q 660 70 750 154 q 417 -14 571 -14 m 338 1106 l 406 1186 q 426 1226 426 1211 q 389 1250 426 1250 l 278 1250 l 278 1368 l 424 1368 q 529 1335 489 1368 q 569 1249 569 1303 q 539 1164 569 1201 l 490 1106 l 338 1106 z "},"Ữ":{"ha":833,"x_min":83,"x_max":904,"o":"m 417 -14 q 173 69 263 -14 q 83 297 83 153 l 83 1014 l 292 1014 l 292 299 q 324 201 292 235 q 417 167 357 167 q 508 201 475 167 q 542 299 542 235 l 542 1014 l 689 1014 q 738 1063 738 1014 l 738 1167 l 904 1167 l 904 1063 q 863 941 904 990 q 750 879 821 892 l 750 297 q 660 70 750 154 q 417 -14 571 -14 m 514 1111 q 442 1124 469 1111 q 397 1153 415 1136 q 363 1182 379 1169 q 326 1194 347 1194 q 297 1182 308 1194 q 285 1149 285 1169 l 285 1118 l 167 1118 l 167 1167 q 209 1286 167 1239 q 319 1333 251 1333 q 391 1321 364 1333 q 436 1292 418 1308 q 470 1263 454 1275 q 507 1250 486 1250 q 549 1289 549 1250 l 549 1326 l 667 1326 l 667 1278 q 625 1158 667 1206 q 514 1111 583 1111 z "},"Ű":{"ha":833,"x_min":83,"x_max":792,"o":"m 417 -14 q 173 69 263 -14 q 83 297 83 153 l 83 1014 l 292 1014 l 292 299 q 324 201 292 235 q 417 167 357 167 q 508 201 475 167 q 542 299 542 235 l 542 1014 l 750 1014 l 750 297 q 660 70 750 154 q 417 -14 571 -14 m 447 1125 l 593 1319 l 792 1319 l 632 1125 l 447 1125 m 146 1125 l 292 1319 l 490 1319 l 331 1125 l 146 1125 z "},"Ū":{"ha":833,"x_min":83,"x_max":750,"o":"m 417 -14 q 173 69 263 -14 q 83 297 83 153 l 83 1014 l 292 1014 l 292 299 q 324 201 292 235 q 417 167 357 167 q 508 201 475 167 q 542 299 542 235 l 542 1014 l 750 1014 l 750 297 q 660 70 750 154 q 417 -14 571 -14 m 167 1139 l 167 1292 l 667 1292 l 667 1139 l 167 1139 z "},"Ų":{"ha":833,"x_min":83,"x_max":750,"o":"m 492 -312 q 358 -270 407 -312 q 310 -160 310 -228 q 338 -85 310 -125 q 410 -14 365 -46 q 236 26 310 -12 q 123 133 163 65 q 83 292 83 201 l 83 1014 l 292 1014 l 292 292 q 417 167 292 167 q 542 292 542 167 l 542 1014 l 750 1014 l 750 292 q 710 137 750 206 q 603 29 669 68 l 536 -24 q 495 -71 508 -46 q 482 -114 482 -96 q 499 -151 482 -136 q 546 -167 515 -167 l 642 -167 l 642 -312 l 492 -312 z "},"Ů":{"ha":833,"x_min":83,"x_max":750,"o":"m 417 -14 q 173 69 263 -14 q 83 297 83 153 l 83 1014 l 292 1014 l 292 299 q 324 201 292 235 q 417 167 357 167 q 508 201 475 167 q 542 299 542 235 l 542 1014 l 750 1014 l 750 297 q 660 70 750 154 q 417 -14 571 -14 m 417 1046 q 276 1094 329 1046 q 222 1222 222 1143 q 276 1350 222 1301 q 417 1399 329 1399 q 558 1350 504 1399 q 611 1222 611 1301 q 558 1094 611 1143 q 417 1046 504 1046 m 417 1143 q 477 1165 454 1143 q 500 1222 500 1188 q 477 1280 500 1258 q 417 1301 454 1301 q 356 1280 379 1301 q 333 1222 333 1258 q 356 1165 333 1188 q 417 1143 379 1143 z "},"Ũ":{"ha":833,"x_min":83,"x_max":750,"o":"m 417 -14 q 173 69 263 -14 q 83 297 83 153 l 83 1014 l 292 1014 l 292 299 q 324 201 292 235 q 417 167 357 167 q 508 201 475 167 q 542 299 542 235 l 542 1014 l 750 1014 l 750 297 q 660 70 750 154 q 417 -14 571 -14 m 514 1111 q 442 1124 469 1111 q 397 1153 415 1136 q 363 1182 379 1169 q 326 1194 347 1194 q 297 1182 308 1194 q 285 1149 285 1169 l 285 1118 l 167 1118 l 167 1167 q 209 1286 167 1239 q 319 1333 251 1333 q 391 1321 364 1333 q 436 1292 418 1308 q 470 1263 454 1275 q 507 1250 486 1250 q 549 1289 549 1250 l 549 1326 l 667 1326 l 667 1278 q 625 1158 667 1206 q 514 1111 583 1111 z "},"V":{"ha":833,"x_min":35,"x_max":799,"o":"m 286 0 l 35 1014 l 250 1014 l 390 374 q 408 289 397 340 q 424 201 418 238 q 438 289 429 238 q 453 375 446 340 l 589 1014 l 799 1014 l 550 0 l 286 0 z "},"W":{"ha":833,"x_min":14,"x_max":819,"o":"m 108 0 l 14 1014 l 185 1014 l 236 336 q 239 281 238 317 q 242 208 240 246 q 244 139 244 169 q 251 208 247 169 q 258 281 254 246 q 264 336 263 317 l 339 1014 l 497 1014 l 569 336 q 576 281 572 317 q 584 208 579 246 q 592 139 589 169 q 594 208 593 169 q 597 281 596 246 q 600 336 599 317 l 647 1014 l 819 1014 l 718 0 l 501 0 l 433 674 q 428 735 431 697 q 422 815 425 774 q 417 889 419 857 q 413 815 415 857 q 407 735 410 774 q 401 674 404 697 l 326 0 l 108 0 z "},"Ẃ":{"ha":833,"x_min":14,"x_max":819,"o":"m 108 0 l 14 1014 l 185 1014 l 236 336 q 239 281 238 317 q 242 208 240 246 q 244 139 244 169 q 251 208 247 169 q 258 281 254 246 q 264 336 263 317 l 339 1014 l 497 1014 l 569 336 q 576 281 572 317 q 584 208 579 246 q 592 139 589 169 q 594 208 593 169 q 597 281 596 246 q 600 336 599 317 l 647 1014 l 819 1014 l 718 0 l 501 0 l 433 674 q 428 735 431 697 q 422 815 425 774 q 417 889 419 857 q 413 815 415 857 q 407 735 410 774 q 401 674 404 697 l 326 0 l 108 0 m 294 1125 l 440 1319 l 664 1319 l 501 1125 l 294 1125 z "},"Ŵ":{"ha":833,"x_min":14,"x_max":819,"o":"m 108 0 l 14 1014 l 185 1014 l 236 336 q 239 281 238 317 q 242 208 240 246 q 244 139 244 169 q 251 208 247 169 q 258 281 254 246 q 264 336 263 317 l 339 1014 l 497 1014 l 569 336 q 576 281 572 317 q 584 208 579 246 q 592 139 589 169 q 594 208 593 169 q 597 281 596 246 q 600 336 599 317 l 647 1014 l 819 1014 l 718 0 l 501 0 l 433 674 q 428 735 431 697 q 422 815 425 774 q 417 889 419 857 q 413 815 415 857 q 407 735 410 774 q 401 674 404 697 l 326 0 l 108 0 m 132 1125 l 319 1319 l 514 1319 l 701 1125 l 514 1125 l 414 1222 l 321 1125 l 132 1125 z "},"Ẅ":{"ha":833,"x_min":14,"x_max":819,"o":"m 108 0 l 14 1014 l 185 1014 l 236 336 q 239 281 238 317 q 242 208 240 246 q 244 139 244 169 q 251 208 247 169 q 258 281 254 246 q 264 336 263 317 l 339 1014 l 497 1014 l 569 336 q 576 281 572 317 q 584 208 579 246 q 592 139 589 169 q 594 208 593 169 q 597 281 596 246 q 600 336 599 317 l 647 1014 l 819 1014 l 718 0 l 501 0 l 433 674 q 428 735 431 697 q 422 815 425 774 q 417 889 419 857 q 413 815 415 857 q 407 735 410 774 q 401 674 404 697 l 326 0 l 108 0 m 586 1114 q 505 1143 535 1114 q 475 1222 475 1172 q 505 1301 475 1272 q 586 1331 535 1331 q 667 1301 638 1331 q 697 1222 697 1272 q 667 1143 697 1172 q 586 1114 638 1114 m 247 1114 q 166 1143 196 1114 q 136 1222 136 1172 q 166 1301 136 1272 q 247 1331 196 1331 q 328 1301 299 1331 q 358 1222 358 1272 q 328 1143 358 1172 q 247 1114 299 1114 z "},"Ẁ":{"ha":833,"x_min":14,"x_max":819,"o":"m 108 0 l 14 1014 l 185 1014 l 236 336 q 239 281 238 317 q 242 208 240 246 q 244 139 244 169 q 251 208 247 169 q 258 281 254 246 q 264 336 263 317 l 339 1014 l 497 1014 l 569 336 q 576 281 572 317 q 584 208 579 246 q 592 139 589 169 q 594 208 593 169 q 597 281 596 246 q 600 336 599 317 l 647 1014 l 819 1014 l 718 0 l 501 0 l 433 674 q 428 735 431 697 q 422 815 425 774 q 417 889 419 857 q 413 815 415 857 q 407 735 410 774 q 401 674 404 697 l 326 0 l 108 0 m 329 1125 l 167 1319 l 396 1319 l 542 1125 l 329 1125 z "},"X":{"ha":833,"x_min":28,"x_max":806,"o":"m 28 0 l 300 524 l 46 1014 l 275 1014 l 381 792 q 406 736 396 761 q 419 700 417 711 q 432 736 422 711 q 456 792 442 761 l 564 1014 l 788 1014 l 533 524 l 806 0 l 576 0 l 454 250 q 429 307 440 281 q 413 347 418 333 q 399 307 408 333 q 374 250 389 281 l 251 0 l 28 0 z "},"Y":{"ha":833,"x_min":21,"x_max":813,"o":"m 313 0 l 313 361 l 21 1014 l 239 1014 l 367 708 q 401 611 386 663 q 421 528 415 560 q 441 611 428 560 q 472 708 454 663 l 596 1014 l 813 1014 l 521 361 l 521 0 l 313 0 z "},"Ý":{"ha":833,"x_min":21,"x_max":813,"o":"m 313 0 l 313 361 l 21 1014 l 239 1014 l 367 708 q 401 611 386 663 q 421 528 415 560 q 441 611 428 560 q 472 708 454 663 l 596 1014 l 813 1014 l 521 361 l 521 0 l 313 0 m 294 1125 l 440 1319 l 664 1319 l 501 1125 l 294 1125 z "},"Ŷ":{"ha":833,"x_min":21,"x_max":813,"o":"m 313 0 l 313 361 l 21 1014 l 239 1014 l 367 708 q 401 611 386 663 q 421 528 415 560 q 441 611 428 560 q 472 708 454 663 l 596 1014 l 813 1014 l 521 361 l 521 0 l 313 0 m 132 1125 l 319 1319 l 514 1319 l 701 1125 l 514 1125 l 414 1222 l 321 1125 l 132 1125 z "},"Ÿ":{"ha":833,"x_min":21,"x_max":813,"o":"m 313 0 l 313 361 l 21 1014 l 239 1014 l 367 708 q 401 611 386 663 q 421 528 415 560 q 441 611 428 560 q 472 708 454 663 l 596 1014 l 813 1014 l 521 361 l 521 0 l 313 0 m 586 1114 q 505 1143 535 1114 q 475 1222 475 1172 q 505 1301 475 1272 q 586 1331 535 1331 q 667 1301 638 1331 q 697 1222 697 1272 q 667 1143 697 1172 q 586 1114 638 1114 m 247 1114 q 166 1143 196 1114 q 136 1222 136 1172 q 166 1301 136 1272 q 247 1331 196 1331 q 328 1301 299 1331 q 358 1222 358 1272 q 328 1143 358 1172 q 247 1114 299 1114 z "},"Ỵ":{"ha":833,"x_min":21,"x_max":813,"o":"m 313 0 l 313 361 l 21 1014 l 239 1014 l 367 708 q 401 611 386 663 q 421 528 415 560 q 441 611 428 560 q 472 708 454 663 l 596 1014 l 813 1014 l 521 361 l 521 0 l 313 0 m 417 -324 q 326 -294 360 -324 q 292 -215 292 -265 q 326 -136 292 -165 q 417 -107 360 -107 q 508 -136 474 -107 q 542 -215 542 -165 q 508 -294 542 -265 q 417 -324 474 -324 z "},"Ỳ":{"ha":833,"x_min":21,"x_max":813,"o":"m 313 0 l 313 361 l 21 1014 l 239 1014 l 367 708 q 401 611 386 663 q 421 528 415 560 q 441 611 428 560 q 472 708 454 663 l 596 1014 l 813 1014 l 521 361 l 521 0 l 313 0 m 329 1125 l 167 1319 l 396 1319 l 542 1125 l 329 1125 z "},"Ỷ":{"ha":833,"x_min":21,"x_max":813,"o":"m 313 0 l 313 361 l 21 1014 l 239 1014 l 367 708 q 401 611 386 663 q 421 528 415 560 q 441 611 428 560 q 472 708 454 663 l 596 1014 l 813 1014 l 521 361 l 521 0 l 313 0 m 338 1106 l 406 1186 q 426 1226 426 1211 q 389 1250 426 1250 l 278 1250 l 278 1368 l 424 1368 q 529 1335 489 1368 q 569 1249 569 1303 q 539 1164 569 1201 l 490 1106 l 338 1106 z "},"Ȳ":{"ha":833,"x_min":21,"x_max":813,"o":"m 313 0 l 313 361 l 21 1014 l 239 1014 l 367 708 q 401 611 386 663 q 421 528 415 560 q 441 611 428 560 q 472 708 454 663 l 596 1014 l 813 1014 l 521 361 l 521 0 l 313 0 m 167 1139 l 167 1292 l 667 1292 l 667 1139 l 167 1139 z "},"Ỹ":{"ha":833,"x_min":21,"x_max":813,"o":"m 313 0 l 313 361 l 21 1014 l 239 1014 l 367 708 q 401 611 386 663 q 421 528 415 560 q 441 611 428 560 q 472 708 454 663 l 596 1014 l 813 1014 l 521 361 l 521 0 l 313 0 m 514 1111 q 442 1124 469 1111 q 397 1153 415 1136 q 363 1182 379 1169 q 326 1194 347 1194 q 297 1182 308 1194 q 285 1149 285 1169 l 285 1118 l 167 1118 l 167 1167 q 209 1286 167 1239 q 319 1333 251 1333 q 391 1321 364 1333 q 436 1292 418 1308 q 470 1263 454 1275 q 507 1250 486 1250 q 549 1289 549 1250 l 549 1326 l 667 1326 l 667 1278 q 625 1158 667 1206 q 514 1111 583 1111 z "},"Z":{"ha":833,"x_min":104,"x_max":729,"o":"m 104 0 l 104 188 l 476 826 l 115 826 l 115 1014 l 714 1014 l 714 826 l 340 188 l 729 188 l 729 0 l 104 0 z "},"Ź":{"ha":833,"x_min":104,"x_max":729,"o":"m 104 0 l 104 188 l 476 826 l 115 826 l 115 1014 l 714 1014 l 714 826 l 340 188 l 729 188 l 729 0 l 104 0 m 294 1125 l 440 1319 l 664 1319 l 501 1125 l 294 1125 z "},"Ž":{"ha":833,"x_min":104,"x_max":729,"o":"m 104 0 l 104 188 l 476 826 l 115 826 l 115 1014 l 714 1014 l 714 826 l 340 188 l 729 188 l 729 0 l 104 0 m 319 1125 l 132 1319 l 319 1319 l 419 1222 l 513 1319 l 701 1319 l 514 1125 l 319 1125 z "},"Ż":{"ha":833,"x_min":104,"x_max":729,"o":"m 104 0 l 104 188 l 476 826 l 115 826 l 115 1014 l 714 1014 l 714 826 l 340 188 l 729 188 l 729 0 l 104 0 m 417 1114 q 326 1143 360 1114 q 292 1222 292 1172 q 326 1301 292 1272 q 417 1331 360 1331 q 508 1301 474 1331 q 542 1222 542 1272 q 508 1143 542 1172 q 417 1114 474 1114 z "},"a":{"ha":833,"x_min":68,"x_max":744,"o":"m 318 -14 q 135 49 203 -14 q 68 218 68 111 q 151 397 68 335 q 390 458 235 458 l 536 458 l 536 514 q 504 585 536 560 q 415 610 472 610 q 327 588 360 610 q 294 528 294 565 l 100 528 q 190 710 103 643 q 424 778 278 778 q 658 708 572 778 q 744 514 744 638 l 744 0 l 543 0 l 543 118 l 539 118 q 463 21 519 56 q 318 -14 406 -14 m 396 138 q 497 169 457 138 q 536 254 536 201 l 536 335 l 394 335 q 308 309 339 335 q 276 238 276 283 q 308 164 276 190 q 396 138 340 138 z "},"á":{"ha":833,"x_min":68,"x_max":744,"o":"m 318 -14 q 135 49 203 -14 q 68 218 68 111 q 151 397 68 335 q 390 458 235 458 l 536 458 l 536 514 q 504 585 536 560 q 415 610 472 610 q 327 588 360 610 q 294 528 294 565 l 100 528 q 190 710 103 643 q 424 778 278 778 q 658 708 572 778 q 744 514 744 638 l 744 0 l 543 0 l 543 118 l 539 118 q 463 21 519 56 q 318 -14 406 -14 m 396 138 q 497 169 457 138 q 536 254 536 201 l 536 335 l 394 335 q 308 309 339 335 q 276 238 276 283 q 308 164 276 190 q 396 138 340 138 m 301 896 l 447 1090 l 671 1090 l 508 896 l 301 896 z "},"ă":{"ha":833,"x_min":68,"x_max":744,"o":"m 318 -14 q 135 49 203 -14 q 68 218 68 111 q 151 397 68 335 q 390 458 235 458 l 536 458 l 536 514 q 504 585 536 560 q 415 610 472 610 q 327 588 360 610 q 294 528 294 565 l 100 528 q 190 710 103 643 q 424 778 278 778 q 658 708 572 778 q 744 514 744 638 l 744 0 l 543 0 l 543 118 l 539 118 q 463 21 519 56 q 318 -14 406 -14 m 396 138 q 497 169 457 138 q 536 254 536 201 l 536 335 l 394 335 q 308 309 339 335 q 276 238 276 283 q 308 164 276 190 q 396 138 340 138 m 424 882 q 238 940 310 882 q 167 1090 167 997 l 326 1090 q 353 1027 326 1051 q 424 1003 381 1003 q 494 1027 468 1003 q 521 1090 521 1051 l 681 1090 q 610 940 681 997 q 424 882 539 882 z "},"ắ":{"ha":833,"x_min":68,"x_max":744,"o":"m 318 -14 q 135 49 203 -14 q 68 218 68 111 q 151 397 68 335 q 390 458 235 458 l 536 458 l 536 514 q 504 585 536 560 q 415 610 472 610 q 327 588 360 610 q 294 528 294 565 l 100 528 q 190 710 103 643 q 424 778 278 778 q 658 708 572 778 q 744 514 744 638 l 744 0 l 543 0 l 543 118 l 539 118 q 463 21 519 56 q 318 -14 406 -14 m 396 138 q 497 169 457 138 q 536 254 536 201 l 536 335 l 394 335 q 308 309 339 335 q 276 238 276 283 q 308 164 276 190 q 396 138 340 138 m 333 1097 l 493 1292 l 674 1292 l 500 1097 l 333 1097 m 424 889 q 239 942 311 889 q 167 1083 167 996 l 319 1083 q 347 1032 319 1050 q 422 1014 374 1014 q 528 1083 528 1014 l 681 1083 q 608 942 681 996 q 424 889 536 889 z "},"ặ":{"ha":833,"x_min":68,"x_max":744,"o":"m 318 -14 q 135 49 203 -14 q 68 218 68 111 q 151 397 68 335 q 390 458 235 458 l 536 458 l 536 514 q 504 585 536 560 q 415 610 472 610 q 327 588 360 610 q 294 528 294 565 l 100 528 q 190 710 103 643 q 424 778 278 778 q 658 708 572 778 q 744 514 744 638 l 744 0 l 543 0 l 543 118 l 539 118 q 463 21 519 56 q 318 -14 406 -14 m 396 138 q 497 169 457 138 q 536 254 536 201 l 536 335 l 394 335 q 308 309 339 335 q 276 238 276 283 q 308 164 276 190 q 396 138 340 138 m 424 -324 q 333 -294 367 -324 q 299 -215 299 -265 q 333 -136 299 -165 q 424 -107 367 -107 q 515 -136 481 -107 q 549 -215 549 -165 q 515 -294 549 -265 q 424 -324 481 -324 m 424 882 q 238 940 310 882 q 167 1090 167 997 l 326 1090 q 353 1027 326 1051 q 424 1003 381 1003 q 494 1027 468 1003 q 521 1090 521 1051 l 681 1090 q 610 940 681 997 q 424 882 539 882 z "},"ằ":{"ha":833,"x_min":68,"x_max":744,"o":"m 318 -14 q 135 49 203 -14 q 68 218 68 111 q 151 397 68 335 q 390 458 235 458 l 536 458 l 536 514 q 504 585 536 560 q 415 610 472 610 q 327 588 360 610 q 294 528 294 565 l 100 528 q 190 710 103 643 q 424 778 278 778 q 658 708 572 778 q 744 514 744 638 l 744 0 l 543 0 l 543 118 l 539 118 q 463 21 519 56 q 318 -14 406 -14 m 396 138 q 497 169 457 138 q 536 254 536 201 l 536 335 l 394 335 q 308 309 339 335 q 276 238 276 283 q 308 164 276 190 q 396 138 340 138 m 347 1097 l 174 1292 l 354 1292 l 514 1097 l 347 1097 m 424 889 q 239 942 311 889 q 167 1083 167 996 l 319 1083 q 347 1032 319 1050 q 422 1014 374 1014 q 528 1083 528 1014 l 681 1083 q 608 942 681 996 q 424 889 536 889 z "},"ẳ":{"ha":833,"x_min":68,"x_max":744,"o":"m 318 -14 q 135 49 203 -14 q 68 218 68 111 q 151 397 68 335 q 390 458 235 458 l 536 458 l 536 514 q 504 585 536 560 q 415 610 472 610 q 327 588 360 610 q 294 528 294 565 l 100 528 q 190 710 103 643 q 424 778 278 778 q 658 708 572 778 q 744 514 744 638 l 744 0 l 543 0 l 543 118 l 539 118 q 463 21 519 56 q 318 -14 406 -14 m 396 138 q 497 169 457 138 q 536 254 536 201 l 536 335 l 394 335 q 308 309 339 335 q 276 238 276 283 q 308 164 276 190 q 396 138 340 138 m 339 1097 l 403 1171 q 424 1211 424 1196 q 388 1236 424 1236 l 285 1236 l 285 1354 l 421 1354 q 527 1321 486 1354 q 568 1235 568 1288 q 536 1149 568 1185 l 492 1097 l 339 1097 m 424 889 q 239 942 311 889 q 167 1083 167 996 l 319 1083 q 347 1032 319 1050 q 422 1014 374 1014 q 528 1083 528 1014 l 681 1083 q 608 942 681 996 q 424 889 536 889 z "},"ẵ":{"ha":833,"x_min":68,"x_max":744,"o":"m 318 -14 q 135 49 203 -14 q 68 218 68 111 q 151 397 68 335 q 390 458 235 458 l 536 458 l 536 514 q 504 585 536 560 q 415 610 472 610 q 327 588 360 610 q 294 528 294 565 l 100 528 q 190 710 103 643 q 424 778 278 778 q 658 708 572 778 q 744 514 744 638 l 744 0 l 543 0 l 543 118 l 539 118 q 463 21 519 56 q 318 -14 406 -14 m 396 138 q 497 169 457 138 q 536 254 536 201 l 536 335 l 394 335 q 308 309 339 335 q 276 238 276 283 q 308 164 276 190 q 396 138 340 138 m 521 1118 q 449 1133 476 1118 q 404 1167 422 1147 q 370 1201 386 1186 q 333 1215 354 1215 q 303 1203 315 1215 q 292 1169 292 1190 l 292 1125 l 174 1125 l 174 1174 q 216 1290 174 1246 q 326 1333 258 1333 q 398 1319 371 1333 q 443 1285 425 1304 q 477 1251 461 1265 q 514 1236 493 1236 q 556 1275 556 1236 l 556 1326 l 674 1326 l 674 1278 q 632 1162 674 1206 q 521 1118 590 1118 m 424 889 q 239 942 311 889 q 167 1083 167 996 l 319 1083 q 347 1032 319 1050 q 422 1014 374 1014 q 528 1083 528 1014 l 681 1083 q 608 942 681 996 q 424 889 536 889 z "},"ǎ":{"ha":833,"x_min":68,"x_max":744,"o":"m 318 -14 q 135 49 203 -14 q 68 218 68 111 q 151 397 68 335 q 390 458 235 458 l 536 458 l 536 514 q 504 585 536 560 q 415 610 472 610 q 327 588 360 610 q 294 528 294 565 l 100 528 q 190 710 103 643 q 424 778 278 778 q 658 708 572 778 q 744 514 744 638 l 744 0 l 543 0 l 543 118 l 539 118 q 463 21 519 56 q 318 -14 406 -14 m 396 138 q 497 169 457 138 q 536 254 536 201 l 536 335 l 394 335 q 308 309 339 335 q 276 238 276 283 q 308 164 276 190 q 396 138 340 138 m 326 896 l 139 1090 l 326 1090 l 426 993 l 519 1090 l 708 1090 l 521 896 l 326 896 z "},"â":{"ha":833,"x_min":68,"x_max":744,"o":"m 318 -14 q 135 49 203 -14 q 68 218 68 111 q 151 397 68 335 q 390 458 235 458 l 536 458 l 536 514 q 504 585 536 560 q 415 610 472 610 q 327 588 360 610 q 294 528 294 565 l 100 528 q 190 710 103 643 q 424 778 278 778 q 658 708 572 778 q 744 514 744 638 l 744 0 l 543 0 l 543 118 l 539 118 q 463 21 519 56 q 318 -14 406 -14 m 396 138 q 497 169 457 138 q 536 254 536 201 l 536 335 l 394 335 q 308 309 339 335 q 276 238 276 283 q 308 164 276 190 q 396 138 340 138 m 139 896 l 326 1090 l 521 1090 l 708 896 l 521 896 l 421 993 l 328 896 l 139 896 z "},"ấ":{"ha":833,"x_min":68,"x_max":958,"o":"m 318 -14 q 135 49 203 -14 q 68 218 68 111 q 151 397 68 335 q 390 458 235 458 l 536 458 l 536 514 q 504 585 536 560 q 415 610 472 610 q 327 588 360 610 q 294 528 294 565 l 100 528 q 190 710 103 643 q 424 778 278 778 q 658 708 572 778 q 744 514 744 638 l 744 0 l 543 0 l 543 118 l 539 118 q 463 21 519 56 q 318 -14 406 -14 m 396 138 q 497 169 457 138 q 536 254 536 201 l 536 335 l 394 335 q 308 309 339 335 q 276 238 276 283 q 308 164 276 190 q 396 138 340 138 m 590 1056 l 757 1250 l 958 1250 l 778 1056 l 590 1056 m 139 896 l 326 1090 l 521 1090 l 708 896 l 519 896 l 424 993 l 328 896 l 139 896 z "},"ậ":{"ha":833,"x_min":68,"x_max":744,"o":"m 318 -14 q 135 49 203 -14 q 68 218 68 111 q 151 397 68 335 q 390 458 235 458 l 536 458 l 536 514 q 504 585 536 560 q 415 610 472 610 q 327 588 360 610 q 294 528 294 565 l 100 528 q 190 710 103 643 q 424 778 278 778 q 658 708 572 778 q 744 514 744 638 l 744 0 l 543 0 l 543 118 l 539 118 q 463 21 519 56 q 318 -14 406 -14 m 396 138 q 497 169 457 138 q 536 254 536 201 l 536 335 l 394 335 q 308 309 339 335 q 276 238 276 283 q 308 164 276 190 q 396 138 340 138 m 424 -324 q 333 -294 367 -324 q 299 -215 299 -265 q 333 -136 299 -165 q 424 -107 367 -107 q 515 -136 481 -107 q 549 -215 549 -165 q 515 -294 549 -265 q 424 -324 481 -324 m 139 896 l 326 1090 l 521 1090 l 708 896 l 521 896 l 421 993 l 328 896 l 139 896 z "},"ầ":{"ha":833,"x_min":68,"x_max":854,"o":"m 318 -14 q 135 49 203 -14 q 68 218 68 111 q 151 397 68 335 q 390 458 235 458 l 536 458 l 536 514 q 504 585 536 560 q 415 610 472 610 q 327 588 360 610 q 294 528 294 565 l 100 528 q 190 710 103 643 q 424 778 278 778 q 658 708 572 778 q 744 514 744 638 l 744 0 l 543 0 l 543 118 l 539 118 q 463 21 519 56 q 318 -14 406 -14 m 396 138 q 497 169 457 138 q 536 254 536 201 l 536 335 l 394 335 q 308 309 339 335 q 276 238 276 283 q 308 164 276 190 q 396 138 340 138 m 667 1056 l 486 1250 l 688 1250 l 854 1056 l 667 1056 m 139 896 l 326 1090 l 521 1090 l 708 896 l 519 896 l 424 993 l 328 896 l 139 896 z "},"ẩ":{"ha":833,"x_min":68,"x_max":826,"o":"m 318 -14 q 135 49 203 -14 q 68 218 68 111 q 151 397 68 335 q 390 458 235 458 l 536 458 l 536 514 q 504 585 536 560 q 415 610 472 610 q 327 588 360 610 q 294 528 294 565 l 100 528 q 190 710 103 643 q 424 778 278 778 q 658 708 572 778 q 744 514 744 638 l 744 0 l 543 0 l 543 118 l 539 118 q 463 21 519 56 q 318 -14 406 -14 m 396 138 q 497 169 457 138 q 536 254 536 201 l 536 335 l 394 335 q 308 309 339 335 q 276 238 276 283 q 308 164 276 190 q 396 138 340 138 m 594 1056 l 663 1136 q 683 1176 683 1161 q 646 1200 683 1200 l 535 1200 l 535 1318 l 681 1318 q 786 1285 746 1318 q 826 1199 826 1253 q 796 1114 826 1151 l 747 1056 l 594 1056 m 139 896 l 326 1090 l 521 1090 l 708 896 l 519 896 l 424 993 l 328 896 l 139 896 z "},"ẫ":{"ha":833,"x_min":68,"x_max":744,"o":"m 318 -14 q 135 49 203 -14 q 68 218 68 111 q 151 397 68 335 q 390 458 235 458 l 536 458 l 536 514 q 504 585 536 560 q 415 610 472 610 q 327 588 360 610 q 294 528 294 565 l 100 528 q 190 710 103 643 q 424 778 278 778 q 658 708 572 778 q 744 514 744 638 l 744 0 l 543 0 l 543 118 l 539 118 q 463 21 519 56 q 318 -14 406 -14 m 396 138 q 497 169 457 138 q 536 254 536 201 l 536 335 l 394 335 q 308 309 339 335 q 276 238 276 283 q 308 164 276 190 q 396 138 340 138 m 521 1147 q 449 1160 476 1147 q 404 1188 422 1172 q 370 1217 386 1204 q 333 1229 354 1229 q 303 1217 315 1229 q 292 1183 292 1204 l 292 1153 l 174 1153 l 174 1188 q 216 1303 174 1260 q 326 1347 258 1347 q 398 1335 371 1347 q 443 1306 425 1322 q 477 1278 461 1290 q 514 1265 493 1265 q 556 1304 556 1265 l 556 1339 l 674 1339 l 674 1307 q 632 1191 674 1235 q 521 1147 590 1147 m 139 896 l 326 1090 l 521 1090 l 708 896 l 519 896 l 424 993 l 328 896 l 139 896 z "},"ä":{"ha":833,"x_min":68,"x_max":744,"o":"m 318 -14 q 135 49 203 -14 q 68 218 68 111 q 151 397 68 335 q 390 458 235 458 l 536 458 l 536 514 q 504 585 536 560 q 415 610 472 610 q 327 588 360 610 q 294 528 294 565 l 100 528 q 190 710 103 643 q 424 778 278 778 q 658 708 572 778 q 744 514 744 638 l 744 0 l 543 0 l 543 118 l 539 118 q 463 21 519 56 q 318 -14 406 -14 m 396 138 q 497 169 457 138 q 536 254 536 201 l 536 335 l 394 335 q 308 309 339 335 q 276 238 276 283 q 308 164 276 190 q 396 138 340 138 m 593 885 q 512 914 542 885 q 482 993 482 943 q 512 1072 482 1043 q 593 1101 542 1101 q 674 1072 644 1101 q 704 993 704 1043 q 674 914 704 943 q 593 885 644 885 m 254 885 q 173 914 203 885 q 143 993 143 943 q 173 1072 143 1043 q 254 1101 203 1101 q 335 1072 306 1101 q 365 993 365 1043 q 335 914 365 943 q 254 885 306 885 z "},"ạ":{"ha":833,"x_min":68,"x_max":744,"o":"m 318 -14 q 135 49 203 -14 q 68 218 68 111 q 151 397 68 335 q 390 458 235 458 l 536 458 l 536 514 q 504 585 536 560 q 415 610 472 610 q 327 588 360 610 q 294 528 294 565 l 100 528 q 190 710 103 643 q 424 778 278 778 q 658 708 572 778 q 744 514 744 638 l 744 0 l 543 0 l 543 118 l 539 118 q 463 21 519 56 q 318 -14 406 -14 m 396 138 q 497 169 457 138 q 536 254 536 201 l 536 335 l 394 335 q 308 309 339 335 q 276 238 276 283 q 308 164 276 190 q 396 138 340 138 m 424 -324 q 333 -294 367 -324 q 299 -215 299 -265 q 333 -136 299 -165 q 424 -107 367 -107 q 515 -136 481 -107 q 549 -215 549 -165 q 515 -294 549 -265 q 424 -324 481 -324 z "},"à":{"ha":833,"x_min":68,"x_max":744,"o":"m 318 -14 q 135 49 203 -14 q 68 218 68 111 q 151 397 68 335 q 390 458 235 458 l 536 458 l 536 514 q 504 585 536 560 q 415 610 472 610 q 327 588 360 610 q 294 528 294 565 l 100 528 q 190 710 103 643 q 424 778 278 778 q 658 708 572 778 q 744 514 744 638 l 744 0 l 543 0 l 543 118 l 539 118 q 463 21 519 56 q 318 -14 406 -14 m 396 138 q 497 169 457 138 q 536 254 536 201 l 536 335 l 394 335 q 308 309 339 335 q 276 238 276 283 q 308 164 276 190 q 396 138 340 138 m 336 896 l 174 1090 l 403 1090 l 549 896 l 336 896 z "},"ả":{"ha":833,"x_min":68,"x_max":744,"o":"m 318 -14 q 135 49 203 -14 q 68 218 68 111 q 151 397 68 335 q 390 458 235 458 l 536 458 l 536 514 q 504 585 536 560 q 415 610 472 610 q 327 588 360 610 q 294 528 294 565 l 100 528 q 190 710 103 643 q 424 778 278 778 q 658 708 572 778 q 744 514 744 638 l 744 0 l 543 0 l 543 118 l 539 118 q 463 21 519 56 q 318 -14 406 -14 m 396 138 q 497 169 457 138 q 536 254 536 201 l 536 335 l 394 335 q 308 309 339 335 q 276 238 276 283 q 308 164 276 190 q 396 138 340 138 m 344 896 l 413 976 q 433 1017 433 1001 q 396 1040 433 1040 l 285 1040 l 285 1158 l 431 1158 q 536 1126 496 1158 q 576 1039 576 1093 q 546 954 576 992 l 497 896 l 344 896 z "},"ā":{"ha":833,"x_min":68,"x_max":744,"o":"m 318 -14 q 135 49 203 -14 q 68 218 68 111 q 151 397 68 335 q 390 458 235 458 l 536 458 l 536 514 q 504 585 536 560 q 415 610 472 610 q 327 588 360 610 q 294 528 294 565 l 100 528 q 190 710 103 643 q 424 778 278 778 q 658 708 572 778 q 744 514 744 638 l 744 0 l 543 0 l 543 118 l 539 118 q 463 21 519 56 q 318 -14 406 -14 m 396 138 q 497 169 457 138 q 536 254 536 201 l 536 335 l 394 335 q 308 309 339 335 q 276 238 276 283 q 308 164 276 190 q 396 138 340 138 m 174 910 l 174 1063 l 674 1063 l 674 910 l 174 910 z "},"ą":{"ha":833,"x_min":68,"x_max":819,"o":"m 318 -14 q 135 49 203 -14 q 68 218 68 111 q 151 397 68 335 q 390 458 235 458 l 536 458 l 536 514 q 504 585 536 560 q 415 610 472 610 q 327 588 360 610 q 294 528 294 565 l 100 528 q 190 710 103 643 q 424 778 278 778 q 658 708 572 778 q 744 514 744 638 l 744 0 q 678 -70 697 -43 q 660 -115 660 -97 q 676 -151 660 -136 q 724 -167 693 -167 l 819 -167 l 819 -312 l 669 -312 q 536 -270 585 -312 q 488 -160 488 -228 q 520 -74 488 -117 q 611 0 553 -32 l 543 0 l 543 118 l 539 118 q 463 21 519 56 q 318 -14 406 -14 m 396 138 q 497 169 457 138 q 536 254 536 201 l 536 335 l 394 335 q 308 309 339 335 q 276 238 276 283 q 308 164 276 190 q 396 138 340 138 z "},"å":{"ha":833,"x_min":68,"x_max":744,"o":"m 318 -14 q 135 49 203 -14 q 68 218 68 111 q 151 397 68 335 q 390 458 235 458 l 536 458 l 536 514 q 504 585 536 560 q 415 610 472 610 q 327 588 360 610 q 294 528 294 565 l 100 528 q 190 710 103 643 q 424 778 278 778 q 658 708 572 778 q 744 514 744 638 l 744 0 l 543 0 l 543 118 l 539 118 q 463 21 519 56 q 318 -14 406 -14 m 396 138 q 497 169 457 138 q 536 254 536 201 l 536 335 l 394 335 q 308 309 339 335 q 276 238 276 283 q 308 164 276 190 q 396 138 340 138 m 424 832 q 283 881 336 832 q 229 1008 229 929 q 283 1136 229 1088 q 424 1185 336 1185 q 565 1136 511 1185 q 618 1008 618 1088 q 565 881 618 929 q 424 832 511 832 m 424 929 q 484 951 461 929 q 507 1008 507 974 q 484 1066 507 1044 q 424 1088 461 1088 q 363 1066 386 1088 q 340 1008 340 1044 q 363 951 340 974 q 424 929 386 929 z "},"ã":{"ha":833,"x_min":68,"x_max":744,"o":"m 318 -14 q 135 49 203 -14 q 68 218 68 111 q 151 397 68 335 q 390 458 235 458 l 536 458 l 536 514 q 504 585 536 560 q 415 610 472 610 q 327 588 360 610 q 294 528 294 565 l 100 528 q 190 710 103 643 q 424 778 278 778 q 658 708 572 778 q 744 514 744 638 l 744 0 l 543 0 l 543 118 l 539 118 q 463 21 519 56 q 318 -14 406 -14 m 396 138 q 497 169 457 138 q 536 254 536 201 l 536 335 l 394 335 q 308 309 339 335 q 276 238 276 283 q 308 164 276 190 q 396 138 340 138 m 521 882 q 449 894 476 882 q 404 924 422 907 q 370 953 386 940 q 333 965 354 965 q 303 953 315 965 q 292 919 292 940 l 292 889 l 174 889 l 174 938 q 216 1057 174 1010 q 326 1104 258 1104 q 398 1092 371 1104 q 443 1063 425 1079 q 477 1033 461 1046 q 514 1021 493 1021 q 556 1060 556 1021 l 556 1097 l 674 1097 l 674 1049 q 632 929 674 976 q 521 882 590 882 z "},"æ":{"ha":833,"x_min":49,"x_max":785,"o":"m 239 -14 q 101 44 154 -14 q 49 194 49 101 l 49 264 q 112 405 49 351 q 278 458 175 458 l 338 458 l 338 569 q 322 624 338 604 q 276 643 306 643 q 208 556 208 643 l 49 556 q 104 717 49 656 q 251 778 160 778 q 338 761 304 778 q 390 720 372 744 q 411 674 408 696 l 422 674 q 444 720 426 696 q 496 761 461 744 q 583 778 531 778 q 729 721 674 778 q 785 569 785 664 l 785 347 l 496 347 l 496 194 q 513 140 496 160 q 561 121 531 121 q 625 194 625 121 l 785 194 q 729 44 785 101 q 583 -14 674 -14 q 496 3 531 -14 q 444 44 461 19 q 422 90 426 68 l 411 90 q 388 44 407 68 q 332 3 368 19 q 239 -14 296 -14 m 496 458 l 625 458 l 625 569 q 561 643 625 643 q 513 624 531 643 q 496 569 496 604 l 496 458 m 276 121 q 322 140 306 121 q 338 194 338 160 l 338 347 l 278 347 q 227 326 246 347 q 208 264 208 304 l 208 194 q 226 140 208 160 q 276 121 244 121 z "},"ǽ":{"ha":833,"x_min":49,"x_max":785,"o":"m 239 -14 q 101 44 154 -14 q 49 194 49 101 l 49 264 q 112 405 49 351 q 278 458 175 458 l 338 458 l 338 569 q 322 624 338 604 q 276 643 306 643 q 208 556 208 643 l 49 556 q 104 717 49 656 q 251 778 160 778 q 338 761 304 778 q 390 720 372 744 q 411 674 408 696 l 422 674 q 444 720 426 696 q 496 761 461 744 q 583 778 531 778 q 729 721 674 778 q 785 569 785 664 l 785 347 l 496 347 l 496 194 q 513 140 496 160 q 561 121 531 121 q 625 194 625 121 l 785 194 q 729 44 785 101 q 583 -14 674 -14 q 496 3 531 -14 q 444 44 461 19 q 422 90 426 68 l 411 90 q 388 44 407 68 q 332 3 368 19 q 239 -14 296 -14 m 496 458 l 625 458 l 625 569 q 561 643 625 643 q 513 624 531 643 q 496 569 496 604 l 496 458 m 276 121 q 322 140 306 121 q 338 194 338 160 l 338 347 l 278 347 q 227 326 246 347 q 208 264 208 304 l 208 194 q 226 140 208 160 q 276 121 244 121 m 294 896 l 440 1090 l 664 1090 l 501 896 l 294 896 z "},"b":{"ha":833,"x_min":92,"x_max":750,"o":"m 496 -14 q 363 24 417 -14 q 293 132 310 63 l 293 0 l 92 0 l 92 1014 l 300 1014 l 300 806 l 293 633 q 365 740 311 703 q 496 778 418 778 q 681 697 611 778 q 750 479 750 615 l 750 285 q 681 67 750 147 q 496 -14 611 -14 m 421 167 q 510 199 479 167 q 542 292 542 232 l 542 472 q 510 565 542 532 q 421 597 479 597 q 332 565 364 597 q 300 472 300 532 l 300 292 q 332 199 300 232 q 421 167 364 167 z "},"c":{"ha":833,"x_min":83,"x_max":758,"o":"m 421 -14 q 243 24 319 -14 q 125 131 167 63 q 83 292 83 200 l 83 472 q 125 633 83 565 q 243 740 167 701 q 421 778 319 778 q 663 701 572 778 q 758 493 753 625 l 556 493 q 515 569 551 542 q 421 597 478 597 q 325 565 358 597 q 292 472 292 533 l 292 292 q 325 199 292 232 q 421 167 358 167 q 515 194 478 167 q 556 271 551 221 l 758 271 q 663 63 753 139 q 421 -14 572 -14 z "},"ć":{"ha":833,"x_min":83,"x_max":758,"o":"m 421 -14 q 243 24 319 -14 q 125 131 167 63 q 83 292 83 200 l 83 472 q 125 633 83 565 q 243 740 167 701 q 421 778 319 778 q 663 701 572 778 q 758 493 753 625 l 556 493 q 515 569 551 542 q 421 597 478 597 q 325 565 358 597 q 292 472 292 533 l 292 292 q 325 199 292 232 q 421 167 358 167 q 515 194 478 167 q 556 271 551 221 l 758 271 q 663 63 753 139 q 421 -14 572 -14 m 299 896 l 444 1090 l 668 1090 l 506 896 l 299 896 z "},"č":{"ha":833,"x_min":83,"x_max":758,"o":"m 421 -14 q 243 24 319 -14 q 125 131 167 63 q 83 292 83 200 l 83 472 q 125 633 83 565 q 243 740 167 701 q 421 778 319 778 q 663 701 572 778 q 758 493 753 625 l 556 493 q 515 569 551 542 q 421 597 478 597 q 325 565 358 597 q 292 472 292 533 l 292 292 q 325 199 292 232 q 421 167 358 167 q 515 194 478 167 q 556 271 551 221 l 758 271 q 663 63 753 139 q 421 -14 572 -14 m 324 896 l 136 1090 l 324 1090 l 424 993 l 517 1090 l 706 1090 l 518 896 l 324 896 z "},"ç":{"ha":833,"x_min":83,"x_max":758,"o":"m 268 -312 l 268 -215 l 379 -215 q 435 -199 414 -215 q 456 -165 456 -182 q 413 -115 456 -133 q 294 -96 371 -96 l 332 -6 q 150 96 217 17 q 83 292 83 175 l 83 472 q 125 633 83 565 q 243 740 167 701 q 421 778 319 778 q 663 701 572 778 q 758 493 753 625 l 556 493 q 515 569 551 542 q 421 597 478 597 q 325 565 358 597 q 292 472 292 533 l 292 292 q 325 199 292 232 q 421 167 358 167 q 515 194 478 167 q 556 271 551 221 l 758 271 q 665 65 753 142 q 432 -14 578 -11 l 418 -54 q 506 -72 461 -57 q 583 -114 551 -86 q 615 -185 615 -142 q 562 -274 615 -236 q 421 -312 508 -312 l 268 -312 z "},"ĉ":{"ha":833,"x_min":83,"x_max":758,"o":"m 421 -14 q 243 24 319 -14 q 125 131 167 63 q 83 292 83 200 l 83 472 q 125 633 83 565 q 243 740 167 701 q 421 778 319 778 q 663 701 572 778 q 758 493 753 625 l 556 493 q 515 569 551 542 q 421 597 478 597 q 325 565 358 597 q 292 472 292 533 l 292 292 q 325 199 292 232 q 421 167 358 167 q 515 194 478 167 q 556 271 551 221 l 758 271 q 663 63 753 139 q 421 -14 572 -14 m 136 896 l 324 1090 l 518 1090 l 706 896 l 518 896 l 418 993 l 325 896 l 136 896 z "},"ċ":{"ha":833,"x_min":83,"x_max":758,"o":"m 421 -14 q 243 24 319 -14 q 125 131 167 63 q 83 292 83 200 l 83 472 q 125 633 83 565 q 243 740 167 701 q 421 778 319 778 q 663 701 572 778 q 758 493 753 625 l 556 493 q 515 569 551 542 q 421 597 478 597 q 325 565 358 597 q 292 472 292 533 l 292 292 q 325 199 292 232 q 421 167 358 167 q 515 194 478 167 q 556 271 551 221 l 758 271 q 663 63 753 139 q 421 -14 572 -14 m 421 885 q 330 914 364 885 q 296 993 296 943 q 330 1072 296 1043 q 421 1101 364 1101 q 512 1072 478 1101 q 546 993 546 1043 q 512 914 546 943 q 421 885 478 885 z "},"d":{"ha":833,"x_min":83,"x_max":742,"o":"m 331 -14 q 152 67 221 -14 q 83 285 83 149 l 83 479 q 152 697 83 615 q 331 778 221 778 q 458 740 406 778 q 536 632 511 701 l 540 632 l 533 806 l 533 1014 l 742 1014 l 742 0 l 540 0 l 540 132 l 536 132 q 458 24 511 63 q 331 -14 406 -14 m 411 167 q 502 201 471 167 q 533 299 533 235 l 533 465 q 502 563 533 529 q 411 597 471 597 q 323 565 354 597 q 292 472 292 533 l 292 292 q 323 199 292 232 q 411 167 354 167 z "},"ð":{"ha":833,"x_min":56,"x_max":778,"o":"m 417 0 q 227 41 308 0 q 101 156 146 82 q 56 328 56 229 q 91 488 56 419 q 190 595 126 557 q 338 633 254 633 q 425 615 386 633 q 492 572 464 597 q 535 521 521 546 l 543 521 q 521 564 544 526 q 436 679 497 601 l 363 775 l 147 697 l 147 843 l 275 889 l 179 1014 l 411 1014 l 457 956 l 685 1038 l 685 892 l 546 842 l 619 746 q 742 537 706 635 q 778 349 778 439 q 733 163 778 242 q 608 42 689 85 q 417 0 528 0 m 417 174 q 528 215 486 174 q 569 326 569 257 q 528 438 569 396 q 417 479 486 479 q 306 438 347 479 q 264 326 264 396 q 306 215 264 257 q 417 174 347 174 z "},"ď":{"ha":833,"x_min":56,"x_max":854,"o":"m 701 764 l 701 1014 l 854 1014 l 840 764 l 701 764 m 282 -14 q 117 65 178 -14 q 56 278 56 143 l 56 488 q 117 699 56 621 q 282 778 178 778 q 397 735 351 778 q 453 618 442 693 l 457 618 l 450 806 l 450 1014 l 644 1014 l 644 0 l 457 0 l 457 146 l 453 146 q 397 28 442 71 q 282 -14 351 -14 m 357 153 q 426 188 401 153 q 450 285 450 222 l 450 481 q 426 576 450 542 q 357 611 401 611 q 278 576 307 611 q 250 481 250 542 l 250 285 q 278 188 250 222 q 357 153 307 153 z "},"đ":{"ha":833,"x_min":83,"x_max":833,"o":"m 338 -14 q 153 67 222 -14 q 83 285 83 147 l 83 396 q 153 613 83 532 q 338 694 222 694 q 472 653 419 694 q 536 535 524 611 l 540 535 l 533 722 l 533 771 l 333 771 l 333 896 l 533 896 l 533 1014 l 742 1014 l 742 896 l 833 896 l 833 771 l 742 771 l 742 0 l 540 0 l 540 146 l 536 146 q 472 28 524 69 q 338 -14 419 -14 m 413 167 q 501 199 469 167 q 533 292 533 232 l 533 389 q 501 481 533 449 q 413 514 469 514 q 323 481 354 514 q 292 389 292 449 l 292 292 q 323 199 292 232 q 413 167 354 167 z "},"e":{"ha":833,"x_min":83,"x_max":750,"o":"m 418 -14 q 241 24 317 -14 q 124 131 165 63 q 83 292 83 200 l 83 472 q 124 633 83 564 q 241 740 165 701 q 418 778 317 778 q 594 740 519 778 q 709 633 668 701 q 750 472 750 564 l 750 333 l 282 333 l 282 292 q 421 146 282 146 q 539 208 519 146 l 743 208 q 630 47 718 108 q 418 -14 542 -14 m 282 472 l 282 451 l 551 454 l 551 475 q 418 621 551 621 q 316 582 350 621 q 282 472 282 543 z "},"é":{"ha":833,"x_min":83,"x_max":750,"o":"m 418 -14 q 241 24 317 -14 q 124 131 165 63 q 83 292 83 200 l 83 472 q 124 633 83 564 q 241 740 165 701 q 418 778 317 778 q 594 740 519 778 q 709 633 668 701 q 750 472 750 564 l 750 333 l 282 333 l 282 292 q 421 146 282 146 q 539 208 519 146 l 743 208 q 630 47 718 108 q 418 -14 542 -14 m 282 472 l 282 451 l 551 454 l 551 475 q 418 621 551 621 q 316 582 350 621 q 282 472 282 543 m 294 896 l 440 1090 l 664 1090 l 501 896 l 294 896 z "},"ĕ":{"ha":833,"x_min":83,"x_max":750,"o":"m 418 -14 q 241 24 317 -14 q 124 131 165 63 q 83 292 83 200 l 83 472 q 124 633 83 564 q 241 740 165 701 q 418 778 317 778 q 594 740 519 778 q 709 633 668 701 q 750 472 750 564 l 750 333 l 282 333 l 282 292 q 421 146 282 146 q 539 208 519 146 l 743 208 q 630 47 718 108 q 418 -14 542 -14 m 282 472 l 282 451 l 551 454 l 551 475 q 418 621 551 621 q 316 582 350 621 q 282 472 282 543 m 417 882 q 231 940 303 882 q 160 1090 160 997 l 319 1090 q 347 1027 319 1051 q 417 1003 374 1003 q 488 1027 461 1003 q 514 1090 514 1051 l 674 1090 q 603 940 674 997 q 417 882 532 882 z "},"ě":{"ha":833,"x_min":83,"x_max":750,"o":"m 418 -14 q 241 24 317 -14 q 124 131 165 63 q 83 292 83 200 l 83 472 q 124 633 83 564 q 241 740 165 701 q 418 778 317 778 q 594 740 519 778 q 709 633 668 701 q 750 472 750 564 l 750 333 l 282 333 l 282 292 q 421 146 282 146 q 539 208 519 146 l 743 208 q 630 47 718 108 q 418 -14 542 -14 m 282 472 l 282 451 l 551 454 l 551 475 q 418 621 551 621 q 316 582 350 621 q 282 472 282 543 m 319 896 l 132 1090 l 319 1090 l 419 993 l 513 1090 l 701 1090 l 514 896 l 319 896 z "},"ê":{"ha":833,"x_min":83,"x_max":750,"o":"m 418 -14 q 241 24 317 -14 q 124 131 165 63 q 83 292 83 200 l 83 472 q 124 633 83 564 q 241 740 165 701 q 418 778 317 778 q 594 740 519 778 q 709 633 668 701 q 750 472 750 564 l 750 333 l 282 333 l 282 292 q 421 146 282 146 q 539 208 519 146 l 743 208 q 630 47 718 108 q 418 -14 542 -14 m 282 472 l 282 451 l 551 454 l 551 475 q 418 621 551 621 q 316 582 350 621 q 282 472 282 543 m 132 896 l 319 1090 l 514 1090 l 701 896 l 514 896 l 414 993 l 321 896 l 132 896 z "},"ế":{"ha":833,"x_min":83,"x_max":951,"o":"m 418 -14 q 241 24 317 -14 q 124 131 165 63 q 83 292 83 200 l 83 472 q 124 633 83 564 q 241 740 165 701 q 418 778 317 778 q 594 740 519 778 q 709 633 668 701 q 750 472 750 564 l 750 333 l 282 333 l 282 292 q 421 146 282 146 q 539 208 519 146 l 743 208 q 630 47 718 108 q 418 -14 542 -14 m 282 472 l 282 451 l 551 454 l 551 475 q 418 621 551 621 q 316 582 350 621 q 282 472 282 543 m 583 1056 l 750 1250 l 951 1250 l 771 1056 l 583 1056 m 132 896 l 319 1090 l 514 1090 l 701 896 l 513 896 l 417 993 l 321 896 l 132 896 z "},"ệ":{"ha":833,"x_min":83,"x_max":750,"o":"m 418 -14 q 241 24 317 -14 q 124 131 165 63 q 83 292 83 200 l 83 472 q 124 633 83 564 q 241 740 165 701 q 418 778 317 778 q 594 740 519 778 q 709 633 668 701 q 750 472 750 564 l 750 333 l 282 333 l 282 292 q 421 146 282 146 q 539 208 519 146 l 743 208 q 630 47 718 108 q 418 -14 542 -14 m 282 472 l 282 451 l 551 454 l 551 475 q 418 621 551 621 q 316 582 350 621 q 282 472 282 543 m 417 -324 q 326 -294 360 -324 q 292 -215 292 -265 q 326 -136 292 -165 q 417 -107 360 -107 q 508 -136 474 -107 q 542 -215 542 -165 q 508 -294 542 -265 q 417 -324 474 -324 m 132 896 l 319 1090 l 514 1090 l 701 896 l 514 896 l 414 993 l 321 896 l 132 896 z "},"ề":{"ha":833,"x_min":83,"x_max":847,"o":"m 418 -14 q 241 24 317 -14 q 124 131 165 63 q 83 292 83 200 l 83 472 q 124 633 83 564 q 241 740 165 701 q 418 778 317 778 q 594 740 519 778 q 709 633 668 701 q 750 472 750 564 l 750 333 l 282 333 l 282 292 q 421 146 282 146 q 539 208 519 146 l 743 208 q 630 47 718 108 q 418 -14 542 -14 m 282 472 l 282 451 l 551 454 l 551 475 q 418 621 551 621 q 316 582 350 621 q 282 472 282 543 m 660 1056 l 479 1250 l 681 1250 l 847 1056 l 660 1056 m 132 896 l 319 1090 l 514 1090 l 701 896 l 513 896 l 417 993 l 321 896 l 132 896 z "},"ể":{"ha":833,"x_min":83,"x_max":819,"o":"m 418 -14 q 241 24 317 -14 q 124 131 165 63 q 83 292 83 200 l 83 472 q 124 633 83 564 q 241 740 165 701 q 418 778 317 778 q 594 740 519 778 q 709 633 668 701 q 750 472 750 564 l 750 333 l 282 333 l 282 292 q 421 146 282 146 q 539 208 519 146 l 743 208 q 630 47 718 108 q 418 -14 542 -14 m 282 472 l 282 451 l 551 454 l 551 475 q 418 621 551 621 q 316 582 350 621 q 282 472 282 543 m 588 1056 l 656 1136 q 676 1176 676 1161 q 639 1200 676 1200 l 528 1200 l 528 1318 l 674 1318 q 779 1285 739 1318 q 819 1199 819 1253 q 789 1114 819 1151 l 740 1056 l 588 1056 m 132 896 l 319 1090 l 514 1090 l 701 896 l 513 896 l 417 993 l 321 896 l 132 896 z "},"ễ":{"ha":833,"x_min":83,"x_max":750,"o":"m 418 -14 q 241 24 317 -14 q 124 131 165 63 q 83 292 83 200 l 83 472 q 124 633 83 564 q 241 740 165 701 q 418 778 317 778 q 594 740 519 778 q 709 633 668 701 q 750 472 750 564 l 750 333 l 282 333 l 282 292 q 421 146 282 146 q 539 208 519 146 l 743 208 q 630 47 718 108 q 418 -14 542 -14 m 282 472 l 282 451 l 551 454 l 551 475 q 418 621 551 621 q 316 582 350 621 q 282 472 282 543 m 514 1147 q 442 1160 469 1147 q 397 1188 415 1172 q 363 1217 379 1204 q 326 1229 347 1229 q 297 1217 308 1229 q 285 1183 285 1204 l 285 1153 l 167 1153 l 167 1188 q 209 1303 167 1260 q 319 1347 251 1347 q 391 1335 364 1347 q 436 1306 418 1322 q 470 1278 454 1290 q 507 1265 486 1265 q 549 1304 549 1265 l 549 1339 l 667 1339 l 667 1307 q 625 1191 667 1235 q 514 1147 583 1147 m 132 896 l 319 1090 l 514 1090 l 701 896 l 513 896 l 417 993 l 321 896 l 132 896 z "},"ë":{"ha":833,"x_min":83,"x_max":750,"o":"m 418 -14 q 241 24 317 -14 q 124 131 165 63 q 83 292 83 200 l 83 472 q 124 633 83 564 q 241 740 165 701 q 418 778 317 778 q 594 740 519 778 q 709 633 668 701 q 750 472 750 564 l 750 333 l 282 333 l 282 292 q 421 146 282 146 q 539 208 519 146 l 743 208 q 630 47 718 108 q 418 -14 542 -14 m 282 472 l 282 451 l 551 454 l 551 475 q 418 621 551 621 q 316 582 350 621 q 282 472 282 543 m 586 885 q 505 914 535 885 q 475 993 475 943 q 505 1072 475 1043 q 586 1101 535 1101 q 667 1072 638 1101 q 697 993 697 1043 q 667 914 697 943 q 586 885 638 885 m 247 885 q 166 914 196 885 q 136 993 136 943 q 166 1072 136 1043 q 247 1101 196 1101 q 328 1072 299 1101 q 358 993 358 1043 q 328 914 358 943 q 247 885 299 885 z "},"ė":{"ha":833,"x_min":83,"x_max":750,"o":"m 418 -14 q 241 24 317 -14 q 124 131 165 63 q 83 292 83 200 l 83 472 q 124 633 83 564 q 241 740 165 701 q 418 778 317 778 q 594 740 519 778 q 709 633 668 701 q 750 472 750 564 l 750 333 l 282 333 l 282 292 q 421 146 282 146 q 539 208 519 146 l 743 208 q 630 47 718 108 q 418 -14 542 -14 m 282 472 l 282 451 l 551 454 l 551 475 q 418 621 551 621 q 316 582 350 621 q 282 472 282 543 m 417 885 q 326 914 360 885 q 292 993 292 943 q 326 1072 292 1043 q 417 1101 360 1101 q 508 1072 474 1101 q 542 993 542 1043 q 508 914 542 943 q 417 885 474 885 z "},"ẹ":{"ha":833,"x_min":83,"x_max":750,"o":"m 418 -14 q 241 24 317 -14 q 124 131 165 63 q 83 292 83 200 l 83 472 q 124 633 83 564 q 241 740 165 701 q 418 778 317 778 q 594 740 519 778 q 709 633 668 701 q 750 472 750 564 l 750 333 l 282 333 l 282 292 q 421 146 282 146 q 539 208 519 146 l 743 208 q 630 47 718 108 q 418 -14 542 -14 m 282 472 l 282 451 l 551 454 l 551 475 q 418 621 551 621 q 316 582 350 621 q 282 472 282 543 m 417 -324 q 326 -294 360 -324 q 292 -215 292 -265 q 326 -136 292 -165 q 417 -107 360 -107 q 508 -136 474 -107 q 542 -215 542 -165 q 508 -294 542 -265 q 417 -324 474 -324 z "},"è":{"ha":833,"x_min":83,"x_max":750,"o":"m 418 -14 q 241 24 317 -14 q 124 131 165 63 q 83 292 83 200 l 83 472 q 124 633 83 564 q 241 740 165 701 q 418 778 317 778 q 594 740 519 778 q 709 633 668 701 q 750 472 750 564 l 750 333 l 282 333 l 282 292 q 421 146 282 146 q 539 208 519 146 l 743 208 q 630 47 718 108 q 418 -14 542 -14 m 282 472 l 282 451 l 551 454 l 551 475 q 418 621 551 621 q 316 582 350 621 q 282 472 282 543 m 329 896 l 167 1090 l 396 1090 l 542 896 l 329 896 z "},"ẻ":{"ha":833,"x_min":83,"x_max":750,"o":"m 418 -14 q 241 24 317 -14 q 124 131 165 63 q 83 292 83 200 l 83 472 q 124 633 83 564 q 241 740 165 701 q 418 778 317 778 q 594 740 519 778 q 709 633 668 701 q 750 472 750 564 l 750 333 l 282 333 l 282 292 q 421 146 282 146 q 539 208 519 146 l 743 208 q 630 47 718 108 q 418 -14 542 -14 m 282 472 l 282 451 l 551 454 l 551 475 q 418 621 551 621 q 316 582 350 621 q 282 472 282 543 m 338 896 l 406 976 q 426 1017 426 1001 q 389 1040 426 1040 l 278 1040 l 278 1158 l 424 1158 q 529 1126 489 1158 q 569 1039 569 1093 q 539 954 569 992 l 490 896 l 338 896 z "},"ē":{"ha":833,"x_min":83,"x_max":750,"o":"m 418 -14 q 241 24 317 -14 q 124 131 165 63 q 83 292 83 200 l 83 472 q 124 633 83 564 q 241 740 165 701 q 418 778 317 778 q 594 740 519 778 q 709 633 668 701 q 750 472 750 564 l 750 333 l 282 333 l 282 292 q 421 146 282 146 q 539 208 519 146 l 743 208 q 630 47 718 108 q 418 -14 542 -14 m 282 472 l 282 451 l 551 454 l 551 475 q 418 621 551 621 q 316 582 350 621 q 282 472 282 543 m 167 910 l 167 1063 l 667 1063 l 667 910 l 167 910 z "},"ę":{"ha":833,"x_min":83,"x_max":750,"o":"m 500 -312 q 367 -270 415 -312 q 318 -160 318 -228 q 414 -14 318 -87 q 240 26 314 -12 q 124 132 165 64 q 83 292 83 200 l 83 472 q 124 633 83 564 q 241 740 165 701 q 418 778 317 778 q 594 740 519 778 q 709 633 668 701 q 750 472 750 564 l 750 333 l 282 333 l 282 292 q 421 146 282 146 q 539 208 519 146 l 743 208 q 697 113 729 156 q 618 40 664 71 l 547 -25 q 490 -115 490 -78 q 507 -151 490 -136 q 554 -167 524 -167 l 650 -167 l 650 -312 l 500 -312 m 282 472 l 282 451 l 551 454 l 551 475 q 418 621 551 621 q 316 582 350 621 q 282 472 282 543 z "},"ẽ":{"ha":833,"x_min":83,"x_max":750,"o":"m 418 -14 q 241 24 317 -14 q 124 131 165 63 q 83 292 83 200 l 83 472 q 124 633 83 564 q 241 740 165 701 q 418 778 317 778 q 594 740 519 778 q 709 633 668 701 q 750 472 750 564 l 750 333 l 282 333 l 282 292 q 421 146 282 146 q 539 208 519 146 l 743 208 q 630 47 718 108 q 418 -14 542 -14 m 282 472 l 282 451 l 551 454 l 551 475 q 418 621 551 621 q 316 582 350 621 q 282 472 282 543 m 514 882 q 442 894 469 882 q 397 924 415 907 q 363 953 379 940 q 326 965 347 965 q 297 953 308 965 q 285 919 285 940 l 285 889 l 167 889 l 167 938 q 209 1057 167 1010 q 319 1104 251 1104 q 391 1092 364 1104 q 436 1063 418 1079 q 470 1033 454 1046 q 507 1021 486 1021 q 549 1060 549 1021 l 549 1097 l 667 1097 l 667 1049 q 625 929 667 976 q 514 882 583 882 z "},"ə":{"ha":833,"x_min":83,"x_max":750,"o":"m 415 -14 q 240 24 314 -14 q 124 131 165 63 q 83 292 83 200 l 83 431 l 551 431 l 551 472 q 413 618 551 618 q 294 556 314 618 l 90 556 q 203 717 115 656 q 415 778 292 778 q 593 740 518 778 q 709 633 668 701 q 750 472 750 564 l 750 292 q 709 131 750 200 q 593 24 668 63 q 415 -14 518 -14 m 415 146 q 551 292 551 146 l 551 313 l 282 313 l 282 292 q 415 146 282 146 z "},"f":{"ha":833,"x_min":68,"x_max":758,"o":"m 271 0 l 271 486 l 68 486 l 68 674 l 271 674 l 271 778 q 344 949 271 885 q 535 1014 417 1014 l 758 1014 l 758 833 l 542 833 q 497 816 514 833 q 479 771 479 799 l 479 674 l 758 674 l 758 486 l 479 486 l 479 0 l 271 0 z "},"g":{"ha":833,"x_min":83,"x_max":742,"o":"m 201 -250 l 201 -83 l 417 -83 q 506 -54 475 -83 q 538 26 538 -25 l 538 56 l 540 201 l 536 201 q 472 83 524 125 q 338 42 419 42 q 153 122 222 42 q 83 340 83 203 l 83 479 q 153 697 83 615 q 338 778 222 778 q 472 736 419 778 q 536 618 524 694 l 540 618 l 533 764 l 742 764 l 742 19 q 656 -178 742 -106 q 424 -250 571 -250 l 201 -250 m 413 222 q 501 255 469 222 q 533 347 533 288 l 533 472 q 501 565 533 532 q 413 597 469 597 q 323 565 354 597 q 292 472 292 532 l 292 347 q 323 255 292 288 q 413 222 354 222 z "},"ǵ":{"ha":833,"x_min":83,"x_max":742,"o":"m 201 -250 l 201 -83 l 417 -83 q 506 -54 475 -83 q 538 26 538 -25 l 538 56 l 540 201 l 536 201 q 472 83 524 125 q 338 42 419 42 q 153 122 222 42 q 83 340 83 203 l 83 479 q 153 697 83 615 q 338 778 222 778 q 472 736 419 778 q 536 618 524 694 l 540 618 l 533 764 l 742 764 l 742 19 q 656 -178 742 -106 q 424 -250 571 -250 l 201 -250 m 413 222 q 501 255 469 222 q 533 347 533 288 l 533 472 q 501 565 533 532 q 413 597 469 597 q 323 565 354 597 q 292 472 292 532 l 292 347 q 323 255 292 288 q 413 222 354 222 m 290 896 l 436 1090 l 660 1090 l 497 896 l 290 896 z "},"ğ":{"ha":833,"x_min":83,"x_max":742,"o":"m 201 -250 l 201 -83 l 417 -83 q 506 -54 475 -83 q 538 26 538 -25 l 538 56 l 540 201 l 536 201 q 472 83 524 125 q 338 42 419 42 q 153 122 222 42 q 83 340 83 203 l 83 479 q 153 697 83 615 q 338 778 222 778 q 472 736 419 778 q 536 618 524 694 l 540 618 l 533 764 l 742 764 l 742 19 q 656 -178 742 -106 q 424 -250 571 -250 l 201 -250 m 413 222 q 501 255 469 222 q 533 347 533 288 l 533 472 q 501 565 533 532 q 413 597 469 597 q 323 565 354 597 q 292 472 292 532 l 292 347 q 323 255 292 288 q 413 222 354 222 m 413 882 q 227 940 299 882 q 156 1090 156 997 l 315 1090 q 342 1027 315 1051 q 413 1003 369 1003 q 483 1027 457 1003 q 510 1090 510 1051 l 669 1090 q 599 940 669 997 q 413 882 528 882 z "},"ǧ":{"ha":833,"x_min":83,"x_max":742,"o":"m 201 -250 l 201 -83 l 417 -83 q 506 -54 475 -83 q 538 26 538 -25 l 538 56 l 540 201 l 536 201 q 472 83 524 125 q 338 42 419 42 q 153 122 222 42 q 83 340 83 203 l 83 479 q 153 697 83 615 q 338 778 222 778 q 472 736 419 778 q 536 618 524 694 l 540 618 l 533 764 l 742 764 l 742 19 q 656 -178 742 -106 q 424 -250 571 -250 l 201 -250 m 413 222 q 501 255 469 222 q 533 347 533 288 l 533 472 q 501 565 533 532 q 413 597 469 597 q 323 565 354 597 q 292 472 292 532 l 292 347 q 323 255 292 288 q 413 222 354 222 m 315 896 l 128 1090 l 315 1090 l 415 993 l 508 1090 l 697 1090 l 510 896 l 315 896 z "},"ĝ":{"ha":833,"x_min":83,"x_max":742,"o":"m 201 -250 l 201 -83 l 417 -83 q 506 -54 475 -83 q 538 26 538 -25 l 538 56 l 540 201 l 536 201 q 472 83 524 125 q 338 42 419 42 q 153 122 222 42 q 83 340 83 203 l 83 479 q 153 697 83 615 q 338 778 222 778 q 472 736 419 778 q 536 618 524 694 l 540 618 l 533 764 l 742 764 l 742 19 q 656 -178 742 -106 q 424 -250 571 -250 l 201 -250 m 413 222 q 501 255 469 222 q 533 347 533 288 l 533 472 q 501 565 533 532 q 413 597 469 597 q 323 565 354 597 q 292 472 292 532 l 292 347 q 323 255 292 288 q 413 222 354 222 m 128 896 l 315 1090 l 510 1090 l 697 896 l 510 896 l 410 993 l 317 896 l 128 896 z "},"ģ":{"ha":833,"x_min":83,"x_max":742,"o":"m 201 -250 l 201 -83 l 417 -83 q 506 -54 475 -83 q 538 26 538 -25 l 538 56 l 540 201 l 536 201 q 472 83 524 125 q 338 42 419 42 q 153 122 222 42 q 83 340 83 203 l 83 479 q 153 697 83 615 q 338 778 222 778 q 472 736 419 778 q 536 618 524 694 l 540 618 l 533 764 l 742 764 l 742 19 q 656 -178 742 -106 q 424 -250 571 -250 l 201 -250 m 413 222 q 501 255 469 222 q 533 347 533 288 l 533 472 q 501 565 533 532 q 413 597 469 597 q 323 565 354 597 q 292 472 292 532 l 292 347 q 323 255 292 288 q 413 222 354 222 m 607 1222 l 496 896 l 260 896 l 440 1222 l 607 1222 z "},"ġ":{"ha":833,"x_min":83,"x_max":742,"o":"m 201 -250 l 201 -83 l 417 -83 q 506 -54 475 -83 q 538 26 538 -25 l 538 56 l 540 201 l 536 201 q 472 83 524 125 q 338 42 419 42 q 153 122 222 42 q 83 340 83 203 l 83 479 q 153 697 83 615 q 338 778 222 778 q 472 736 419 778 q 536 618 524 694 l 540 618 l 533 764 l 742 764 l 742 19 q 656 -178 742 -106 q 424 -250 571 -250 l 201 -250 m 413 222 q 501 255 469 222 q 533 347 533 288 l 533 472 q 501 565 533 532 q 413 597 469 597 q 323 565 354 597 q 292 472 292 532 l 292 347 q 323 255 292 288 q 413 222 354 222 m 413 885 q 322 914 356 885 q 288 993 288 943 q 322 1072 288 1043 q 413 1101 356 1101 q 503 1072 469 1101 q 538 993 538 1043 q 503 914 538 943 q 413 885 469 885 z "},"h":{"ha":833,"x_min":92,"x_max":744,"o":"m 92 0 l 92 1014 l 300 1014 l 300 764 l 293 618 l 297 618 q 364 735 311 692 q 499 778 417 778 q 677 700 610 778 q 744 493 744 622 l 744 0 l 536 0 l 536 472 q 505 565 536 532 q 418 597 474 597 q 331 565 363 597 q 300 472 300 532 l 300 0 l 92 0 z "},"ħ":{"ha":833,"x_min":0,"x_max":744,"o":"m 0 771 l 0 896 l 92 896 l 92 1014 l 300 1014 l 300 896 l 500 896 l 500 771 l 300 771 l 300 681 l 293 535 l 297 535 q 364 652 311 610 q 499 694 417 694 q 677 617 610 694 q 744 410 744 539 l 744 0 l 536 0 l 536 389 q 505 481 536 449 q 417 514 474 514 q 331 481 361 514 q 300 389 300 449 l 300 0 l 92 0 l 92 771 l 0 771 z "},"ĥ":{"ha":833,"x_min":92,"x_max":744,"o":"m 92 0 l 92 1014 l 300 1014 l 300 764 l 293 618 l 297 618 q 364 735 311 692 q 499 778 417 778 q 677 700 610 778 q 744 493 744 622 l 744 0 l 536 0 l 536 472 q 505 565 536 532 q 418 597 474 597 q 331 565 363 597 q 300 472 300 532 l 300 0 l 92 0 m 132 1146 l 319 1340 l 514 1340 l 701 1146 l 514 1146 l 414 1243 l 321 1146 l 132 1146 z "},"i":{"ha":833,"x_min":97,"x_max":778,"o":"m 97 0 l 97 188 l 350 188 l 350 576 l 125 576 l 125 764 l 558 764 l 558 188 l 778 188 l 778 0 l 97 0 m 444 885 q 353 914 388 885 q 319 993 319 943 q 353 1072 319 1043 q 444 1101 388 1101 q 535 1072 501 1101 q 569 993 569 1043 q 535 914 569 943 q 444 885 501 885 z "},"ı":{"ha":833,"x_min":97,"x_max":778,"o":"m 97 0 l 97 188 l 350 188 l 350 576 l 125 576 l 125 764 l 558 764 l 558 188 l 778 188 l 778 0 l 97 0 z "},"í":{"ha":833,"x_min":97,"x_max":778,"o":"m 97 0 l 97 188 l 350 188 l 350 576 l 125 576 l 125 764 l 558 764 l 558 188 l 778 188 l 778 0 l 97 0 m 322 896 l 468 1090 l 692 1090 l 529 896 l 322 896 z "},"ĭ":{"ha":833,"x_min":97,"x_max":778,"o":"m 97 0 l 97 188 l 350 188 l 350 576 l 125 576 l 125 764 l 558 764 l 558 188 l 778 188 l 778 0 l 97 0 m 444 882 q 259 940 331 882 q 188 1090 188 997 l 347 1090 q 374 1027 347 1051 q 444 1003 401 1003 q 515 1027 489 1003 q 542 1090 542 1051 l 701 1090 q 631 940 701 997 q 444 882 560 882 z "},"ǐ":{"ha":833,"x_min":97,"x_max":778,"o":"m 97 0 l 97 188 l 350 188 l 350 576 l 125 576 l 125 764 l 558 764 l 558 188 l 778 188 l 778 0 l 97 0 m 347 896 l 160 1090 l 347 1090 l 447 993 l 540 1090 l 729 1090 l 542 896 l 347 896 z "},"î":{"ha":833,"x_min":97,"x_max":778,"o":"m 97 0 l 97 188 l 350 188 l 350 576 l 125 576 l 125 764 l 558 764 l 558 188 l 778 188 l 778 0 l 97 0 m 160 896 l 347 1090 l 542 1090 l 729 896 l 542 896 l 442 993 l 349 896 l 160 896 z "},"ï":{"ha":833,"x_min":97,"x_max":778,"o":"m 97 0 l 97 188 l 350 188 l 350 576 l 125 576 l 125 764 l 558 764 l 558 188 l 778 188 l 778 0 l 97 0 m 614 885 q 533 914 563 885 q 503 993 503 943 q 533 1072 503 1043 q 614 1101 563 1101 q 695 1072 665 1101 q 725 993 725 1043 q 695 914 725 943 q 614 885 665 885 m 275 885 q 194 914 224 885 q 164 993 164 943 q 194 1072 164 1043 q 275 1101 224 1101 q 356 1072 326 1101 q 386 993 386 1043 q 356 914 386 943 q 275 885 326 885 z "},"ị":{"ha":833,"x_min":97,"x_max":778,"o":"m 97 0 l 97 188 l 350 188 l 350 576 l 125 576 l 125 764 l 558 764 l 558 188 l 778 188 l 778 0 l 97 0 m 444 885 q 353 914 388 885 q 319 993 319 943 q 353 1072 319 1043 q 444 1101 388 1101 q 535 1072 501 1101 q 569 993 569 1043 q 535 914 569 943 q 444 885 501 885 m 444 -324 q 353 -294 388 -324 q 319 -215 319 -265 q 353 -136 319 -165 q 444 -107 388 -107 q 535 -136 501 -107 q 569 -215 569 -165 q 535 -294 569 -265 q 444 -324 501 -324 z "},"ì":{"ha":833,"x_min":97,"x_max":778,"o":"m 97 0 l 97 188 l 350 188 l 350 576 l 125 576 l 125 764 l 558 764 l 558 188 l 778 188 l 778 0 l 97 0 m 357 896 l 194 1090 l 424 1090 l 569 896 l 357 896 z "},"ỉ":{"ha":833,"x_min":97,"x_max":778,"o":"m 97 0 l 97 188 l 350 188 l 350 576 l 125 576 l 125 764 l 558 764 l 558 188 l 778 188 l 778 0 l 97 0 m 365 896 l 433 976 q 454 1017 454 1001 q 417 1040 454 1040 l 306 1040 l 306 1158 l 451 1158 q 557 1126 517 1158 q 597 1039 597 1093 q 567 954 597 992 l 518 896 l 365 896 z "},"ī":{"ha":833,"x_min":97,"x_max":778,"o":"m 97 0 l 97 188 l 350 188 l 350 576 l 125 576 l 125 764 l 558 764 l 558 188 l 778 188 l 778 0 l 97 0 m 194 910 l 194 1063 l 694 1063 l 694 910 l 194 910 z "},"į":{"ha":833,"x_min":97,"x_max":778,"o":"m 444 885 q 353 914 388 885 q 319 993 319 943 q 353 1072 319 1043 q 444 1101 388 1101 q 535 1072 501 1101 q 569 993 569 1043 q 535 914 569 943 q 444 885 501 885 m 97 0 l 97 188 l 350 188 l 350 576 l 125 576 l 125 764 l 558 764 l 558 188 l 778 188 l 778 0 l 514 0 l 486 -25 q 429 -115 429 -78 q 446 -151 429 -136 q 493 -167 463 -167 l 589 -167 l 589 -312 l 439 -312 q 306 -270 354 -312 q 257 -160 257 -228 q 290 -74 257 -117 q 381 0 322 -32 l 97 0 z "},"ĩ":{"ha":833,"x_min":97,"x_max":778,"o":"m 97 0 l 97 188 l 350 188 l 350 576 l 125 576 l 125 764 l 558 764 l 558 188 l 778 188 l 778 0 l 97 0 m 542 882 q 470 894 497 882 q 425 924 443 907 q 391 953 407 940 q 354 965 375 965 q 324 953 336 965 q 313 919 313 940 l 313 889 l 194 889 l 194 938 q 237 1057 194 1010 q 347 1104 279 1104 q 419 1092 392 1104 q 464 1063 446 1079 q 498 1033 482 1046 q 535 1021 514 1021 q 576 1060 576 1021 l 576 1097 l 694 1097 l 694 1049 q 653 929 694 976 q 542 882 611 882 z "},"j":{"ha":833,"x_min":83,"x_max":674,"o":"m 83 -250 l 83 -62 l 326 -62 q 412 -28 379 -62 q 444 63 444 7 l 444 576 l 111 576 l 111 764 l 653 764 l 653 56 q 569 -168 653 -86 q 342 -250 486 -250 l 83 -250 m 549 885 q 458 914 492 885 q 424 993 424 943 q 458 1072 424 1043 q 549 1101 492 1101 q 640 1072 606 1101 q 674 993 674 1043 q 640 914 674 943 q 549 885 606 885 z "},"ȷ":{"ha":833,"x_min":83,"x_max":653,"o":"m 83 -250 l 83 -62 l 326 -62 q 412 -28 379 -62 q 444 63 444 7 l 444 576 l 111 576 l 111 764 l 653 764 l 653 56 q 569 -168 653 -86 q 342 -250 486 -250 l 83 -250 z "},"ĵ":{"ha":833,"x_min":83,"x_max":833,"o":"m 83 -250 l 83 -62 l 326 -62 q 412 -28 379 -62 q 444 63 444 7 l 444 576 l 111 576 l 111 764 l 653 764 l 653 56 q 569 -168 653 -86 q 342 -250 486 -250 l 83 -250 m 264 896 l 451 1090 l 646 1090 l 833 896 l 646 896 l 546 993 l 453 896 l 264 896 z "},"k":{"ha":833,"x_min":96,"x_max":803,"o":"m 96 0 l 96 1014 l 304 1014 l 304 475 l 410 475 l 569 764 l 799 764 l 586 390 l 803 0 l 569 0 l 408 300 l 304 300 l 304 0 l 96 0 z "},"ķ":{"ha":833,"x_min":96,"x_max":803,"o":"m 96 0 l 96 1014 l 304 1014 l 304 475 l 410 475 l 569 764 l 799 764 l 586 390 l 803 0 l 569 0 l 408 300 l 304 300 l 304 0 l 96 0 m 243 -333 l 375 -132 l 583 -132 l 424 -333 l 243 -333 z "},"ĸ":{"ha":833,"x_min":96,"x_max":803,"o":"m 96 0 l 96 764 l 304 764 l 304 475 l 407 475 l 567 764 l 799 764 l 586 390 l 803 0 l 567 0 l 406 300 l 304 300 l 304 0 l 96 0 z "},"l":{"ha":833,"x_min":35,"x_max":785,"o":"m 549 0 q 407 34 468 0 q 312 129 346 68 q 278 271 278 190 l 278 826 l 35 826 l 35 1014 l 486 1014 l 486 278 q 509 213 486 238 q 569 188 532 188 l 785 188 l 785 0 l 549 0 z "},"ĺ":{"ha":833,"x_min":35,"x_max":785,"o":"m 549 0 q 407 34 468 0 q 312 129 346 68 q 278 271 278 190 l 278 826 l 35 826 l 35 1014 l 486 1014 l 486 278 q 509 213 486 238 q 569 188 532 188 l 785 188 l 785 0 l 549 0 m 253 1125 l 399 1319 l 622 1319 l 460 1125 l 253 1125 z "},"ƛ":{"ha":833,"x_min":35,"x_max":799,"o":"m 35 0 l 310 711 l 125 618 l 125 764 l 292 847 l 224 1014 l 442 1014 l 469 936 l 653 1028 l 653 882 l 513 813 l 799 0 l 581 0 l 454 413 q 437 488 444 444 q 426 560 429 532 q 413 489 422 532 q 393 413 404 446 l 260 0 l 35 0 z "},"ľ":{"ha":833,"x_min":35,"x_max":1042,"o":"m 549 0 q 407 34 468 0 q 312 129 346 68 q 278 271 278 190 l 278 826 l 35 826 l 35 1014 l 486 1014 l 486 278 q 509 213 486 238 q 569 188 532 188 l 785 188 l 785 0 l 549 0 m 833 1014 l 847 1264 l 1042 1264 l 1014 1014 l 833 1014 z "},"ļ":{"ha":833,"x_min":35,"x_max":785,"o":"m 549 0 q 407 34 468 0 q 312 129 346 68 q 278 271 278 190 l 278 826 l 35 826 l 35 1014 l 486 1014 l 486 278 q 509 213 486 238 q 569 188 532 188 l 785 188 l 785 0 l 549 0 m 271 -333 l 403 -132 l 611 -132 l 451 -333 l 271 -333 z "},"ŀ":{"ha":833,"x_min":7,"x_max":931,"o":"m 521 0 q 379 34 440 0 q 284 129 318 68 q 250 271 250 190 l 250 826 l 7 826 l 7 1014 l 458 1014 l 458 278 q 481 213 458 238 q 542 188 504 188 l 757 188 l 757 0 l 521 0 m 790 368 q 688 406 726 368 q 650 508 650 444 q 688 611 650 574 q 790 649 726 649 q 893 611 856 649 q 931 508 931 574 q 893 406 931 444 q 790 368 856 368 z "},"ł":{"ha":833,"x_min":35,"x_max":785,"o":"m 139 319 l 139 514 l 278 583 l 278 826 l 35 826 l 35 1014 l 486 1014 l 486 688 l 667 778 l 667 583 l 486 493 l 486 278 q 509 213 486 238 q 569 188 532 188 l 785 188 l 785 0 l 549 0 q 407 34 468 0 q 312 129 346 68 q 278 271 278 190 l 278 389 l 139 319 z "},"m":{"ha":833,"x_min":58,"x_max":776,"o":"m 58 0 l 58 764 l 222 764 l 222 653 l 228 653 q 268 743 233 708 q 354 778 303 778 q 440 743 404 778 q 486 653 476 708 l 489 653 q 531 743 494 708 q 621 778 567 778 q 733 724 689 778 q 776 583 776 669 l 776 0 l 601 0 l 601 560 q 547 626 601 626 q 493 560 493 626 l 493 0 l 342 0 l 342 560 q 288 626 342 626 q 233 560 233 626 l 233 0 l 58 0 z "},"n":{"ha":833,"x_min":92,"x_max":744,"o":"m 92 0 l 92 764 l 293 764 l 293 618 l 297 618 q 364 735 311 692 q 499 778 417 778 q 677 700 610 778 q 744 493 744 622 l 744 0 l 536 0 l 536 472 q 505 565 536 532 q 418 597 474 597 q 331 565 363 597 q 300 472 300 532 l 300 0 l 92 0 z "},"ń":{"ha":833,"x_min":92,"x_max":744,"o":"m 92 0 l 92 764 l 293 764 l 293 618 l 297 618 q 364 735 311 692 q 499 778 417 778 q 677 700 610 778 q 744 493 744 622 l 744 0 l 536 0 l 536 472 q 505 565 536 532 q 418 597 474 597 q 331 565 363 597 q 300 472 300 532 l 300 0 l 92 0 m 301 896 l 447 1090 l 671 1090 l 508 896 l 301 896 z "},"ŉ":{"ha":833,"x_min":-35,"x_max":744,"o":"m 92 0 l 92 764 l 293 764 l 293 618 l 297 618 q 364 735 311 692 q 499 778 417 778 q 677 700 610 778 q 744 493 744 622 l 744 0 l 536 0 l 536 472 q 505 565 536 532 q 418 597 474 597 q 331 565 363 597 q 300 472 300 532 l 300 0 l 92 0 m -35 896 l 97 1097 l 306 1097 l 146 896 l -35 896 z "},"ň":{"ha":833,"x_min":92,"x_max":744,"o":"m 92 0 l 92 764 l 293 764 l 293 618 l 297 618 q 364 735 311 692 q 499 778 417 778 q 677 700 610 778 q 744 493 744 622 l 744 0 l 536 0 l 536 472 q 505 565 536 532 q 418 597 474 597 q 331 565 363 597 q 300 472 300 532 l 300 0 l 92 0 m 326 896 l 139 1090 l 326 1090 l 426 993 l 519 1090 l 708 1090 l 521 896 l 326 896 z "},"ņ":{"ha":833,"x_min":92,"x_max":744,"o":"m 92 0 l 92 764 l 293 764 l 293 618 l 297 618 q 364 735 311 692 q 499 778 417 778 q 677 700 610 778 q 744 493 744 622 l 744 0 l 536 0 l 536 472 q 505 565 536 532 q 418 597 474 597 q 331 565 363 597 q 300 472 300 532 l 300 0 l 92 0 m 243 -333 l 375 -132 l 583 -132 l 424 -333 l 243 -333 z "},"ŋ":{"ha":833,"x_min":92,"x_max":744,"o":"m 342 -250 l 342 -49 l 425 -49 q 507 -21 478 -49 q 536 57 536 7 l 536 472 q 505 565 536 532 q 417 597 474 597 q 331 565 361 597 q 300 472 300 532 l 300 0 l 92 0 l 92 764 l 293 764 l 293 618 l 297 618 q 364 735 311 693 q 499 778 417 778 q 677 700 610 778 q 744 493 744 622 l 744 35 q 702 -113 744 -49 q 585 -214 660 -178 q 411 -250 510 -250 l 342 -250 z "},"ñ":{"ha":833,"x_min":92,"x_max":744,"o":"m 92 0 l 92 764 l 293 764 l 293 618 l 297 618 q 364 735 311 692 q 499 778 417 778 q 677 700 610 778 q 744 493 744 622 l 744 0 l 536 0 l 536 472 q 505 565 536 532 q 418 597 474 597 q 331 565 363 597 q 300 472 300 532 l 300 0 l 92 0 m 521 882 q 449 894 476 882 q 404 924 422 907 q 370 953 386 940 q 333 965 354 965 q 303 953 315 965 q 292 919 292 940 l 292 889 l 174 889 l 174 938 q 216 1057 174 1010 q 326 1104 258 1104 q 398 1092 371 1104 q 443 1063 425 1079 q 477 1033 461 1046 q 514 1021 493 1021 q 556 1060 556 1021 l 556 1097 l 674 1097 l 674 1049 q 632 929 674 976 q 521 882 590 882 z "},"o":{"ha":833,"x_min":83,"x_max":750,"o":"m 417 -14 q 240 24 315 -14 q 124 131 165 63 q 83 292 83 200 l 83 472 q 124 633 83 564 q 240 740 165 701 q 417 778 315 778 q 594 740 519 778 q 709 633 668 701 q 750 472 750 564 l 750 292 q 709 131 750 200 q 594 24 668 63 q 417 -14 519 -14 m 417 167 q 510 199 478 167 q 542 292 542 232 l 542 472 q 510 565 542 533 q 417 597 478 597 q 324 565 357 597 q 292 472 292 533 l 292 292 q 324 199 292 232 q 417 167 357 167 z "},"ó":{"ha":833,"x_min":83,"x_max":750,"o":"m 417 -14 q 240 24 315 -14 q 124 131 165 63 q 83 292 83 200 l 83 472 q 124 633 83 564 q 240 740 165 701 q 417 778 315 778 q 594 740 519 778 q 709 633 668 701 q 750 472 750 564 l 750 292 q 709 131 750 200 q 594 24 668 63 q 417 -14 519 -14 m 417 167 q 510 199 478 167 q 542 292 542 232 l 542 472 q 510 565 542 533 q 417 597 478 597 q 324 565 357 597 q 292 472 292 533 l 292 292 q 324 199 292 232 q 417 167 357 167 m 294 896 l 440 1090 l 664 1090 l 501 896 l 294 896 z "},"ŏ":{"ha":833,"x_min":83,"x_max":750,"o":"m 417 -14 q 240 24 315 -14 q 124 131 165 63 q 83 292 83 200 l 83 472 q 124 633 83 564 q 240 740 165 701 q 417 778 315 778 q 594 740 519 778 q 709 633 668 701 q 750 472 750 564 l 750 292 q 709 131 750 200 q 594 24 668 63 q 417 -14 519 -14 m 417 167 q 510 199 478 167 q 542 292 542 232 l 542 472 q 510 565 542 533 q 417 597 478 597 q 324 565 357 597 q 292 472 292 533 l 292 292 q 324 199 292 232 q 417 167 357 167 m 417 882 q 231 940 303 882 q 160 1090 160 997 l 319 1090 q 347 1027 319 1051 q 417 1003 374 1003 q 488 1027 461 1003 q 514 1090 514 1051 l 674 1090 q 603 940 674 997 q 417 882 532 882 z "},"ǒ":{"ha":833,"x_min":83,"x_max":750,"o":"m 417 -14 q 240 24 315 -14 q 124 131 165 63 q 83 292 83 200 l 83 472 q 124 633 83 564 q 240 740 165 701 q 417 778 315 778 q 594 740 519 778 q 709 633 668 701 q 750 472 750 564 l 750 292 q 709 131 750 200 q 594 24 668 63 q 417 -14 519 -14 m 417 167 q 510 199 478 167 q 542 292 542 232 l 542 472 q 510 565 542 533 q 417 597 478 597 q 324 565 357 597 q 292 472 292 533 l 292 292 q 324 199 292 232 q 417 167 357 167 m 319 896 l 132 1090 l 319 1090 l 419 993 l 513 1090 l 701 1090 l 514 896 l 319 896 z "},"ô":{"ha":833,"x_min":83,"x_max":750,"o":"m 417 -14 q 240 24 315 -14 q 124 131 165 63 q 83 292 83 200 l 83 472 q 124 633 83 564 q 240 740 165 701 q 417 778 315 778 q 594 740 519 778 q 709 633 668 701 q 750 472 750 564 l 750 292 q 709 131 750 200 q 594 24 668 63 q 417 -14 519 -14 m 417 167 q 510 199 478 167 q 542 292 542 232 l 542 472 q 510 565 542 533 q 417 597 478 597 q 324 565 357 597 q 292 472 292 533 l 292 292 q 324 199 292 232 q 417 167 357 167 m 132 896 l 319 1090 l 514 1090 l 701 896 l 514 896 l 414 993 l 321 896 l 132 896 z "},"ố":{"ha":833,"x_min":83,"x_max":951,"o":"m 417 -14 q 240 24 315 -14 q 124 131 165 63 q 83 292 83 200 l 83 472 q 124 633 83 564 q 240 740 165 701 q 417 778 315 778 q 594 740 519 778 q 709 633 668 701 q 750 472 750 564 l 750 292 q 709 131 750 200 q 594 24 668 63 q 417 -14 519 -14 m 417 167 q 510 199 478 167 q 542 292 542 232 l 542 472 q 510 565 542 533 q 417 597 478 597 q 324 565 357 597 q 292 472 292 533 l 292 292 q 324 199 292 232 q 417 167 357 167 m 583 1056 l 750 1250 l 951 1250 l 771 1056 l 583 1056 m 132 896 l 319 1090 l 514 1090 l 701 896 l 513 896 l 417 993 l 321 896 l 132 896 z "},"ộ":{"ha":833,"x_min":83,"x_max":750,"o":"m 417 -14 q 240 24 315 -14 q 124 131 165 63 q 83 292 83 200 l 83 472 q 124 633 83 564 q 240 740 165 701 q 417 778 315 778 q 594 740 519 778 q 709 633 668 701 q 750 472 750 564 l 750 292 q 709 131 750 200 q 594 24 668 63 q 417 -14 519 -14 m 417 167 q 510 199 478 167 q 542 292 542 232 l 542 472 q 510 565 542 533 q 417 597 478 597 q 324 565 357 597 q 292 472 292 533 l 292 292 q 324 199 292 232 q 417 167 357 167 m 417 -324 q 326 -294 360 -324 q 292 -215 292 -265 q 326 -136 292 -165 q 417 -107 360 -107 q 508 -136 474 -107 q 542 -215 542 -165 q 508 -294 542 -265 q 417 -324 474 -324 m 132 896 l 319 1090 l 514 1090 l 701 896 l 514 896 l 414 993 l 321 896 l 132 896 z "},"ồ":{"ha":833,"x_min":83,"x_max":847,"o":"m 417 -14 q 240 24 315 -14 q 124 131 165 63 q 83 292 83 200 l 83 472 q 124 633 83 564 q 240 740 165 701 q 417 778 315 778 q 594 740 519 778 q 709 633 668 701 q 750 472 750 564 l 750 292 q 709 131 750 200 q 594 24 668 63 q 417 -14 519 -14 m 417 167 q 510 199 478 167 q 542 292 542 232 l 542 472 q 510 565 542 533 q 417 597 478 597 q 324 565 357 597 q 292 472 292 533 l 292 292 q 324 199 292 232 q 417 167 357 167 m 660 1056 l 479 1250 l 681 1250 l 847 1056 l 660 1056 m 132 896 l 319 1090 l 514 1090 l 701 896 l 513 896 l 417 993 l 321 896 l 132 896 z "},"ổ":{"ha":833,"x_min":83,"x_max":819,"o":"m 417 -14 q 240 24 315 -14 q 124 131 165 63 q 83 292 83 200 l 83 472 q 124 633 83 564 q 240 740 165 701 q 417 778 315 778 q 594 740 519 778 q 709 633 668 701 q 750 472 750 564 l 750 292 q 709 131 750 200 q 594 24 668 63 q 417 -14 519 -14 m 417 167 q 510 199 478 167 q 542 292 542 232 l 542 472 q 510 565 542 533 q 417 597 478 597 q 324 565 357 597 q 292 472 292 533 l 292 292 q 324 199 292 232 q 417 167 357 167 m 588 1056 l 656 1136 q 676 1176 676 1161 q 639 1200 676 1200 l 528 1200 l 528 1318 l 674 1318 q 779 1285 739 1318 q 819 1199 819 1253 q 789 1114 819 1151 l 740 1056 l 588 1056 m 132 896 l 319 1090 l 514 1090 l 701 896 l 513 896 l 417 993 l 321 896 l 132 896 z "},"ỗ":{"ha":833,"x_min":83,"x_max":750,"o":"m 417 -14 q 240 24 315 -14 q 124 131 165 63 q 83 292 83 200 l 83 472 q 124 633 83 564 q 240 740 165 701 q 417 778 315 778 q 594 740 519 778 q 709 633 668 701 q 750 472 750 564 l 750 292 q 709 131 750 200 q 594 24 668 63 q 417 -14 519 -14 m 417 167 q 510 199 478 167 q 542 292 542 232 l 542 472 q 510 565 542 533 q 417 597 478 597 q 324 565 357 597 q 292 472 292 533 l 292 292 q 324 199 292 232 q 417 167 357 167 m 514 1147 q 442 1160 469 1147 q 397 1188 415 1172 q 363 1217 379 1204 q 326 1229 347 1229 q 297 1217 308 1229 q 285 1183 285 1204 l 285 1153 l 167 1153 l 167 1188 q 209 1303 167 1260 q 319 1347 251 1347 q 391 1335 364 1347 q 436 1306 418 1322 q 470 1278 454 1290 q 507 1265 486 1265 q 549 1304 549 1265 l 549 1339 l 667 1339 l 667 1307 q 625 1191 667 1235 q 514 1147 583 1147 m 132 896 l 319 1090 l 514 1090 l 701 896 l 513 896 l 417 993 l 321 896 l 132 896 z "},"ö":{"ha":833,"x_min":83,"x_max":750,"o":"m 417 -14 q 240 24 315 -14 q 124 131 165 63 q 83 292 83 200 l 83 472 q 124 633 83 564 q 240 740 165 701 q 417 778 315 778 q 594 740 519 778 q 709 633 668 701 q 750 472 750 564 l 750 292 q 709 131 750 200 q 594 24 668 63 q 417 -14 519 -14 m 417 167 q 510 199 478 167 q 542 292 542 232 l 542 472 q 510 565 542 533 q 417 597 478 597 q 324 565 357 597 q 292 472 292 533 l 292 292 q 324 199 292 232 q 417 167 357 167 m 586 885 q 505 914 535 885 q 475 993 475 943 q 505 1072 475 1043 q 586 1101 535 1101 q 667 1072 638 1101 q 697 993 697 1043 q 667 914 697 943 q 586 885 638 885 m 247 885 q 166 914 196 885 q 136 993 136 943 q 166 1072 136 1043 q 247 1101 196 1101 q 328 1072 299 1101 q 358 993 358 1043 q 328 914 358 943 q 247 885 299 885 z "},"ọ":{"ha":833,"x_min":83,"x_max":750,"o":"m 417 -14 q 240 24 315 -14 q 124 131 165 63 q 83 292 83 200 l 83 472 q 124 633 83 564 q 240 740 165 701 q 417 778 315 778 q 594 740 519 778 q 709 633 668 701 q 750 472 750 564 l 750 292 q 709 131 750 200 q 594 24 668 63 q 417 -14 519 -14 m 417 167 q 510 199 478 167 q 542 292 542 232 l 542 472 q 510 565 542 533 q 417 597 478 597 q 324 565 357 597 q 292 472 292 533 l 292 292 q 324 199 292 232 q 417 167 357 167 m 417 -324 q 326 -294 360 -324 q 292 -215 292 -265 q 326 -136 292 -165 q 417 -107 360 -107 q 508 -136 474 -107 q 542 -215 542 -165 q 508 -294 542 -265 q 417 -324 474 -324 z "},"ò":{"ha":833,"x_min":83,"x_max":750,"o":"m 417 -14 q 240 24 315 -14 q 124 131 165 63 q 83 292 83 200 l 83 472 q 124 633 83 564 q 240 740 165 701 q 417 778 315 778 q 594 740 519 778 q 709 633 668 701 q 750 472 750 564 l 750 292 q 709 131 750 200 q 594 24 668 63 q 417 -14 519 -14 m 417 167 q 510 199 478 167 q 542 292 542 232 l 542 472 q 510 565 542 533 q 417 597 478 597 q 324 565 357 597 q 292 472 292 533 l 292 292 q 324 199 292 232 q 417 167 357 167 m 329 896 l 167 1090 l 396 1090 l 542 896 l 329 896 z "},"ỏ":{"ha":833,"x_min":83,"x_max":750,"o":"m 417 -14 q 240 24 315 -14 q 124 131 165 63 q 83 292 83 200 l 83 472 q 124 633 83 564 q 240 740 165 701 q 417 778 315 778 q 594 740 519 778 q 709 633 668 701 q 750 472 750 564 l 750 292 q 709 131 750 200 q 594 24 668 63 q 417 -14 519 -14 m 417 167 q 510 199 478 167 q 542 292 542 232 l 542 472 q 510 565 542 533 q 417 597 478 597 q 324 565 357 597 q 292 472 292 533 l 292 292 q 324 199 292 232 q 417 167 357 167 m 338 896 l 406 976 q 426 1017 426 1001 q 389 1040 426 1040 l 278 1040 l 278 1158 l 424 1158 q 529 1126 489 1158 q 569 1039 569 1093 q 539 954 569 992 l 490 896 l 338 896 z "},"ơ":{"ha":833,"x_min":83,"x_max":806,"o":"m 417 -14 q 240 24 315 -14 q 124 131 165 63 q 83 292 83 200 l 83 472 q 124 633 83 564 q 240 740 165 701 q 417 778 315 778 q 599 736 521 778 q 639 785 639 742 l 639 889 l 806 889 l 806 785 q 781 688 806 729 q 714 624 757 646 q 750 472 750 557 l 750 292 q 709 131 750 200 q 594 24 668 63 q 417 -14 519 -14 m 417 167 q 510 199 478 167 q 542 292 542 232 l 542 472 q 510 565 542 533 q 417 597 478 597 q 324 565 357 597 q 292 472 292 533 l 292 292 q 324 199 292 232 q 417 167 357 167 z "},"ớ":{"ha":833,"x_min":83,"x_max":806,"o":"m 417 -14 q 240 24 315 -14 q 124 131 165 63 q 83 292 83 200 l 83 472 q 124 633 83 564 q 240 740 165 701 q 417 778 315 778 q 599 736 521 778 q 639 785 639 742 l 639 889 l 806 889 l 806 785 q 781 688 806 729 q 714 624 757 646 q 750 472 750 557 l 750 292 q 709 131 750 200 q 594 24 668 63 q 417 -14 519 -14 m 417 167 q 510 199 478 167 q 542 292 542 232 l 542 472 q 510 565 542 533 q 417 597 478 597 q 324 565 357 597 q 292 472 292 533 l 292 292 q 324 199 292 232 q 417 167 357 167 m 281 896 l 426 1090 l 650 1090 l 488 896 l 281 896 z "},"ợ":{"ha":833,"x_min":83,"x_max":806,"o":"m 417 -14 q 240 24 315 -14 q 124 131 165 63 q 83 292 83 200 l 83 472 q 124 633 83 564 q 240 740 165 701 q 417 778 315 778 q 599 736 521 778 q 639 785 639 742 l 639 889 l 806 889 l 806 785 q 781 688 806 729 q 714 624 757 646 q 750 472 750 557 l 750 292 q 709 131 750 200 q 594 24 668 63 q 417 -14 519 -14 m 417 167 q 510 199 478 167 q 542 292 542 232 l 542 472 q 510 565 542 533 q 417 597 478 597 q 324 565 357 597 q 292 472 292 533 l 292 292 q 324 199 292 232 q 417 167 357 167 m 417 -324 q 326 -294 360 -324 q 292 -215 292 -265 q 326 -136 292 -165 q 417 -107 360 -107 q 508 -136 474 -107 q 542 -215 542 -165 q 508 -294 542 -265 q 417 -324 474 -324 z "},"ờ":{"ha":833,"x_min":83,"x_max":806,"o":"m 417 -14 q 240 24 315 -14 q 124 131 165 63 q 83 292 83 200 l 83 472 q 124 633 83 564 q 240 740 165 701 q 417 778 315 778 q 599 736 521 778 q 639 785 639 742 l 639 889 l 806 889 l 806 785 q 781 688 806 729 q 714 624 757 646 q 750 472 750 557 l 750 292 q 709 131 750 200 q 594 24 668 63 q 417 -14 519 -14 m 417 167 q 510 199 478 167 q 542 292 542 232 l 542 472 q 510 565 542 533 q 417 597 478 597 q 324 565 357 597 q 292 472 292 533 l 292 292 q 324 199 292 232 q 417 167 357 167 m 315 896 l 153 1090 l 382 1090 l 528 896 l 315 896 z "},"ở":{"ha":833,"x_min":83,"x_max":806,"o":"m 417 -14 q 240 24 315 -14 q 124 131 165 63 q 83 292 83 200 l 83 472 q 124 633 83 564 q 240 740 165 701 q 417 778 315 778 q 599 736 521 778 q 639 785 639 742 l 639 889 l 806 889 l 806 785 q 781 688 806 729 q 714 624 757 646 q 750 472 750 557 l 750 292 q 709 131 750 200 q 594 24 668 63 q 417 -14 519 -14 m 417 167 q 510 199 478 167 q 542 292 542 232 l 542 472 q 510 565 542 533 q 417 597 478 597 q 324 565 357 597 q 292 472 292 533 l 292 292 q 324 199 292 232 q 417 167 357 167 m 324 896 l 392 976 q 413 1017 413 1001 q 375 1040 413 1040 l 264 1040 l 264 1158 l 410 1158 q 515 1126 475 1158 q 556 1039 556 1093 q 525 954 556 992 l 476 896 l 324 896 z "},"ỡ":{"ha":833,"x_min":83,"x_max":806,"o":"m 417 -14 q 240 24 315 -14 q 124 131 165 63 q 83 292 83 200 l 83 472 q 124 633 83 564 q 240 740 165 701 q 417 778 315 778 q 599 736 521 778 q 639 785 639 742 l 639 889 l 806 889 l 806 785 q 781 688 806 729 q 714 624 757 646 q 750 472 750 557 l 750 292 q 709 131 750 200 q 594 24 668 63 q 417 -14 519 -14 m 417 167 q 510 199 478 167 q 542 292 542 232 l 542 472 q 510 565 542 533 q 417 597 478 597 q 324 565 357 597 q 292 472 292 533 l 292 292 q 324 199 292 232 q 417 167 357 167 m 500 882 q 428 894 456 882 q 383 924 401 907 q 349 953 365 940 q 313 965 333 965 q 283 953 294 965 q 271 919 271 940 l 271 889 l 153 889 l 153 938 q 195 1057 153 1010 q 306 1104 238 1104 q 377 1092 350 1104 q 422 1063 404 1079 q 456 1033 440 1046 q 493 1021 472 1021 q 535 1060 535 1021 l 535 1097 l 653 1097 l 653 1049 q 611 929 653 976 q 500 882 569 882 z "},"ő":{"ha":833,"x_min":83,"x_max":792,"o":"m 417 -14 q 240 24 315 -14 q 124 131 165 63 q 83 292 83 200 l 83 472 q 124 633 83 564 q 240 740 165 701 q 417 778 315 778 q 594 740 519 778 q 709 633 668 701 q 750 472 750 564 l 750 292 q 709 131 750 200 q 594 24 668 63 q 417 -14 519 -14 m 417 167 q 510 199 478 167 q 542 292 542 232 l 542 472 q 510 565 542 533 q 417 597 478 597 q 324 565 357 597 q 292 472 292 533 l 292 292 q 324 199 292 232 q 417 167 357 167 m 447 896 l 593 1090 l 792 1090 l 632 896 l 447 896 m 146 896 l 292 1090 l 490 1090 l 331 896 l 146 896 z "},"ō":{"ha":833,"x_min":83,"x_max":750,"o":"m 417 -14 q 240 24 315 -14 q 124 131 165 63 q 83 292 83 200 l 83 472 q 124 633 83 564 q 240 740 165 701 q 417 778 315 778 q 594 740 519 778 q 709 633 668 701 q 750 472 750 564 l 750 292 q 709 131 750 200 q 594 24 668 63 q 417 -14 519 -14 m 417 167 q 510 199 478 167 q 542 292 542 232 l 542 472 q 510 565 542 533 q 417 597 478 597 q 324 565 357 597 q 292 472 292 533 l 292 292 q 324 199 292 232 q 417 167 357 167 m 167 910 l 167 1063 l 667 1063 l 667 910 l 167 910 z "},"ǫ":{"ha":833,"x_min":83,"x_max":750,"o":"m 499 -312 q 365 -270 414 -312 q 317 -160 317 -228 q 414 -14 317 -87 q 238 25 313 -14 q 124 132 164 64 q 83 292 83 200 l 83 472 q 124 633 83 564 q 240 740 165 701 q 417 778 315 778 q 594 740 519 778 q 709 633 668 701 q 750 472 750 564 l 750 292 q 715 149 750 214 q 624 43 681 83 l 546 -25 q 503 -73 518 -49 q 489 -115 489 -97 q 506 -151 489 -136 q 553 -167 522 -167 l 649 -167 l 649 -312 l 499 -312 m 417 167 q 510 199 478 167 q 542 292 542 232 l 542 472 q 510 565 542 533 q 417 597 478 597 q 324 565 357 597 q 292 472 292 533 l 292 292 q 324 199 292 232 q 417 167 357 167 z "},"ø":{"ha":833,"x_min":35,"x_max":799,"o":"m 35 -42 l 140 108 q 83 292 83 185 l 83 472 q 124 633 83 564 q 240 740 165 701 q 417 778 315 778 q 586 743 513 778 l 639 819 l 799 819 l 689 663 q 750 472 750 585 l 750 292 q 709 131 750 200 q 594 24 668 63 q 417 -14 519 -14 q 240 24 317 -14 l 194 -42 l 35 -42 m 278 472 l 278 304 l 476 588 q 417 597 450 597 q 315 564 351 597 q 278 472 278 531 m 417 167 q 519 200 482 167 q 556 292 556 233 l 556 472 l 556 474 l 349 179 q 417 167 378 167 z "},"ǿ":{"ha":833,"x_min":35,"x_max":799,"o":"m 35 -42 l 140 108 q 83 292 83 185 l 83 472 q 124 633 83 564 q 240 740 165 701 q 417 778 315 778 q 586 743 513 778 l 639 819 l 799 819 l 689 663 q 750 472 750 585 l 750 292 q 709 131 750 200 q 594 24 668 63 q 417 -14 519 -14 q 240 24 317 -14 l 194 -42 l 35 -42 m 278 472 l 278 304 l 476 588 q 417 597 450 597 q 315 564 351 597 q 278 472 278 531 m 417 167 q 519 200 482 167 q 556 292 556 233 l 556 472 l 556 474 l 349 179 q 417 167 378 167 m 294 896 l 440 1090 l 664 1090 l 501 896 l 294 896 z "},"õ":{"ha":833,"x_min":83,"x_max":750,"o":"m 417 -14 q 240 24 315 -14 q 124 131 165 63 q 83 292 83 200 l 83 472 q 124 633 83 564 q 240 740 165 701 q 417 778 315 778 q 594 740 519 778 q 709 633 668 701 q 750 472 750 564 l 750 292 q 709 131 750 200 q 594 24 668 63 q 417 -14 519 -14 m 417 167 q 510 199 478 167 q 542 292 542 232 l 542 472 q 510 565 542 533 q 417 597 478 597 q 324 565 357 597 q 292 472 292 533 l 292 292 q 324 199 292 232 q 417 167 357 167 m 514 882 q 442 894 469 882 q 397 924 415 907 q 363 953 379 940 q 326 965 347 965 q 297 953 308 965 q 285 919 285 940 l 285 889 l 167 889 l 167 938 q 209 1057 167 1010 q 319 1104 251 1104 q 391 1092 364 1104 q 436 1063 418 1079 q 470 1033 454 1046 q 507 1021 486 1021 q 549 1060 549 1021 l 549 1097 l 667 1097 l 667 1049 q 625 929 667 976 q 514 882 583 882 z "},"œ":{"ha":833,"x_min":49,"x_max":785,"o":"m 250 -14 q 104 44 160 -14 q 49 194 49 101 l 49 569 q 104 721 49 664 q 250 778 160 778 q 335 761 301 778 q 388 720 369 744 q 411 674 407 696 l 422 674 q 444 720 426 696 q 496 761 461 744 q 583 778 531 778 q 729 721 674 778 q 785 569 785 664 l 785 347 l 496 347 l 496 194 q 513 140 496 160 q 561 121 531 121 q 625 194 625 121 l 785 194 q 729 44 785 101 q 583 -14 674 -14 q 496 3 531 -14 q 444 44 461 19 q 422 90 426 68 l 411 90 q 388 44 407 68 q 335 3 369 19 q 250 -14 301 -14 m 274 121 q 338 194 338 121 l 338 569 q 274 643 338 643 q 226 624 243 643 q 208 569 208 604 l 208 194 q 226 140 208 160 q 274 121 243 121 m 496 458 l 625 458 l 625 569 q 561 643 625 643 q 513 624 531 643 q 496 569 496 604 l 496 458 z "},"p":{"ha":833,"x_min":92,"x_max":750,"o":"m 92 -250 l 92 764 l 293 764 l 293 632 l 297 632 q 375 740 322 701 q 503 778 428 778 q 682 697 614 778 q 750 479 750 615 l 750 285 q 682 67 750 149 q 503 -14 614 -14 q 375 24 428 -14 q 297 132 322 63 l 293 132 l 300 -42 l 300 -250 l 92 -250 m 422 167 q 510 199 479 167 q 542 292 542 232 l 542 472 q 510 565 542 533 q 422 597 479 597 q 331 563 363 597 q 300 465 300 529 l 300 299 q 331 201 300 235 q 422 167 363 167 z "},"þ":{"ha":833,"x_min":92,"x_max":750,"o":"m 92 -236 l 92 1014 l 300 1014 l 300 806 l 293 633 q 365 740 311 703 q 496 778 418 778 q 681 697 611 778 q 750 479 750 615 l 750 285 q 681 67 750 147 q 496 -14 611 -14 q 363 24 417 -14 q 293 132 310 63 l 293 -236 l 92 -236 m 421 167 q 510 199 479 167 q 542 292 542 232 l 542 472 q 510 565 542 532 q 421 597 479 597 q 332 565 364 597 q 300 472 300 532 l 300 292 q 332 199 300 232 q 421 167 364 167 z "},"q":{"ha":833,"x_min":83,"x_max":742,"o":"m 533 -250 l 533 -42 l 540 132 l 536 132 q 458 24 511 63 q 331 -14 406 -14 q 152 67 221 -14 q 83 285 83 149 l 83 479 q 152 697 83 615 q 331 778 221 778 q 458 740 406 778 q 536 632 511 701 l 540 632 l 540 764 l 742 764 l 742 -250 l 533 -250 m 411 167 q 502 201 471 167 q 533 299 533 235 l 533 465 q 502 563 533 529 q 411 597 471 597 q 323 565 354 597 q 292 472 292 533 l 292 292 q 323 199 292 232 q 411 167 354 167 z "},"r":{"ha":833,"x_min":114,"x_max":792,"o":"m 114 0 l 114 764 l 315 764 l 315 618 l 319 618 q 391 735 335 693 q 533 778 447 778 q 721 699 650 778 q 792 486 792 621 l 792 417 l 569 417 l 569 472 q 538 565 569 532 q 447 597 507 597 q 322 456 322 597 l 322 0 l 114 0 z "},"ŕ":{"ha":833,"x_min":114,"x_max":792,"o":"m 114 0 l 114 764 l 315 764 l 315 618 l 319 618 q 391 735 335 693 q 533 778 447 778 q 721 699 650 778 q 792 486 792 621 l 792 417 l 569 417 l 569 472 q 538 565 569 532 q 447 597 507 597 q 322 456 322 597 l 322 0 l 114 0 m 322 896 l 468 1090 l 692 1090 l 529 896 l 322 896 z "},"ř":{"ha":833,"x_min":114,"x_max":792,"o":"m 114 0 l 114 764 l 315 764 l 315 618 l 319 618 q 391 735 335 693 q 533 778 447 778 q 721 699 650 778 q 792 486 792 621 l 792 417 l 569 417 l 569 472 q 538 565 569 532 q 447 597 507 597 q 322 456 322 597 l 322 0 l 114 0 m 347 896 l 160 1090 l 347 1090 l 447 993 l 540 1090 l 729 1090 l 542 896 l 347 896 z "},"ŗ":{"ha":833,"x_min":28,"x_max":792,"o":"m 114 0 l 114 764 l 315 764 l 315 618 l 319 618 q 391 735 335 693 q 533 778 447 778 q 721 699 650 778 q 792 486 792 621 l 792 417 l 569 417 l 569 472 q 538 565 569 532 q 447 597 507 597 q 322 456 322 597 l 322 0 l 114 0 m 28 -333 l 160 -132 l 368 -132 l 208 -333 l 28 -333 z "},"s":{"ha":833,"x_min":69,"x_max":764,"o":"m 385 -14 q 219 16 290 -14 q 109 99 149 46 q 69 222 69 151 l 278 222 q 385 144 278 144 l 446 144 q 563 219 563 144 q 454 303 563 288 l 344 317 q 92 553 92 349 q 168 721 92 664 q 392 778 244 778 l 444 778 q 668 717 585 778 q 751 553 751 656 l 543 553 q 444 619 543 619 l 392 619 q 293 553 293 619 q 383 478 293 490 l 496 463 q 764 222 764 429 q 683 48 764 110 q 446 -14 603 -14 l 385 -14 z "},"ś":{"ha":833,"x_min":69,"x_max":764,"o":"m 385 -14 q 219 16 290 -14 q 109 99 149 46 q 69 222 69 151 l 278 222 q 385 144 278 144 l 446 144 q 563 219 563 144 q 454 303 563 288 l 344 317 q 92 553 92 349 q 168 721 92 664 q 392 778 244 778 l 444 778 q 668 717 585 778 q 751 553 751 656 l 543 553 q 444 619 543 619 l 392 619 q 293 553 293 619 q 383 478 293 490 l 496 463 q 764 222 764 429 q 683 48 764 110 q 446 -14 603 -14 l 385 -14 m 294 896 l 440 1090 l 664 1090 l 501 896 l 294 896 z "},"š":{"ha":833,"x_min":69,"x_max":764,"o":"m 385 -14 q 219 16 290 -14 q 109 99 149 46 q 69 222 69 151 l 278 222 q 385 144 278 144 l 446 144 q 563 219 563 144 q 454 303 563 288 l 344 317 q 92 553 92 349 q 168 721 92 664 q 392 778 244 778 l 444 778 q 668 717 585 778 q 751 553 751 656 l 543 553 q 444 619 543 619 l 392 619 q 293 553 293 619 q 383 478 293 490 l 496 463 q 764 222 764 429 q 683 48 764 110 q 446 -14 603 -14 l 385 -14 m 319 896 l 132 1090 l 319 1090 l 419 993 l 513 1090 l 701 1090 l 514 896 l 319 896 z "},"ş":{"ha":833,"x_min":69,"x_max":764,"o":"m 278 -312 l 278 -215 l 389 -215 q 444 -199 424 -215 q 465 -165 465 -182 q 423 -115 465 -133 q 304 -96 381 -96 l 339 -12 q 143 62 217 -1 q 69 222 69 125 l 278 222 q 385 144 278 144 l 446 144 q 563 219 563 144 q 454 303 563 288 l 344 317 q 92 553 92 349 q 168 721 92 664 q 392 778 244 778 l 444 778 q 668 717 585 778 q 751 553 751 656 l 543 553 q 444 619 543 619 l 392 619 q 293 553 293 619 q 383 478 293 490 l 496 463 q 764 222 764 429 q 683 48 764 110 q 446 -14 603 -14 l 442 -14 l 428 -54 q 516 -72 471 -57 q 593 -114 561 -86 q 625 -185 625 -142 q 572 -274 625 -236 q 431 -312 518 -312 l 278 -312 z "},"ŝ":{"ha":833,"x_min":69,"x_max":764,"o":"m 385 -14 q 219 16 290 -14 q 109 99 149 46 q 69 222 69 151 l 278 222 q 385 144 278 144 l 446 144 q 563 219 563 144 q 454 303 563 288 l 344 317 q 92 553 92 349 q 168 721 92 664 q 392 778 244 778 l 444 778 q 668 717 585 778 q 751 553 751 656 l 543 553 q 444 619 543 619 l 392 619 q 293 553 293 619 q 383 478 293 490 l 496 463 q 764 222 764 429 q 683 48 764 110 q 446 -14 603 -14 l 385 -14 m 132 896 l 319 1090 l 514 1090 l 701 896 l 514 896 l 414 993 l 321 896 l 132 896 z "},"ș":{"ha":833,"x_min":69,"x_max":764,"o":"m 385 -14 q 219 16 290 -14 q 109 99 149 46 q 69 222 69 151 l 278 222 q 385 144 278 144 l 446 144 q 563 219 563 144 q 454 303 563 288 l 344 317 q 92 553 92 349 q 168 721 92 664 q 392 778 244 778 l 444 778 q 668 717 585 778 q 751 553 751 656 l 543 553 q 444 619 543 619 l 392 619 q 293 553 293 619 q 383 478 293 490 l 496 463 q 764 222 764 429 q 683 48 764 110 q 446 -14 603 -14 l 385 -14 m 243 -333 l 375 -132 l 583 -132 l 424 -333 l 243 -333 z "},"ß":{"ha":833,"x_min":83,"x_max":778,"o":"m 83 0 l 83 717 q 124 880 83 810 q 239 989 165 950 q 411 1028 313 1028 q 594 994 517 1028 q 716 899 672 960 q 760 757 760 839 q 714 614 760 669 q 583 538 668 558 q 725 450 672 515 q 778 290 778 385 q 735 138 778 204 q 615 36 692 72 q 433 0 538 0 l 361 0 l 361 174 l 426 174 q 531 209 493 174 q 568 307 568 244 q 530 406 568 369 q 426 442 492 442 l 361 442 l 361 594 l 424 594 q 516 628 482 594 q 550 718 550 661 q 513 817 550 781 q 410 854 475 854 q 308 817 346 854 q 271 717 271 781 l 271 0 l 83 0 z "},"ſ":{"ha":833,"x_min":188,"x_max":743,"o":"m 188 0 l 188 729 q 269 937 188 860 q 486 1014 350 1014 l 743 1014 l 743 833 l 500 833 q 424 805 453 833 q 396 729 396 776 l 396 0 l 188 0 z "},"t":{"ha":833,"x_min":49,"x_max":743,"o":"m 500 0 q 317 67 383 0 q 250 250 250 133 l 250 576 l 49 576 l 49 764 l 250 764 l 250 979 l 458 979 l 458 764 l 743 764 l 743 576 l 458 576 l 458 257 q 474 207 458 226 q 521 188 490 188 l 729 188 l 729 0 l 500 0 z "},"ŧ":{"ha":833,"x_min":49,"x_max":743,"o":"m 97 306 l 97 465 l 250 465 l 250 576 l 49 576 l 49 764 l 250 764 l 250 979 l 458 979 l 458 764 l 743 764 l 743 576 l 458 576 l 458 465 l 681 465 l 681 306 l 458 306 l 458 257 q 474 207 458 226 q 521 188 490 188 l 729 188 l 729 0 l 500 0 q 317 67 383 0 q 250 250 250 133 l 250 306 l 97 306 z "},"ť":{"ha":833,"x_min":49,"x_max":806,"o":"m 528 861 l 639 1076 l 806 1076 l 681 861 l 528 861 m 500 0 q 317 67 383 0 q 250 250 250 133 l 250 576 l 49 576 l 49 764 l 250 764 l 250 979 l 458 979 l 458 764 l 743 764 l 743 576 l 458 576 l 458 257 q 474 207 458 226 q 521 188 490 188 l 729 188 l 729 0 l 500 0 z "},"ţ":{"ha":833,"x_min":49,"x_max":743,"o":"m 347 -312 l 347 -215 l 458 -215 q 514 -199 493 -215 q 535 -165 535 -182 q 492 -115 535 -133 q 374 -96 450 -96 l 417 10 q 294 94 338 32 q 250 250 250 156 l 250 576 l 49 576 l 49 764 l 250 764 l 250 979 l 458 979 l 458 764 l 743 764 l 743 576 l 458 576 l 458 257 q 474 207 458 226 q 521 188 490 188 l 729 188 l 729 0 l 515 0 l 497 -54 q 585 -72 540 -57 q 663 -114 631 -86 q 694 -185 694 -142 q 641 -274 694 -236 q 500 -312 588 -312 l 347 -312 z "},"ț":{"ha":833,"x_min":49,"x_max":743,"o":"m 500 0 q 317 67 383 0 q 250 250 250 133 l 250 576 l 49 576 l 49 764 l 250 764 l 250 979 l 458 979 l 458 764 l 743 764 l 743 576 l 458 576 l 458 257 q 474 207 458 226 q 521 188 490 188 l 729 188 l 729 0 l 500 0 m 326 -333 l 458 -132 l 667 -132 l 507 -333 l 326 -333 z "},"u":{"ha":833,"x_min":89,"x_max":744,"o":"m 417 -14 q 176 69 263 -14 q 89 297 89 153 l 89 764 l 297 764 l 297 299 q 417 167 297 167 q 505 201 474 167 q 536 299 536 235 l 536 764 l 744 764 l 744 297 q 657 69 744 151 q 417 -14 569 -14 z "},"ú":{"ha":833,"x_min":89,"x_max":744,"o":"m 417 -14 q 176 69 263 -14 q 89 297 89 153 l 89 764 l 297 764 l 297 299 q 417 167 297 167 q 505 201 474 167 q 536 299 536 235 l 536 764 l 744 764 l 744 297 q 657 69 744 151 q 417 -14 569 -14 m 294 896 l 440 1090 l 664 1090 l 501 896 l 294 896 z "},"ŭ":{"ha":833,"x_min":89,"x_max":744,"o":"m 417 -14 q 176 69 263 -14 q 89 297 89 153 l 89 764 l 297 764 l 297 299 q 417 167 297 167 q 505 201 474 167 q 536 299 536 235 l 536 764 l 744 764 l 744 297 q 657 69 744 151 q 417 -14 569 -14 m 417 882 q 231 940 303 882 q 160 1090 160 997 l 319 1090 q 347 1027 319 1051 q 417 1003 374 1003 q 488 1027 461 1003 q 514 1090 514 1051 l 674 1090 q 603 940 674 997 q 417 882 532 882 z "},"ǔ":{"ha":833,"x_min":89,"x_max":744,"o":"m 417 -14 q 176 69 263 -14 q 89 297 89 153 l 89 764 l 297 764 l 297 299 q 417 167 297 167 q 505 201 474 167 q 536 299 536 235 l 536 764 l 744 764 l 744 297 q 657 69 744 151 q 417 -14 569 -14 m 319 896 l 132 1090 l 319 1090 l 419 993 l 513 1090 l 701 1090 l 514 896 l 319 896 z "},"û":{"ha":833,"x_min":89,"x_max":744,"o":"m 417 -14 q 176 69 263 -14 q 89 297 89 153 l 89 764 l 297 764 l 297 299 q 417 167 297 167 q 505 201 474 167 q 536 299 536 235 l 536 764 l 744 764 l 744 297 q 657 69 744 151 q 417 -14 569 -14 m 132 896 l 319 1090 l 514 1090 l 701 896 l 514 896 l 414 993 l 321 896 l 132 896 z "},"ü":{"ha":833,"x_min":89,"x_max":744,"o":"m 417 -14 q 176 69 263 -14 q 89 297 89 153 l 89 764 l 297 764 l 297 299 q 417 167 297 167 q 505 201 474 167 q 536 299 536 235 l 536 764 l 744 764 l 744 297 q 657 69 744 151 q 417 -14 569 -14 m 586 885 q 505 914 535 885 q 475 993 475 943 q 505 1072 475 1043 q 586 1101 535 1101 q 667 1072 638 1101 q 697 993 697 1043 q 667 914 697 943 q 586 885 638 885 m 247 885 q 166 914 196 885 q 136 993 136 943 q 166 1072 136 1043 q 247 1101 196 1101 q 328 1072 299 1101 q 358 993 358 1043 q 328 914 358 943 q 247 885 299 885 z "},"ǘ":{"ha":833,"x_min":89,"x_max":744,"o":"m 417 -14 q 176 69 263 -14 q 89 297 89 153 l 89 764 l 297 764 l 297 299 q 417 167 297 167 q 505 201 474 167 q 536 299 536 235 l 536 764 l 744 764 l 744 297 q 657 69 744 151 q 417 -14 569 -14 m 586 885 q 505 914 535 885 q 475 993 475 943 q 505 1072 475 1043 q 586 1101 535 1101 q 667 1072 638 1101 q 697 993 697 1043 q 667 914 697 943 q 586 885 638 885 m 247 885 q 166 914 196 885 q 136 993 136 943 q 166 1072 136 1043 q 247 1101 196 1101 q 328 1072 299 1101 q 358 993 358 1043 q 328 914 358 943 q 247 885 299 885 m 294 1233 l 440 1428 l 664 1428 l 501 1233 l 294 1233 z "},"ǚ":{"ha":833,"x_min":89,"x_max":744,"o":"m 417 -14 q 176 69 263 -14 q 89 297 89 153 l 89 764 l 297 764 l 297 299 q 417 167 297 167 q 505 201 474 167 q 536 299 536 235 l 536 764 l 744 764 l 744 297 q 657 69 744 151 q 417 -14 569 -14 m 586 885 q 505 914 535 885 q 475 993 475 943 q 505 1072 475 1043 q 586 1101 535 1101 q 667 1072 638 1101 q 697 993 697 1043 q 667 914 697 943 q 586 885 638 885 m 247 885 q 166 914 196 885 q 136 993 136 943 q 166 1072 136 1043 q 247 1101 196 1101 q 328 1072 299 1101 q 358 993 358 1043 q 328 914 358 943 q 247 885 299 885 m 319 1233 l 132 1428 l 319 1428 l 419 1331 l 513 1428 l 701 1428 l 514 1233 l 319 1233 z "},"ǜ":{"ha":833,"x_min":89,"x_max":744,"o":"m 417 -14 q 176 69 263 -14 q 89 297 89 153 l 89 764 l 297 764 l 297 299 q 417 167 297 167 q 505 201 474 167 q 536 299 536 235 l 536 764 l 744 764 l 744 297 q 657 69 744 151 q 417 -14 569 -14 m 586 885 q 505 914 535 885 q 475 993 475 943 q 505 1072 475 1043 q 586 1101 535 1101 q 667 1072 638 1101 q 697 993 697 1043 q 667 914 697 943 q 586 885 638 885 m 247 885 q 166 914 196 885 q 136 993 136 943 q 166 1072 136 1043 q 247 1101 196 1101 q 328 1072 299 1101 q 358 993 358 1043 q 328 914 358 943 q 247 885 299 885 m 329 1233 l 167 1428 l 396 1428 l 542 1233 l 329 1233 z "},"ǖ":{"ha":833,"x_min":89,"x_max":744,"o":"m 417 -14 q 176 69 263 -14 q 89 297 89 153 l 89 764 l 297 764 l 297 299 q 417 167 297 167 q 505 201 474 167 q 536 299 536 235 l 536 764 l 744 764 l 744 297 q 657 69 744 151 q 417 -14 569 -14 m 586 885 q 505 914 535 885 q 475 993 475 943 q 505 1072 475 1043 q 586 1101 535 1101 q 667 1072 638 1101 q 697 993 697 1043 q 667 914 697 943 q 586 885 638 885 m 247 885 q 166 914 196 885 q 136 993 136 943 q 166 1072 136 1043 q 247 1101 196 1101 q 328 1072 299 1101 q 358 993 358 1043 q 328 914 358 943 q 247 885 299 885 m 167 1247 l 167 1400 l 667 1400 l 667 1247 l 167 1247 z "},"ụ":{"ha":833,"x_min":89,"x_max":744,"o":"m 417 -14 q 176 69 263 -14 q 89 297 89 153 l 89 764 l 297 764 l 297 299 q 417 167 297 167 q 505 201 474 167 q 536 299 536 235 l 536 764 l 744 764 l 744 297 q 657 69 744 151 q 417 -14 569 -14 m 417 -324 q 326 -294 360 -324 q 292 -215 292 -265 q 326 -136 292 -165 q 417 -107 360 -107 q 508 -136 474 -107 q 542 -215 542 -165 q 508 -294 542 -265 q 417 -324 474 -324 z "},"ù":{"ha":833,"x_min":89,"x_max":744,"o":"m 417 -14 q 176 69 263 -14 q 89 297 89 153 l 89 764 l 297 764 l 297 299 q 417 167 297 167 q 505 201 474 167 q 536 299 536 235 l 536 764 l 744 764 l 744 297 q 657 69 744 151 q 417 -14 569 -14 m 329 896 l 167 1090 l 396 1090 l 542 896 l 329 896 z "},"ủ":{"ha":833,"x_min":89,"x_max":744,"o":"m 417 -14 q 176 69 263 -14 q 89 297 89 153 l 89 764 l 297 764 l 297 299 q 417 167 297 167 q 505 201 474 167 q 536 299 536 235 l 536 764 l 744 764 l 744 297 q 657 69 744 151 q 417 -14 569 -14 m 338 896 l 406 976 q 426 1017 426 1001 q 389 1040 426 1040 l 278 1040 l 278 1158 l 424 1158 q 529 1126 489 1158 q 569 1039 569 1093 q 539 954 569 992 l 490 896 l 338 896 z "},"ư":{"ha":833,"x_min":89,"x_max":882,"o":"m 89 290 l 89 764 l 297 764 l 297 286 q 389 167 297 167 q 481 286 481 167 l 481 764 l 667 764 q 715 813 715 764 l 715 917 l 882 917 l 882 813 q 831 676 882 728 q 689 625 779 625 l 689 290 q 609 67 689 147 q 389 -14 529 -14 q 169 67 249 -14 q 89 290 89 147 z "},"ứ":{"ha":833,"x_min":89,"x_max":882,"o":"m 89 290 l 89 764 l 297 764 l 297 286 q 389 167 297 167 q 481 286 481 167 l 481 764 l 667 764 q 715 813 715 764 l 715 917 l 882 917 l 882 813 q 831 676 882 728 q 689 625 779 625 l 689 290 q 609 67 689 147 q 389 -14 529 -14 q 169 67 249 -14 q 89 290 89 147 m 267 896 l 413 1090 l 636 1090 l 474 896 l 267 896 z "},"ự":{"ha":833,"x_min":89,"x_max":882,"o":"m 89 290 l 89 764 l 297 764 l 297 286 q 389 167 297 167 q 481 286 481 167 l 481 764 l 667 764 q 715 813 715 764 l 715 917 l 882 917 l 882 813 q 831 676 882 728 q 689 625 779 625 l 689 290 q 609 67 689 147 q 389 -14 529 -14 q 169 67 249 -14 q 89 290 89 147 m 389 -324 q 298 -294 332 -324 q 264 -215 264 -265 q 298 -136 264 -165 q 389 -107 332 -107 q 480 -136 446 -107 q 514 -215 514 -165 q 480 -294 514 -265 q 389 -324 446 -324 z "},"ừ":{"ha":833,"x_min":89,"x_max":882,"o":"m 89 290 l 89 764 l 297 764 l 297 286 q 389 167 297 167 q 481 286 481 167 l 481 764 l 667 764 q 715 813 715 764 l 715 917 l 882 917 l 882 813 q 831 676 882 728 q 689 625 779 625 l 689 290 q 609 67 689 147 q 389 -14 529 -14 q 169 67 249 -14 q 89 290 89 147 m 301 896 l 139 1090 l 368 1090 l 514 896 l 301 896 z "},"ử":{"ha":833,"x_min":89,"x_max":882,"o":"m 89 290 l 89 764 l 297 764 l 297 286 q 389 167 297 167 q 481 286 481 167 l 481 764 l 667 764 q 715 813 715 764 l 715 917 l 882 917 l 882 813 q 831 676 882 728 q 689 625 779 625 l 689 290 q 609 67 689 147 q 389 -14 529 -14 q 169 67 249 -14 q 89 290 89 147 m 310 896 l 378 976 q 399 1017 399 1001 q 361 1040 399 1040 l 250 1040 l 250 1158 l 396 1158 q 501 1126 461 1158 q 542 1039 542 1093 q 511 954 542 992 l 463 896 l 310 896 z "},"ữ":{"ha":833,"x_min":89,"x_max":882,"o":"m 89 290 l 89 764 l 297 764 l 297 286 q 389 167 297 167 q 481 286 481 167 l 481 764 l 667 764 q 715 813 715 764 l 715 917 l 882 917 l 882 813 q 831 676 882 728 q 689 625 779 625 l 689 290 q 609 67 689 147 q 389 -14 529 -14 q 169 67 249 -14 q 89 290 89 147 m 486 882 q 415 894 442 882 q 369 924 388 907 q 335 953 351 940 q 299 965 319 965 q 269 953 281 965 q 257 919 257 940 l 257 889 l 139 889 l 139 938 q 181 1057 139 1010 q 292 1104 224 1104 q 363 1092 336 1104 q 408 1063 390 1079 q 442 1033 426 1046 q 479 1021 458 1021 q 521 1060 521 1021 l 521 1097 l 639 1097 l 639 1049 q 597 929 639 976 q 486 882 556 882 z "},"ű":{"ha":833,"x_min":89,"x_max":792,"o":"m 417 -14 q 176 69 263 -14 q 89 297 89 153 l 89 764 l 297 764 l 297 299 q 417 167 297 167 q 505 201 474 167 q 536 299 536 235 l 536 764 l 744 764 l 744 297 q 657 69 744 151 q 417 -14 569 -14 m 447 896 l 593 1090 l 792 1090 l 632 896 l 447 896 m 146 896 l 292 1090 l 490 1090 l 331 896 l 146 896 z "},"ū":{"ha":833,"x_min":89,"x_max":744,"o":"m 417 -14 q 176 69 263 -14 q 89 297 89 153 l 89 764 l 297 764 l 297 299 q 417 167 297 167 q 505 201 474 167 q 536 299 536 235 l 536 764 l 744 764 l 744 297 q 657 69 744 151 q 417 -14 569 -14 m 167 910 l 167 1063 l 667 1063 l 667 910 l 167 910 z "},"ų":{"ha":833,"x_min":89,"x_max":744,"o":"m 499 -312 q 365 -270 414 -312 q 317 -160 317 -228 q 414 -14 317 -87 q 176 71 263 -12 q 89 292 89 154 l 89 764 l 297 764 l 297 292 q 417 167 297 167 q 536 292 536 167 l 536 764 l 744 764 l 744 292 q 713 149 744 214 q 624 43 681 83 l 546 -25 q 503 -73 518 -49 q 489 -115 489 -97 q 506 -151 489 -136 q 553 -167 522 -167 l 649 -167 l 649 -312 l 499 -312 z "},"ů":{"ha":833,"x_min":89,"x_max":744,"o":"m 417 -14 q 176 69 263 -14 q 89 297 89 153 l 89 764 l 297 764 l 297 299 q 417 167 297 167 q 505 201 474 167 q 536 299 536 235 l 536 764 l 744 764 l 744 297 q 657 69 744 151 q 417 -14 569 -14 m 417 832 q 276 881 329 832 q 222 1008 222 929 q 276 1136 222 1088 q 417 1185 329 1185 q 558 1136 504 1185 q 611 1008 611 1088 q 558 881 611 929 q 417 832 504 832 m 417 929 q 477 951 454 929 q 500 1008 500 974 q 477 1066 500 1044 q 417 1088 454 1088 q 356 1066 379 1088 q 333 1008 333 1044 q 356 951 333 974 q 417 929 379 929 z "},"ũ":{"ha":833,"x_min":89,"x_max":744,"o":"m 417 -14 q 176 69 263 -14 q 89 297 89 153 l 89 764 l 297 764 l 297 299 q 417 167 297 167 q 505 201 474 167 q 536 299 536 235 l 536 764 l 744 764 l 744 297 q 657 69 744 151 q 417 -14 569 -14 m 514 882 q 442 894 469 882 q 397 924 415 907 q 363 953 379 940 q 326 965 347 965 q 297 953 308 965 q 285 919 285 940 l 285 889 l 167 889 l 167 938 q 209 1057 167 1010 q 319 1104 251 1104 q 391 1092 364 1104 q 436 1063 418 1079 q 470 1033 454 1046 q 507 1021 486 1021 q 549 1060 549 1021 l 549 1097 l 667 1097 l 667 1049 q 625 929 667 976 q 514 882 583 882 z "},"v":{"ha":833,"x_min":28,"x_max":806,"o":"m 288 0 l 28 764 l 243 764 l 382 335 q 404 250 394 296 q 419 176 414 204 q 436 250 426 204 q 457 333 446 296 l 593 764 l 806 764 l 549 0 l 288 0 z "},"w":{"ha":833,"x_min":14,"x_max":819,"o":"m 125 0 l 14 764 l 174 764 l 229 347 q 239 243 236 301 q 244 147 242 185 l 253 147 q 263 242 257 186 q 275 347 268 299 l 339 764 l 497 764 l 558 347 q 571 242 565 300 q 581 146 576 183 l 589 146 q 596 242 592 185 q 606 347 600 300 l 664 764 l 819 764 l 707 0 l 499 0 l 442 431 q 430 524 436 469 q 421 614 424 578 l 414 614 q 404 524 410 578 q 393 431 399 469 l 335 0 l 125 0 z "},"ẃ":{"ha":833,"x_min":14,"x_max":819,"o":"m 125 0 l 14 764 l 174 764 l 229 347 q 239 243 236 301 q 244 147 242 185 l 253 147 q 263 242 257 186 q 275 347 268 299 l 339 764 l 497 764 l 558 347 q 571 242 565 300 q 581 146 576 183 l 589 146 q 596 242 592 185 q 606 347 600 300 l 664 764 l 819 764 l 707 0 l 499 0 l 442 431 q 430 524 436 469 q 421 614 424 578 l 414 614 q 404 524 410 578 q 393 431 399 469 l 335 0 l 125 0 m 294 896 l 440 1090 l 664 1090 l 501 896 l 294 896 z "},"ŵ":{"ha":833,"x_min":14,"x_max":819,"o":"m 125 0 l 14 764 l 174 764 l 229 347 q 239 243 236 301 q 244 147 242 185 l 253 147 q 263 242 257 186 q 275 347 268 299 l 339 764 l 497 764 l 558 347 q 571 242 565 300 q 581 146 576 183 l 589 146 q 596 242 592 185 q 606 347 600 300 l 664 764 l 819 764 l 707 0 l 499 0 l 442 431 q 430 524 436 469 q 421 614 424 578 l 414 614 q 404 524 410 578 q 393 431 399 469 l 335 0 l 125 0 m 132 896 l 319 1090 l 514 1090 l 701 896 l 514 896 l 414 993 l 321 896 l 132 896 z "},"ẅ":{"ha":833,"x_min":14,"x_max":819,"o":"m 125 0 l 14 764 l 174 764 l 229 347 q 239 243 236 301 q 244 147 242 185 l 253 147 q 263 242 257 186 q 275 347 268 299 l 339 764 l 497 764 l 558 347 q 571 242 565 300 q 581 146 576 183 l 589 146 q 596 242 592 185 q 606 347 600 300 l 664 764 l 819 764 l 707 0 l 499 0 l 442 431 q 430 524 436 469 q 421 614 424 578 l 414 614 q 404 524 410 578 q 393 431 399 469 l 335 0 l 125 0 m 586 885 q 505 914 535 885 q 475 993 475 943 q 505 1072 475 1043 q 586 1101 535 1101 q 667 1072 638 1101 q 697 993 697 1043 q 667 914 697 943 q 586 885 638 885 m 247 885 q 166 914 196 885 q 136 993 136 943 q 166 1072 136 1043 q 247 1101 196 1101 q 328 1072 299 1101 q 358 993 358 1043 q 328 914 358 943 q 247 885 299 885 z "},"ẁ":{"ha":833,"x_min":14,"x_max":819,"o":"m 125 0 l 14 764 l 174 764 l 229 347 q 239 243 236 301 q 244 147 242 185 l 253 147 q 263 242 257 186 q 275 347 268 299 l 339 764 l 497 764 l 558 347 q 571 242 565 300 q 581 146 576 183 l 589 146 q 596 242 592 185 q 606 347 600 300 l 664 764 l 819 764 l 707 0 l 499 0 l 442 431 q 430 524 436 469 q 421 614 424 578 l 414 614 q 404 524 410 578 q 393 431 399 469 l 335 0 l 125 0 m 329 896 l 167 1090 l 396 1090 l 542 896 l 329 896 z "},"x":{"ha":833,"x_min":36,"x_max":797,"o":"m 36 0 l 300 396 l 54 764 l 286 764 l 381 611 q 401 571 392 593 q 417 535 411 549 q 433 571 422 549 q 453 611 443 593 l 547 764 l 779 764 l 535 396 l 797 0 l 565 0 l 454 181 q 433 222 443 200 q 417 257 422 243 q 401 222 411 243 q 381 181 392 200 l 268 0 l 36 0 z "},"y":{"ha":833,"x_min":26,"x_max":807,"o":"m 218 -250 l 322 38 l 26 764 l 253 764 l 378 431 q 404 340 392 393 q 424 253 417 286 q 443 340 431 286 q 469 431 456 393 l 590 764 l 807 764 l 436 -250 l 218 -250 z "},"ý":{"ha":833,"x_min":26,"x_max":807,"o":"m 218 -250 l 322 38 l 26 764 l 253 764 l 378 431 q 404 340 392 393 q 424 253 417 286 q 443 340 431 286 q 469 431 456 393 l 590 764 l 807 764 l 436 -250 l 218 -250 m 294 896 l 440 1090 l 664 1090 l 501 896 l 294 896 z "},"ŷ":{"ha":833,"x_min":26,"x_max":807,"o":"m 218 -250 l 322 38 l 26 764 l 253 764 l 378 431 q 404 340 392 393 q 424 253 417 286 q 443 340 431 286 q 469 431 456 393 l 590 764 l 807 764 l 436 -250 l 218 -250 m 132 896 l 319 1090 l 514 1090 l 701 896 l 514 896 l 414 993 l 321 896 l 132 896 z "},"ÿ":{"ha":833,"x_min":26,"x_max":807,"o":"m 218 -250 l 322 38 l 26 764 l 253 764 l 378 431 q 404 340 392 393 q 424 253 417 286 q 443 340 431 286 q 469 431 456 393 l 590 764 l 807 764 l 436 -250 l 218 -250 m 586 885 q 505 914 535 885 q 475 993 475 943 q 505 1072 475 1043 q 586 1101 535 1101 q 667 1072 638 1101 q 697 993 697 1043 q 667 914 697 943 q 586 885 638 885 m 247 885 q 166 914 196 885 q 136 993 136 943 q 166 1072 136 1043 q 247 1101 196 1101 q 328 1072 299 1101 q 358 993 358 1043 q 328 914 358 943 q 247 885 299 885 z "},"ỵ":{"ha":833,"x_min":26,"x_max":819,"o":"m 218 -250 l 322 38 l 26 764 l 253 764 l 378 431 q 404 340 392 393 q 424 253 417 286 q 443 340 431 286 q 469 431 456 393 l 590 764 l 807 764 l 436 -250 l 218 -250 m 694 -324 q 603 -294 638 -324 q 569 -215 569 -265 q 603 -136 569 -165 q 694 -107 638 -107 q 785 -136 751 -107 q 819 -215 819 -165 q 785 -294 819 -265 q 694 -324 751 -324 z "},"ỳ":{"ha":833,"x_min":26,"x_max":807,"o":"m 218 -250 l 322 38 l 26 764 l 253 764 l 378 431 q 404 340 392 393 q 424 253 417 286 q 443 340 431 286 q 469 431 456 393 l 590 764 l 807 764 l 436 -250 l 218 -250 m 329 896 l 167 1090 l 396 1090 l 542 896 l 329 896 z "},"ỷ":{"ha":833,"x_min":26,"x_max":807,"o":"m 218 -250 l 322 38 l 26 764 l 253 764 l 378 431 q 404 340 392 393 q 424 253 417 286 q 443 340 431 286 q 469 431 456 393 l 590 764 l 807 764 l 436 -250 l 218 -250 m 338 896 l 406 976 q 426 1017 426 1001 q 389 1040 426 1040 l 278 1040 l 278 1158 l 424 1158 q 529 1126 489 1158 q 569 1039 569 1093 q 539 954 569 992 l 490 896 l 338 896 z "},"ȳ":{"ha":833,"x_min":26,"x_max":807,"o":"m 218 -250 l 322 38 l 26 764 l 253 764 l 378 431 q 404 340 392 393 q 424 253 417 286 q 443 340 431 286 q 469 431 456 393 l 590 764 l 807 764 l 436 -250 l 218 -250 m 167 910 l 167 1063 l 667 1063 l 667 910 l 167 910 z "},"ỹ":{"ha":833,"x_min":26,"x_max":807,"o":"m 218 -250 l 322 38 l 26 764 l 253 764 l 378 431 q 404 340 392 393 q 424 253 417 286 q 443 340 431 286 q 469 431 456 393 l 590 764 l 807 764 l 436 -250 l 218 -250 m 514 882 q 442 894 469 882 q 397 924 415 907 q 363 953 379 940 q 326 965 347 965 q 297 953 308 965 q 285 919 285 940 l 285 889 l 167 889 l 167 938 q 209 1057 167 1010 q 319 1104 251 1104 q 391 1092 364 1104 q 436 1063 418 1079 q 470 1033 454 1046 q 507 1021 486 1021 q 549 1060 549 1021 l 549 1097 l 667 1097 l 667 1049 q 625 929 667 976 q 514 882 583 882 z "},"z":{"ha":833,"x_min":97,"x_max":736,"o":"m 97 0 l 97 181 l 475 583 l 111 583 l 111 764 l 721 764 l 721 583 l 343 181 l 736 181 l 736 0 l 97 0 z "},"ź":{"ha":833,"x_min":97,"x_max":736,"o":"m 97 0 l 97 181 l 475 583 l 111 583 l 111 764 l 721 764 l 721 583 l 343 181 l 736 181 l 736 0 l 97 0 m 294 896 l 440 1090 l 664 1090 l 501 896 l 294 896 z "},"ž":{"ha":833,"x_min":97,"x_max":736,"o":"m 97 0 l 97 181 l 475 583 l 111 583 l 111 764 l 721 764 l 721 583 l 343 181 l 736 181 l 736 0 l 97 0 m 319 896 l 132 1090 l 319 1090 l 419 993 l 513 1090 l 701 1090 l 514 896 l 319 896 z "},"ż":{"ha":833,"x_min":97,"x_max":736,"o":"m 97 0 l 97 181 l 475 583 l 111 583 l 111 764 l 721 764 l 721 583 l 343 181 l 736 181 l 736 0 l 97 0 m 417 885 q 326 914 360 885 q 292 993 292 943 q 326 1072 292 1043 q 417 1101 360 1101 q 508 1072 474 1101 q 542 993 542 1043 q 508 914 542 943 q 417 885 474 885 z "},"ª":{"ha":833,"x_min":229,"x_max":597,"o":"m 367 625 q 267 658 306 625 q 229 747 229 692 q 273 835 229 801 q 389 868 317 868 l 486 868 l 486 903 q 469 933 486 922 q 424 944 451 944 q 381 935 397 944 q 361 910 364 925 l 250 910 q 308 995 261 963 q 424 1028 356 1028 q 549 994 501 1028 q 597 903 597 960 l 597 632 l 490 632 l 490 708 l 486 708 q 439 647 471 669 q 367 625 407 625 m 399 701 q 462 721 438 701 q 486 771 486 740 l 486 799 l 389 799 q 353 786 367 799 q 340 750 340 774 q 357 715 340 729 q 399 701 374 701 z "},"º":{"ha":833,"x_min":229,"x_max":604,"o":"m 417 625 q 281 673 332 625 q 229 793 229 721 l 229 861 q 281 982 229 936 q 417 1028 332 1028 q 553 982 501 1028 q 604 861 604 936 l 604 793 q 553 673 604 721 q 417 625 501 625 m 417 722 q 472 742 451 722 q 493 793 493 761 l 493 861 q 472 912 493 893 q 417 931 451 931 q 361 912 382 931 q 340 861 340 893 l 340 793 q 361 742 340 761 q 417 722 382 722 z "},"А":{"ha":833,"x_min":35,"x_max":799,"o":"m 35 0 l 283 1014 l 547 1014 l 799 0 l 586 0 l 538 229 l 296 229 l 247 0 l 35 0 m 331 396 l 501 396 l 453 640 q 433 745 443 693 q 417 826 422 797 q 402 746 411 797 q 382 642 393 694 l 331 396 z "},"Б":{"ha":833,"x_min":92,"x_max":778,"o":"m 92 0 l 92 1014 l 733 1014 l 733 826 l 293 826 l 293 617 l 429 617 q 613 578 535 617 q 734 472 690 540 q 778 310 778 403 q 734 147 778 217 q 613 39 690 78 q 431 0 535 0 l 92 0 m 293 174 l 431 174 q 532 210 494 174 q 569 307 569 246 q 532 406 569 369 q 431 443 494 443 l 293 443 l 293 174 z "},"В":{"ha":833,"x_min":92,"x_max":778,"o":"m 92 0 l 92 1014 l 418 1014 q 595 981 519 1014 q 713 890 671 949 q 756 754 756 832 q 709 610 756 668 q 583 538 663 553 q 725 457 672 522 q 778 293 778 392 q 734 140 778 206 q 613 37 690 74 q 431 0 535 0 l 92 0 m 293 606 l 415 606 q 511 638 476 606 q 546 726 546 671 q 511 815 546 783 q 415 846 476 846 l 293 846 l 293 606 m 293 168 l 422 168 q 529 204 490 168 q 568 304 568 240 q 529 405 568 368 q 422 442 490 442 l 293 442 l 293 168 z "},"Г":{"ha":833,"x_min":160,"x_max":778,"o":"m 160 0 l 160 1014 l 778 1014 l 778 826 l 368 826 l 368 0 l 160 0 z "},"Ѓ":{"ha":833,"x_min":160,"x_max":778,"o":"m 160 0 l 160 1014 l 778 1014 l 778 826 l 368 826 l 368 0 l 160 0 m 322 1125 l 468 1319 l 692 1319 l 529 1125 l 322 1125 z "},"Ґ":{"ha":833,"x_min":160,"x_max":778,"o":"m 160 0 l 160 1014 l 576 1014 l 576 1146 l 778 1146 l 778 819 l 368 819 l 368 0 l 160 0 z "},"Д":{"ha":833,"x_min":31,"x_max":803,"o":"m 31 -194 l 31 174 l 74 174 q 122 291 97 210 q 149 472 147 372 l 157 1014 l 719 1014 l 719 174 l 803 174 l 803 -194 l 608 -194 l 608 0 l 225 0 l 225 -194 l 31 -194 m 278 174 l 525 174 l 525 840 l 349 840 l 343 474 q 332 351 343 410 q 306 246 321 292 q 278 174 292 200 z "},"Е":{"ha":833,"x_min":111,"x_max":736,"o":"m 111 0 l 111 1014 l 736 1014 l 736 833 l 315 833 l 315 606 l 688 606 l 688 433 l 315 433 l 315 181 l 736 181 l 736 0 l 111 0 z "},"Ё":{"ha":833,"x_min":111,"x_max":736,"o":"m 111 0 l 111 1014 l 736 1014 l 736 833 l 315 833 l 315 606 l 688 606 l 688 433 l 315 433 l 315 181 l 736 181 l 736 0 l 111 0 m 614 1114 q 533 1143 563 1114 q 503 1222 503 1172 q 533 1301 503 1272 q 614 1331 563 1331 q 695 1301 665 1331 q 725 1222 725 1272 q 695 1143 725 1172 q 614 1114 665 1114 m 275 1114 q 194 1143 224 1114 q 164 1222 164 1172 q 194 1301 164 1272 q 275 1331 224 1331 q 356 1301 326 1331 q 386 1222 386 1272 q 356 1143 386 1172 q 275 1114 326 1114 z "},"Ж":{"ha":833,"x_min":14,"x_max":819,"o":"m 14 0 l 144 513 l 22 1014 l 190 1014 l 299 551 l 343 551 l 343 1014 l 485 1014 l 485 551 l 531 551 l 642 1014 l 806 1014 l 683 517 l 819 0 l 653 0 l 533 476 l 485 476 l 492 0 l 350 0 l 343 476 l 296 476 l 182 0 l 14 0 z "},"З":{"ha":833,"x_min":49,"x_max":771,"o":"m 410 -14 q 225 24 306 -14 q 98 128 144 61 q 49 285 51 196 l 257 285 q 301 199 261 232 q 406 167 342 167 q 517 204 475 167 q 558 303 558 242 q 516 403 558 365 q 404 440 474 440 l 264 440 l 264 607 l 407 607 q 507 640 469 607 q 544 726 544 672 q 507 814 544 781 q 407 847 469 847 q 306 814 344 847 q 268 726 268 781 l 60 726 q 104 885 60 818 q 230 990 149 953 q 418 1028 311 1028 q 597 993 521 1028 q 715 896 672 958 q 757 750 757 833 q 716 609 757 665 q 603 538 675 553 q 726 460 681 522 q 771 301 771 399 q 726 135 771 207 q 599 25 681 64 q 410 -14 518 -14 z "},"И":{"ha":833,"x_min":83,"x_max":750,"o":"m 83 0 l 83 1014 l 267 1014 l 267 569 q 263 460 267 522 q 256 336 260 397 q 247 229 251 275 l 507 1014 l 750 1014 l 750 0 l 567 0 l 567 417 q 570 532 567 465 q 579 667 574 599 q 589 785 585 735 l 326 0 l 83 0 z "},"Й":{"ha":833,"x_min":83,"x_max":750,"o":"m 83 0 l 83 1014 l 267 1014 l 267 569 q 263 460 267 522 q 256 336 260 397 q 247 229 251 275 l 507 1014 l 750 1014 l 750 0 l 567 0 l 567 417 q 570 532 567 465 q 579 667 574 599 q 589 785 585 735 l 326 0 l 83 0 m 417 1111 q 232 1169 303 1111 q 161 1319 161 1226 l 321 1319 q 347 1256 321 1281 q 417 1232 374 1232 q 488 1256 461 1232 q 514 1319 514 1281 l 674 1319 q 603 1169 674 1226 q 417 1111 532 1111 z "},"К":{"ha":833,"x_min":90,"x_max":799,"o":"m 90 0 l 90 1014 l 299 1014 l 299 615 l 396 615 l 565 1014 l 790 1014 l 579 533 l 799 0 l 571 0 l 397 435 l 299 435 l 299 0 l 90 0 z "},"Ќ":{"ha":833,"x_min":90,"x_max":799,"o":"m 90 0 l 90 1014 l 299 1014 l 299 615 l 396 615 l 565 1014 l 790 1014 l 579 533 l 799 0 l 571 0 l 397 435 l 299 435 l 299 0 l 90 0 m 294 1125 l 440 1319 l 664 1319 l 501 1125 l 294 1125 z "},"Л":{"ha":833,"x_min":21,"x_max":742,"o":"m 21 -7 l 21 181 l 63 181 q 122 219 99 181 q 147 319 146 258 l 158 1014 l 742 1014 l 742 0 l 533 0 l 533 826 l 363 826 l 354 319 q 277 81 353 169 q 76 -7 201 -7 l 21 -7 z "},"М":{"ha":833,"x_min":58,"x_max":775,"o":"m 58 0 l 58 1014 l 293 1014 l 383 694 q 406 607 399 644 q 415 554 414 569 q 424 607 417 569 q 446 694 432 644 l 539 1014 l 775 1014 l 775 0 l 585 0 l 585 389 q 597 663 585 542 q 619 889 608 783 l 501 431 l 328 431 l 210 872 q 235 665 222 782 q 249 389 249 549 l 249 0 l 58 0 z "},"Н":{"ha":833,"x_min":92,"x_max":742,"o":"m 92 0 l 92 1014 l 300 1014 l 300 625 l 533 625 l 533 1014 l 742 1014 l 742 0 l 533 0 l 533 438 l 300 438 l 300 0 l 92 0 z "},"О":{"ha":833,"x_min":83,"x_max":750,"o":"m 417 -14 q 240 24 315 -14 q 124 131 165 63 q 83 292 83 200 l 83 722 q 124 883 83 814 q 240 990 165 951 q 417 1028 315 1028 q 594 990 519 1028 q 709 883 668 951 q 750 722 750 814 l 750 292 q 709 131 750 200 q 594 24 668 63 q 417 -14 519 -14 m 417 167 q 542 292 542 167 l 542 722 q 417 847 542 847 q 292 722 292 847 l 292 292 q 417 167 292 167 z "},"П":{"ha":833,"x_min":92,"x_max":742,"o":"m 92 0 l 92 1014 l 742 1014 l 742 0 l 533 0 l 533 826 l 300 826 l 300 0 l 92 0 z "},"Р":{"ha":833,"x_min":92,"x_max":792,"o":"m 92 0 l 92 1014 l 438 1014 q 624 974 544 1014 q 748 861 704 933 q 792 692 792 789 q 747 523 792 596 q 624 410 703 450 q 438 369 544 369 l 300 369 l 300 0 l 92 0 m 300 550 l 438 550 q 544 590 504 550 q 583 692 583 631 q 544 793 583 753 q 438 833 504 833 l 300 833 l 300 550 z "},"С":{"ha":833,"x_min":83,"x_max":761,"o":"m 422 -14 q 244 24 321 -14 q 126 131 168 63 q 83 292 83 200 l 83 722 q 126 883 83 815 q 244 990 168 951 q 422 1028 321 1028 q 601 990 525 1028 q 719 883 676 951 q 761 722 761 815 l 553 722 q 519 815 553 783 q 422 847 485 847 q 326 815 360 847 q 292 722 292 783 l 292 292 q 326 199 292 232 q 422 167 360 167 q 519 199 485 167 q 553 292 553 232 l 761 292 q 719 131 761 200 q 601 24 676 63 q 422 -14 525 -14 z "},"Т":{"ha":833,"x_min":56,"x_max":778,"o":"m 313 0 l 313 826 l 56 826 l 56 1014 l 778 1014 l 778 826 l 521 826 l 521 0 l 313 0 z "},"У":{"ha":833,"x_min":35,"x_max":799,"o":"m 224 0 l 328 257 l 35 1014 l 260 1014 l 393 601 q 413 525 404 568 q 426 454 422 482 q 437 526 429 482 q 454 601 444 569 l 581 1014 l 799 1014 l 442 0 l 224 0 z "},"Ў":{"ha":833,"x_min":35,"x_max":799,"o":"m 224 0 l 328 257 l 35 1014 l 260 1014 l 393 601 q 413 525 404 568 q 426 454 422 482 q 437 526 429 482 q 454 601 444 569 l 581 1014 l 799 1014 l 442 0 l 224 0 m 417 1111 q 232 1169 303 1111 q 161 1319 161 1226 l 321 1319 q 347 1256 321 1281 q 417 1232 374 1232 q 488 1256 461 1232 q 514 1319 514 1281 l 674 1319 q 603 1169 674 1226 q 417 1111 532 1111 z "},"Ф":{"ha":833,"x_min":42,"x_max":792,"o":"m 333 -35 l 333 63 q 181 101 247 63 q 78 208 115 139 q 42 367 42 276 l 42 668 q 78 828 42 760 q 181 934 115 896 q 333 972 247 972 l 333 1069 l 500 1069 l 500 972 q 653 934 588 972 q 755 828 718 896 q 792 668 792 760 l 792 367 q 755 208 792 276 q 653 101 718 139 q 500 63 588 63 l 500 -35 l 333 -35 m 342 224 l 342 813 q 252 773 286 813 q 218 668 218 733 l 218 367 q 252 263 218 303 q 342 224 286 224 m 492 224 q 581 263 547 224 q 615 367 615 303 l 615 668 q 581 773 615 733 q 492 813 547 813 l 492 224 z "},"Х":{"ha":833,"x_min":28,"x_max":806,"o":"m 28 0 l 300 524 l 46 1014 l 275 1014 l 381 792 q 406 736 396 761 q 419 700 417 711 q 432 736 422 711 q 456 792 442 761 l 564 1014 l 788 1014 l 533 524 l 806 0 l 576 0 l 454 250 q 429 307 440 281 q 413 347 418 333 q 399 307 408 333 q 374 250 389 281 l 251 0 l 28 0 z "},"Ч":{"ha":833,"x_min":69,"x_max":736,"o":"m 528 0 l 528 383 q 465 373 507 378 q 375 368 422 368 q 69 647 69 368 l 69 1014 l 278 1014 l 278 660 q 424 556 278 556 q 485 560 456 556 q 528 569 514 564 l 528 1014 l 736 1014 l 736 0 l 528 0 z "},"Ц":{"ha":833,"x_min":92,"x_max":803,"o":"m 608 -194 l 608 0 l 92 0 l 92 1014 l 300 1014 l 300 188 l 490 188 l 490 1014 l 699 1014 l 699 188 l 803 188 l 803 -194 l 608 -194 z "},"Ш":{"ha":833,"x_min":56,"x_max":778,"o":"m 56 0 l 56 1014 l 226 1014 l 226 139 l 344 139 l 344 1014 l 489 1014 l 489 139 l 607 139 l 607 1014 l 778 1014 l 778 0 l 56 0 z "},"Щ":{"ha":833,"x_min":54,"x_max":815,"o":"m 635 -194 l 635 0 l 54 0 l 54 1014 l 211 1014 l 211 139 l 321 139 l 321 1014 l 458 1014 l 458 139 l 568 139 l 568 1014 l 725 1014 l 725 139 l 815 139 l 815 -194 l 635 -194 z "},"Џ":{"ha":833,"x_min":92,"x_max":742,"o":"m 313 -174 l 313 0 l 92 0 l 92 1014 l 300 1014 l 300 194 l 533 194 l 533 1014 l 742 1014 l 742 0 l 521 0 l 521 -174 l 313 -174 z "},"Ь":{"ha":833,"x_min":92,"x_max":792,"o":"m 92 0 l 92 1014 l 300 1014 l 300 618 l 431 618 q 622 580 540 618 q 747 473 703 542 q 792 310 792 404 q 747 147 792 217 q 622 38 703 76 q 431 0 540 0 l 92 0 m 300 181 l 431 181 q 542 215 500 181 q 583 308 583 250 q 542 403 583 368 q 431 438 500 438 l 300 438 l 300 181 z "},"Ъ":{"ha":833,"x_min":-7,"x_max":792,"o":"m 153 0 l 153 847 l -7 847 l -7 1014 l 361 1014 l 361 618 l 431 618 q 622 580 540 618 q 747 473 703 542 q 792 310 792 404 q 747 147 792 217 q 622 38 703 76 q 431 0 540 0 l 153 0 m 361 181 l 431 181 q 542 215 500 181 q 583 308 583 250 q 542 403 583 368 q 431 438 500 438 l 361 438 l 361 181 z "},"Ы":{"ha":833,"x_min":56,"x_max":778,"o":"m 56 0 l 56 1014 l 229 1014 l 229 618 l 264 618 q 458 547 388 618 q 528 353 528 476 l 528 264 q 458 71 528 142 q 264 0 388 0 l 56 0 m 604 0 l 604 1014 l 778 1014 l 778 0 l 604 0 m 229 160 l 264 160 q 335 187 310 160 q 361 265 361 214 l 361 350 q 335 431 361 403 q 264 458 310 458 l 229 458 l 229 160 z "},"Љ":{"ha":833,"x_min":-14,"x_max":819,"o":"m -14 -7 l -14 153 l 14 153 q 74 189 51 153 q 97 285 96 225 l 107 1014 l 549 1014 l 549 618 l 556 618 q 749 550 678 618 q 819 360 819 482 l 819 257 q 749 68 819 136 q 556 0 678 0 l 382 0 l 382 861 l 271 861 l 264 285 q 198 74 263 154 q 28 -7 133 -7 l -14 -7 m 549 153 l 556 153 q 627 180 601 153 q 653 258 653 207 l 653 357 q 627 438 653 410 q 556 465 601 465 l 549 465 l 549 153 z "},"Њ":{"ha":833,"x_min":56,"x_max":819,"o":"m 56 0 l 56 1014 l 222 1014 l 222 632 l 382 632 l 382 1014 l 549 1014 l 549 632 l 556 632 q 749 563 679 632 q 819 374 819 494 l 819 257 q 749 69 819 138 q 556 0 679 0 l 382 0 l 382 479 l 222 479 l 222 0 l 56 0 m 549 153 l 556 153 q 628 181 603 153 q 653 258 653 208 l 653 371 q 627 451 653 424 q 556 479 601 479 l 549 479 l 549 153 z "},"Ѕ":{"ha":833,"x_min":65,"x_max":768,"o":"m 417 -14 q 231 22 310 -14 q 108 124 151 58 q 65 278 65 189 l 274 278 q 313 197 274 226 q 421 167 353 167 q 523 196 486 167 q 560 276 560 225 q 532 353 560 321 q 454 396 504 385 l 351 419 q 151 533 222 450 q 79 735 79 615 q 169 948 79 868 q 414 1028 260 1028 q 660 951 569 1028 q 751 743 751 874 l 543 743 q 509 819 543 792 q 411 847 475 847 q 319 819 351 847 q 288 738 288 792 q 315 666 288 697 q 393 624 342 635 l 494 600 q 699 490 629 569 q 768 286 768 410 q 724 129 768 197 q 602 24 681 61 q 417 -14 524 -14 z "},"Є":{"ha":833,"x_min":83,"x_max":761,"o":"m 422 -14 q 244 24 321 -14 q 126 131 168 63 q 83 292 83 200 l 83 722 q 126 883 83 815 q 244 990 168 951 q 422 1028 321 1028 q 601 990 525 1028 q 719 883 676 951 q 761 722 761 815 l 553 722 q 519 815 553 783 q 422 847 485 847 q 326 815 360 847 q 292 722 292 783 l 292 604 l 576 604 l 576 417 l 292 417 l 292 292 q 326 199 292 232 q 422 167 360 167 q 519 199 485 167 q 553 292 553 232 l 761 292 q 719 131 761 200 q 601 24 676 63 q 422 -14 525 -14 z "},"Э":{"ha":833,"x_min":72,"x_max":750,"o":"m 411 -14 q 233 24 310 -14 q 115 131 157 63 q 72 292 72 200 l 281 292 q 315 199 281 232 q 411 167 349 167 q 508 199 474 167 q 542 292 542 232 l 542 417 l 257 417 l 257 604 l 542 604 l 542 722 q 508 815 542 783 q 411 847 474 847 q 315 815 349 847 q 281 722 281 783 l 72 722 q 115 883 72 815 q 233 990 157 951 q 411 1028 310 1028 q 590 990 514 1028 q 708 883 665 951 q 750 722 750 815 l 750 292 q 708 131 750 200 q 590 24 665 63 q 411 -14 514 -14 z "},"І":{"ha":833,"x_min":111,"x_max":722,"o":"m 111 0 l 111 188 l 313 188 l 313 826 l 111 826 l 111 1014 l 722 1014 l 722 826 l 521 826 l 521 188 l 722 188 l 722 0 l 111 0 z "},"Ї":{"ha":833,"x_min":111,"x_max":722,"o":"m 111 0 l 111 188 l 313 188 l 313 826 l 111 826 l 111 1014 l 722 1014 l 722 826 l 521 826 l 521 188 l 722 188 l 722 0 l 111 0 m 586 1114 q 505 1143 535 1114 q 475 1222 475 1172 q 505 1301 475 1272 q 586 1331 535 1331 q 667 1301 638 1331 q 697 1222 697 1272 q 667 1143 697 1172 q 586 1114 638 1114 m 247 1114 q 166 1143 196 1114 q 136 1222 136 1172 q 166 1301 136 1272 q 247 1331 196 1331 q 328 1301 299 1331 q 358 1222 358 1272 q 328 1143 358 1172 q 247 1114 299 1114 z "},"Ј":{"ha":833,"x_min":28,"x_max":722,"o":"m 375 -14 q 122 73 215 -14 q 28 307 28 160 l 236 307 q 274 205 236 243 q 375 167 311 167 q 476 203 439 167 q 514 304 514 240 l 514 826 l 229 826 l 229 1014 l 722 1014 l 722 304 q 629 72 722 157 q 375 -14 536 -14 z "},"Ћ":{"ha":833,"x_min":0,"x_max":799,"o":"m 139 0 l 139 819 l 0 819 l 0 1014 l 500 1014 l 500 819 l 347 819 l 347 583 l 367 603 q 558 688 451 688 q 732 610 667 688 q 797 403 797 532 l 799 0 l 590 0 l 589 396 q 504 507 589 507 q 393 449 451 507 l 347 403 l 347 0 l 139 0 z "},"Ю":{"ha":833,"x_min":56,"x_max":792,"o":"m 544 -14 q 385 54 444 -14 q 325 236 325 122 l 325 447 l 226 447 l 226 0 l 56 0 l 56 1014 l 226 1014 l 226 593 l 325 593 l 325 779 q 385 960 325 893 q 544 1028 444 1028 q 725 961 658 1028 q 792 779 792 894 l 792 236 q 725 54 792 122 q 544 -14 658 -14 m 544 139 q 601 161 581 139 q 621 222 621 183 l 621 793 q 600 853 621 831 q 544 875 579 875 q 490 853 510 875 q 469 793 469 831 l 469 222 q 490 161 469 183 q 544 139 510 139 z "},"Я":{"ha":833,"x_min":51,"x_max":742,"o":"m 51 0 l 239 417 q 110 528 158 450 q 63 706 63 607 q 106 869 63 800 q 230 976 150 939 q 417 1014 310 1014 l 742 1014 l 742 0 l 535 0 l 535 383 l 438 383 l 275 0 l 51 0 m 417 564 l 535 564 l 535 833 l 417 833 q 310 797 349 833 q 271 696 271 761 q 310 599 271 633 q 417 564 349 564 z "},"Ђ":{"ha":833,"x_min":0,"x_max":799,"o":"m 396 -250 l 396 -49 l 479 -49 q 561 -21 532 -49 q 590 57 590 7 l 589 396 q 504 507 589 507 q 393 449 451 507 l 347 403 l 347 0 l 139 0 l 139 819 l 0 819 l 0 1014 l 500 1014 l 500 819 l 347 819 l 347 583 l 367 603 q 558 688 451 688 q 732 610 667 688 q 797 403 797 532 l 799 35 q 756 -113 799 -49 q 639 -214 714 -178 q 465 -250 564 -250 l 396 -250 z "},"Ғ":{"ha":833,"x_min":42,"x_max":778,"o":"m 160 0 l 160 424 l 42 424 l 42 597 l 160 597 l 160 1014 l 778 1014 l 778 826 l 368 826 l 368 597 l 542 597 l 542 424 l 368 424 l 368 0 l 160 0 z "},"Қ":{"ha":833,"x_min":69,"x_max":826,"o":"m 69 0 l 69 1014 l 278 1014 l 278 615 l 375 615 l 544 1014 l 769 1014 l 558 533 l 697 194 l 826 194 l 826 -194 l 646 -194 l 646 0 l 550 0 l 376 435 l 278 435 l 278 0 l 69 0 z "},"Ң":{"ha":833,"x_min":78,"x_max":819,"o":"m 78 0 l 78 1014 l 286 1014 l 286 625 l 519 625 l 519 1014 l 728 1014 l 728 194 l 819 194 l 819 -194 l 639 -194 l 639 0 l 519 0 l 519 438 l 286 438 l 286 0 l 78 0 z "},"Ү":{"ha":833,"x_min":21,"x_max":813,"o":"m 313 0 l 313 361 l 21 1014 l 239 1014 l 367 708 q 401 611 386 663 q 421 528 415 560 q 441 611 428 560 q 472 708 454 663 l 596 1014 l 813 1014 l 521 361 l 521 0 l 313 0 z "},"Ұ":{"ha":833,"x_min":21,"x_max":813,"o":"m 167 236 l 167 361 l 313 361 l 21 1014 l 239 1014 l 367 708 q 401 611 386 663 q 421 528 415 560 q 441 611 428 560 q 472 708 454 663 l 596 1014 l 813 1014 l 521 361 l 667 361 l 667 236 l 521 236 l 521 0 l 313 0 l 313 236 l 167 236 z "},"Ҷ":{"ha":833,"x_min":56,"x_max":799,"o":"m 514 0 l 514 383 q 451 373 493 378 q 361 368 408 368 q 56 647 56 368 l 56 1014 l 264 1014 l 264 660 q 410 556 264 556 q 471 560 442 556 q 514 569 500 564 l 514 1014 l 722 1014 l 722 194 l 799 194 l 799 -194 l 618 -194 l 618 0 l 514 0 z "},"Һ":{"ha":833,"x_min":97,"x_max":764,"o":"m 306 1014 l 306 631 q 369 641 326 636 q 458 646 411 646 q 764 367 764 646 l 764 0 l 556 0 l 556 354 q 410 458 556 458 q 349 454 378 458 q 306 444 319 450 l 306 0 l 97 0 l 97 1014 l 306 1014 z "},"Ә":{"ha":833,"x_min":72,"x_max":750,"o":"m 411 -14 q 233 24 310 -14 q 115 131 157 63 q 72 292 72 200 l 72 604 l 542 604 l 542 722 q 508 815 542 783 q 411 847 474 847 q 315 815 349 847 q 281 722 281 783 l 72 722 q 115 883 72 815 q 233 990 157 951 q 411 1028 310 1028 q 590 990 514 1028 q 708 883 665 951 q 750 722 750 815 l 750 292 q 708 131 750 200 q 590 24 665 63 q 411 -14 514 -14 m 411 167 q 508 199 474 167 q 542 292 542 232 l 542 417 l 281 417 l 281 292 q 315 199 281 232 q 411 167 349 167 z "},"Ө":{"ha":833,"x_min":83,"x_max":750,"o":"m 417 -14 q 171 72 258 -14 q 83 299 83 157 l 83 717 q 171 942 83 857 q 417 1028 258 1028 q 663 942 575 1028 q 750 717 750 857 l 750 299 q 710 135 750 206 q 595 26 669 65 q 417 -14 521 -14 m 278 604 l 556 604 l 556 708 q 521 809 556 771 q 417 847 486 847 q 313 809 347 847 q 278 708 278 771 l 278 604 m 417 167 q 521 206 486 167 q 556 306 556 244 l 556 431 l 278 431 l 278 306 q 313 206 278 244 q 417 167 347 167 z "},"а":{"ha":833,"x_min":68,"x_max":744,"o":"m 318 -14 q 135 49 203 -14 q 68 218 68 111 q 151 397 68 335 q 390 458 235 458 l 536 458 l 536 514 q 504 585 536 560 q 415 610 472 610 q 327 588 360 610 q 294 528 294 565 l 100 528 q 190 710 103 643 q 424 778 278 778 q 658 708 572 778 q 744 514 744 638 l 744 0 l 543 0 l 543 118 l 539 118 q 463 21 519 56 q 318 -14 406 -14 m 396 138 q 497 169 457 138 q 536 254 536 201 l 536 335 l 394 335 q 308 309 339 335 q 276 238 276 283 q 308 164 276 190 q 396 138 340 138 z "},"б":{"ha":833,"x_min":86,"x_max":753,"o":"m 419 -14 q 176 70 267 -11 q 86 292 86 151 l 86 632 q 189 915 86 815 q 482 1014 292 1014 l 711 1014 l 711 815 l 482 815 q 339 768 390 815 q 288 632 288 721 l 288 535 l 292 535 q 351 645 297 604 q 497 686 406 686 q 685 607 618 686 q 753 388 753 528 l 753 292 q 712 128 753 199 q 597 22 671 58 q 419 -14 522 -15 m 419 167 q 513 199 481 167 q 544 292 544 232 l 544 388 q 513 481 544 449 q 419 513 481 513 q 327 481 360 513 q 294 388 294 449 l 294 292 q 327 199 294 232 q 419 167 360 167 z "},"в":{"ha":833,"x_min":92,"x_max":763,"o":"m 92 0 l 92 764 l 444 764 q 658 710 579 764 q 736 565 736 656 q 690 456 736 497 q 567 413 644 415 l 567 403 q 710 351 657 401 q 763 219 763 301 q 683 60 763 119 q 469 0 604 0 l 92 0 m 296 454 l 438 454 q 509 476 483 454 q 535 536 535 497 q 509 597 535 575 q 438 618 483 618 l 296 618 l 296 454 m 296 146 l 451 146 q 531 171 503 146 q 560 239 560 196 q 531 308 560 283 q 451 332 503 332 l 296 332 l 296 146 z "},"г":{"ha":833,"x_min":160,"x_max":743,"o":"m 160 0 l 160 764 l 743 764 l 743 569 l 368 569 l 368 0 l 160 0 z "},"ѓ":{"ha":833,"x_min":160,"x_max":743,"o":"m 160 0 l 160 764 l 743 764 l 743 569 l 368 569 l 368 0 l 160 0 m 336 896 l 482 1090 l 706 1090 l 543 896 l 336 896 z "},"ґ":{"ha":833,"x_min":160,"x_max":743,"o":"m 160 0 l 160 764 l 542 764 l 542 910 l 743 910 l 743 569 l 368 569 l 368 0 l 160 0 z "},"д":{"ha":833,"x_min":31,"x_max":803,"o":"m 31 -194 l 31 176 l 74 176 q 123 259 97 200 q 150 403 149 318 l 157 764 l 719 764 l 719 176 l 803 176 l 803 -194 l 608 -194 l 608 0 l 225 0 l 225 -194 l 31 -194 m 281 176 l 525 176 l 525 585 l 349 585 l 344 404 q 322 263 343 324 q 281 176 300 203 z "},"е":{"ha":833,"x_min":83,"x_max":750,"o":"m 418 -14 q 241 24 317 -14 q 124 131 165 63 q 83 292 83 200 l 83 472 q 124 633 83 564 q 241 740 165 701 q 418 778 317 778 q 594 740 519 778 q 709 633 668 701 q 750 472 750 564 l 750 333 l 282 333 l 282 292 q 421 146 282 146 q 539 208 519 146 l 743 208 q 630 47 718 108 q 418 -14 542 -14 m 282 472 l 282 451 l 551 454 l 551 475 q 418 621 551 621 q 316 582 350 621 q 282 472 282 543 z "},"ё":{"ha":833,"x_min":83,"x_max":750,"o":"m 418 -14 q 241 24 317 -14 q 124 131 165 63 q 83 292 83 200 l 83 472 q 124 633 83 564 q 241 740 165 701 q 418 778 317 778 q 594 740 519 778 q 709 633 668 701 q 750 472 750 564 l 750 333 l 282 333 l 282 292 q 421 146 282 146 q 539 208 519 146 l 743 208 q 630 47 718 108 q 418 -14 542 -14 m 282 472 l 282 451 l 551 454 l 551 475 q 418 621 551 621 q 316 582 350 621 q 282 472 282 543 m 586 885 q 505 914 535 885 q 475 993 475 943 q 505 1072 475 1043 q 586 1101 535 1101 q 667 1072 638 1101 q 697 993 697 1043 q 667 914 697 943 q 586 885 638 885 m 247 885 q 166 914 196 885 q 136 993 136 943 q 166 1072 136 1043 q 247 1101 196 1101 q 328 1072 299 1101 q 358 993 358 1043 q 328 914 358 943 q 247 885 299 885 z "},"ж":{"ha":833,"x_min":4,"x_max":829,"o":"m 4 0 l 150 392 l 15 764 l 196 764 l 308 424 l 346 424 l 346 764 l 488 764 l 488 424 l 525 424 l 649 764 l 818 764 l 683 396 l 829 0 l 654 0 l 526 354 l 488 354 l 488 0 l 346 0 l 346 354 l 306 354 l 189 0 l 4 0 z "},"з":{"ha":833,"x_min":63,"x_max":764,"o":"m 378 -10 q 165 53 250 -10 q 63 222 81 115 l 264 222 q 304 172 274 190 q 378 153 335 153 l 457 153 q 529 174 503 153 q 556 233 556 196 q 529 290 556 269 q 457 311 503 311 l 264 311 l 264 469 l 449 469 q 515 488 492 469 q 539 540 539 507 q 449 611 539 611 l 385 611 q 313 592 342 611 q 274 542 283 574 l 72 542 q 174 711 90 649 q 385 774 257 774 l 449 774 q 665 717 585 774 q 746 565 746 661 q 708 460 746 503 q 603 401 669 417 q 720 338 676 386 q 764 218 764 289 q 681 52 764 114 q 457 -10 597 -10 l 378 -10 z "},"и":{"ha":833,"x_min":92,"x_max":742,"o":"m 92 0 l 92 764 l 275 764 l 275 417 q 271 330 275 382 q 260 225 267 278 q 247 132 254 172 l 489 764 l 742 764 l 742 0 l 558 0 l 558 347 q 563 430 558 383 q 572 524 567 476 q 583 604 578 571 l 344 0 l 92 0 z "},"й":{"ha":833,"x_min":92,"x_max":742,"o":"m 92 0 l 92 764 l 275 764 l 275 417 q 271 330 275 382 q 260 225 267 278 q 247 132 254 172 l 489 764 l 742 764 l 742 0 l 558 0 l 558 347 q 563 430 558 383 q 572 524 567 476 q 583 604 578 571 l 344 0 l 92 0 m 417 882 q 231 940 303 882 q 160 1090 160 997 l 319 1090 q 347 1027 319 1051 q 417 1003 374 1003 q 488 1027 461 1003 q 514 1090 514 1051 l 674 1090 q 603 940 674 997 q 417 882 532 882 z "},"к":{"ha":833,"x_min":96,"x_max":803,"o":"m 96 0 l 96 764 l 304 764 l 304 475 l 407 475 l 567 764 l 799 764 l 586 390 l 803 0 l 567 0 l 406 300 l 304 300 l 304 0 l 96 0 z "},"ќ":{"ha":833,"x_min":96,"x_max":803,"o":"m 96 0 l 96 764 l 304 764 l 304 475 l 407 475 l 567 764 l 799 764 l 586 390 l 803 0 l 567 0 l 406 300 l 304 300 l 304 0 l 96 0 m 294 896 l 440 1090 l 664 1090 l 501 896 l 294 896 z "},"л":{"ha":833,"x_min":29,"x_max":742,"o":"m 29 -10 l 29 178 l 71 178 q 131 208 107 178 q 156 289 154 239 l 164 764 l 742 764 l 742 0 l 533 0 l 533 575 l 368 575 l 363 275 q 326 126 361 190 q 228 26 290 61 q 85 -10 167 -10 l 29 -10 z "},"м":{"ha":833,"x_min":58,"x_max":775,"o":"m 58 0 l 58 764 l 293 764 l 383 479 q 408 391 399 431 q 418 332 417 351 q 428 391 421 351 q 451 479 436 431 l 540 764 l 775 764 l 775 0 l 585 0 l 585 139 q 588 281 585 200 q 597 443 592 363 q 607 583 603 524 l 506 215 l 329 215 l 222 583 q 234 447 228 526 q 244 287 240 368 q 249 139 249 206 l 249 0 l 58 0 z "},"н":{"ha":833,"x_min":92,"x_max":742,"o":"m 92 0 l 92 764 l 300 764 l 300 485 l 533 485 l 533 764 l 742 764 l 742 0 l 533 0 l 533 296 l 300 296 l 300 0 l 92 0 z "},"о":{"ha":833,"x_min":83,"x_max":750,"o":"m 417 -14 q 240 24 315 -14 q 124 131 165 63 q 83 292 83 200 l 83 472 q 124 633 83 564 q 240 740 165 701 q 417 778 315 778 q 594 740 519 778 q 709 633 668 701 q 750 472 750 564 l 750 292 q 709 131 750 200 q 594 24 668 63 q 417 -14 519 -14 m 417 167 q 510 199 478 167 q 542 292 542 232 l 542 472 q 510 565 542 533 q 417 597 478 597 q 324 565 357 597 q 292 472 292 533 l 292 292 q 324 199 292 232 q 417 167 357 167 z "},"п":{"ha":833,"x_min":92,"x_max":742,"o":"m 92 0 l 92 764 l 742 764 l 742 0 l 533 0 l 533 575 l 300 575 l 300 0 l 92 0 z "}}}
